<svg width="15" height="15" viewBox="0 0 15 15" fill="none" xmlns="http://www.w3.org/2000/svg">
<path d="M2.37187 8.50684L2.80969 9.36934C2.50969 9.66465 2.34375 9.98621 2.34375 10.3125C2.34375 11.5181 4.61906 12.6562 7.5 12.6562C10.3809 12.6562 12.6562 11.5181 12.6562 10.3125C12.6562 9.98621 12.4894 9.66559 12.1903 9.37027L12.6366 8.51434C13.2413 9.02059 13.5938 9.63371 13.5938 10.3125C13.5938 12.2128 10.8319 13.5937 7.5 13.5937C4.16813 13.5937 1.40625 12.2128 1.40625 10.3125C1.40625 9.62996 1.7625 9.01496 2.37187 8.50684Z" fill="white"/>
<path d="M2.37187 5.69434L2.80969 6.55684C2.50969 6.85309 2.34375 7.17465 2.34375 7.49996C2.34375 8.70559 4.61906 9.84371 7.5 9.84371C10.3809 9.84371 12.6562 8.70559 12.6562 7.49996C12.6562 7.17371 12.4894 6.85309 12.1903 6.55777L12.6366 5.70184C13.2413 6.20809 13.5938 6.82121 13.5938 7.49996C13.5938 9.40027 10.8319 10.7812 7.5 10.7812C4.16813 10.7812 1.40625 9.40027 1.40625 7.49996C1.40625 6.81746 1.7625 6.20246 2.37187 5.69434Z" fill="white"/>
<path d="M7.5 7.96875C4.16813 7.96875 1.40625 6.58781 1.40625 4.6875C1.40625 2.78719 4.16813 1.40625 7.5 1.40625C10.8319 1.40625 13.5938 2.78719 13.5938 4.6875C13.5938 6.58781 10.8319 7.96875 7.5 7.96875ZM7.5 7.03125C10.3809 7.03125 12.6562 5.89313 12.6562 4.6875C12.6562 3.48187 10.3809 2.34375 7.5 2.34375C4.61906 2.34375 2.34375 3.48187 2.34375 4.6875C2.34375 5.89313 4.61906 7.03125 7.5 7.03125Z" fill="white"/>
</svg>