<svg width="25" height="19" viewBox="0 0 25 19" fill="none" xmlns="http://www.w3.org/2000/svg">
<path d="M12.4994 1.13053C8.02295 1.13053 4.42209 4.86156 4.42209 9.49983C4.42209 14.1381 8.02295 17.8691 12.4994 17.8691C16.9758 17.8691 20.5767 14.1381 20.5767 9.49983C20.5767 4.86156 16.9758 1.13053 12.4994 1.13053Z" fill="#7EF6B2"/>
<path d="M10.2784 8.17519C10.2784 9.39543 10.9851 9.8139 12.3987 9.98881C13.4083 10.1286 13.6102 10.4073 13.6102 10.8952C13.6102 11.3831 13.2734 11.697 12.6006 11.697C11.9948 11.697 11.658 11.4878 11.49 10.9647C11.456 10.8601 11.3551 10.7906 11.2541 10.7906H10.7154C10.5805 10.7906 10.4795 10.8952 10.4795 11.035V11.0701C10.6144 11.8376 11.2202 12.4301 11.994 12.4996V13.3365C11.994 13.4763 12.095 13.5809 12.263 13.6152H12.7678C12.9027 13.6152 13.0036 13.5106 13.0368 13.3365V12.5348C14.0464 12.395 14.6861 11.6978 14.6861 10.8257C14.6861 9.67497 14.0133 9.22135 12.5998 9.04727C11.6572 8.87319 11.3543 8.66395 11.3543 8.10572C11.3543 7.54749 11.8252 7.16417 12.4649 7.16417C13.3397 7.16417 13.6426 7.54749 13.7435 8.07057C13.7774 8.21034 13.8784 8.2798 13.9794 8.2798H14.5513C14.6861 8.2798 14.7871 8.17519 14.7871 8.03542V8.00027C14.6522 7.12819 14.1143 6.50049 13.0036 6.32641V5.48948C13.0036 5.34971 12.9027 5.24509 12.7347 5.21078H12.2298C12.095 5.21078 11.994 5.31539 11.9609 5.48948V6.32641C10.952 6.50132 10.2784 7.23364 10.2784 8.17519Z" fill="white"/>
<path d="M14.216 4.51381C16.8411 5.49051 18.1876 8.52438 17.2111 11.2093C16.7063 12.6739 15.5956 13.7895 14.216 14.3126C14.0811 14.3821 14.0141 14.4867 14.0141 14.6616V15.1495C14.0141 15.2893 14.0811 15.3939 14.216 15.4282C14.25 15.4282 14.317 15.4282 14.3509 15.3931C17.5479 14.3469 19.2983 10.8251 18.2886 7.5117C17.6828 5.55914 16.2353 4.05936 14.3509 3.43166C14.216 3.36219 14.0819 3.43166 14.048 3.57143C14.0141 3.60658 14.0141 3.64089 14.0141 3.71119V4.19912C14.0141 4.30458 14.1151 4.44351 14.216 4.51381ZM10.6491 15.3939C10.784 15.4634 10.9181 15.3939 10.952 15.2541C10.9859 15.219 10.9859 15.1847 10.9859 15.1144V14.6264C10.9859 14.4867 10.885 14.3477 10.784 14.2774C8.15887 13.3007 6.81239 10.2669 7.78893 7.582C8.29376 6.11737 9.40439 5.00174 10.784 4.47866C10.9189 4.40919 10.9859 4.30458 10.9859 4.12966V3.64173C10.9859 3.50196 10.9189 3.39734 10.784 3.36303C10.7501 3.36303 10.683 3.36303 10.6491 3.39818C7.45211 4.44435 5.70176 7.96615 6.71142 11.2796C7.31722 13.2664 8.79778 14.7662 10.6491 15.3939Z" fill="white"/>
</svg>
