<svg width="16" height="15" viewBox="0 0 16 15" fill="none" xmlns="http://www.w3.org/2000/svg">
<path d="M14.3243 1L8.84668 5.06378L9.86398 2.66625L14.3243 1Z" fill="#E17726" stroke="#E17726" stroke-width="0.712817" stroke-linecap="round" stroke-linejoin="round"/>
<path d="M1.69238 1L7.12015 5.10224L6.15268 2.66625L1.69238 1Z" fill="#E27625" stroke="#E27625" stroke-width="0.712817" stroke-linecap="round" stroke-linejoin="round"/>
<path d="M12.3556 10.4199L10.8984 12.6528L14.0164 13.5103L14.9075 10.4692L12.3556 10.4199Z" fill="#E27625" stroke="#E27625" stroke-width="0.712817" stroke-linecap="round" stroke-linejoin="round"/>
<path d="M1.11523 10.4692L2.0009 13.5103L5.11889 12.6528L3.66715 10.4199L1.11523 10.4692Z" fill="#E27625" stroke="#E27625" stroke-width="0.712817" stroke-linecap="round" stroke-linejoin="round"/>
<path d="M4.94793 6.6477L4.0791 7.96233L7.16984 8.09991L7.0653 4.77246L4.94793 6.6477Z" fill="#E27625" stroke="#E27625" stroke-width="0.712817" stroke-linecap="round" stroke-linejoin="round"/>
<path d="M11.0686 6.6471L8.91818 4.7334L8.84668 8.0993L11.9374 7.96172L11.0686 6.6471Z" fill="#E27625" stroke="#E27625" stroke-width="0.712817" stroke-linecap="round" stroke-linejoin="round"/>
<path d="M5.11914 12.6528L6.98384 11.7448L5.37756 10.4912L5.11914 12.6528Z" fill="#E27625" stroke="#E27625" stroke-width="0.712817" stroke-linecap="round" stroke-linejoin="round"/>
<path d="M9.03418 11.7448L10.8989 12.6528L10.6405 10.4912L9.03418 11.7448Z" fill="#E27625" stroke="#E27625" stroke-width="0.712817" stroke-linecap="round" stroke-linejoin="round"/>
<path d="M10.8989 12.6531L9.03418 11.7451L9.18262 12.9608L9.16637 13.4722L10.8989 12.6531Z" fill="#D5BFB2" stroke="#D5BFB2" stroke-width="0.712817" stroke-linecap="round" stroke-linejoin="round"/>
<path d="M5.11914 12.6531L6.85166 13.4722L6.84082 12.9608L6.98384 11.7451L5.11914 12.6531Z" fill="#D5BFB2" stroke="#D5BFB2" stroke-width="0.712817" stroke-linecap="round" stroke-linejoin="round"/>
<path d="M6.88404 9.68817L5.33301 9.23202L6.42734 8.73145L6.88404 9.68817Z" fill="#233447" stroke="#233447" stroke-width="0.712817" stroke-linecap="round" stroke-linejoin="round"/>
<path d="M9.13281 9.68817L9.58951 8.73145L10.6893 9.23202L9.13281 9.68817Z" fill="#233447" stroke="#233447" stroke-width="0.712817" stroke-linecap="round" stroke-linejoin="round"/>
<path d="M5.11888 12.653L5.38813 10.4199L3.66699 10.4692L5.11888 12.653Z" fill="#CC6228" stroke="#CC6228" stroke-width="0.712817" stroke-linecap="round" stroke-linejoin="round"/>
<path d="M10.6289 10.4199L10.8982 12.653L12.3555 10.4692L10.6289 10.4199Z" fill="#CC6228" stroke="#CC6228" stroke-width="0.712817" stroke-linecap="round" stroke-linejoin="round"/>
<path d="M11.9374 7.96191L8.84668 8.0995L9.13268 9.6882L9.5893 8.73162L10.6889 9.23212L11.9374 7.96191Z" fill="#CC6228" stroke="#CC6228" stroke-width="0.712817" stroke-linecap="round" stroke-linejoin="round"/>
<path d="M5.33306 9.23212L6.42722 8.73162L6.88384 9.6882L7.16984 8.0995L4.0791 7.96191L5.33306 9.23212Z" fill="#CC6228" stroke="#CC6228" stroke-width="0.712817" stroke-linecap="round" stroke-linejoin="round"/>
<path d="M4.0791 7.96191L5.37693 10.4915L5.33306 9.23212L4.0791 7.96191Z" fill="#E27525" stroke="#E27525" stroke-width="0.712817" stroke-linecap="round" stroke-linejoin="round"/>
<path d="M10.6889 9.23212L10.6396 10.4915L11.9375 7.96191L10.6889 9.23212Z" fill="#E27525" stroke="#E27525" stroke-width="0.712817" stroke-linecap="round" stroke-linejoin="round"/>
<path d="M7.16979 8.09961L6.88379 9.68831L7.2467 11.5636L7.32362 9.09465L7.16979 8.09961Z" fill="#E27525" stroke="#E27525" stroke-width="0.712817" stroke-linecap="round" stroke-linejoin="round"/>
<path d="M8.84666 8.09961L8.69824 9.08923L8.76974 11.5636L9.13266 9.68831L8.84666 8.09961Z" fill="#E27525" stroke="#E27525" stroke-width="0.712817" stroke-linecap="round" stroke-linejoin="round"/>
<path d="M9.13342 9.6885L8.77051 11.5637L9.0343 11.7452L10.6403 10.4918L10.6896 9.23242L9.13342 9.6885Z" fill="#F5841F" stroke="#F5841F" stroke-width="0.712817" stroke-linecap="round" stroke-linejoin="round"/>
<path d="M5.33301 9.23242L5.37688 10.4918L6.98292 11.7452L7.24671 11.5637L6.88379 9.6885L5.33301 9.23242Z" fill="#F5841F" stroke="#F5841F" stroke-width="0.712817" stroke-linecap="round" stroke-linejoin="round"/>
<path d="M9.16667 13.4724L9.18292 12.961L9.04587 12.8402H6.97227L6.84064 12.961L6.85148 13.4724L5.11914 12.6533L5.72421 13.1479L6.95602 14.0005H9.06212L10.2939 13.1479L10.899 12.6533L9.16667 13.4724Z" fill="#C0AC9D" stroke="#C0AC9D" stroke-width="0.712817" stroke-linecap="round" stroke-linejoin="round"/>
<path d="M9.03359 11.7449L8.7698 11.5635H7.24663L6.98284 11.7449L6.83984 12.9604L6.97147 12.8396H9.04496L9.182 12.9604L9.03359 11.7449Z" fill="#161616" stroke="#161616" stroke-width="0.712817" stroke-linecap="round" stroke-linejoin="round"/>
<path d="M14.5557 5.32813L15.0177 3.08443L14.3249 1L9.03418 4.92673L11.0693 6.64769L13.9452 7.48948L14.5779 6.74682L14.3027 6.5491L14.7425 6.14717L14.4072 5.88336L14.8471 5.54805L14.5557 5.32813Z" fill="#763E1A" stroke="#763E1A" stroke-width="0.712817" stroke-linecap="round" stroke-linejoin="round"/>
<path d="M1 3.08443L1.46748 5.32813L1.17063 5.54805L1.61049 5.88336L1.27518 6.14717L1.71504 6.5491L1.43986 6.74682L2.07255 7.48948L4.9484 6.64769L6.98354 4.92673L1.69283 1L1 3.08443Z" fill="#763E1A" stroke="#763E1A" stroke-width="0.712817" stroke-linecap="round" stroke-linejoin="round"/>
<path d="M13.9445 7.48925L11.0687 6.64746L11.9375 7.96215L10.6396 10.4919L12.3552 10.4696H14.9071L13.9445 7.48925Z" fill="#F5841F" stroke="#F5841F" stroke-width="0.712817" stroke-linecap="round" stroke-linejoin="round"/>
<path d="M4.94825 6.64746L2.07241 7.48925L1.11523 10.4696H3.66715L5.37728 10.4919L4.07938 7.96215L4.94825 6.64746Z" fill="#F5841F" stroke="#F5841F" stroke-width="0.712817" stroke-linecap="round" stroke-linejoin="round"/>
<path d="M8.84658 8.09945L9.03346 4.92638L9.86383 2.66602H6.15234L6.98272 4.92638L7.16959 8.09945L7.24109 9.09991L7.24651 11.5634H8.76967L8.77508 9.09991L8.84658 8.09945Z" fill="#F5841F" stroke="#F5841F" stroke-width="0.712817" stroke-linecap="round" stroke-linejoin="round"/>
</svg>
