<svg width="14" height="14" viewBox="0 0 14 14" fill="none" xmlns="http://www.w3.org/2000/svg">
<path fill-rule="evenodd" clip-rule="evenodd" d="M2.5 5.875C2.30109 5.875 2.11032 5.95402 1.96967 6.09467C1.82902 6.23532 1.75 6.42609 1.75 6.625V7.375C1.75 7.57391 1.82902 7.76468 1.96967 7.90533C2.11032 8.04598 2.30109 8.125 2.5 8.125H3.25C3.44891 8.125 3.63968 8.04598 3.78033 7.90533C3.92098 7.76468 4 7.57391 4 7.375V6.625C4 6.42609 3.92098 6.23532 3.78033 6.09467C3.63968 5.95402 3.44891 5.875 3.25 5.875H2.5ZM2.5 6.625V7.375H3.25V6.625H2.5ZM4.75 6.625C4.75 6.42609 4.82902 6.23532 4.96967 6.09467C5.11032 5.95402 5.30109 5.875 5.5 5.875H6.25C6.44891 5.875 6.63968 5.95402 6.78033 6.09467C6.92098 6.23532 7 6.42609 7 6.625V7.375C7 7.57391 6.92098 7.76468 6.78033 7.90533C6.63968 8.04598 6.44891 8.125 6.25 8.125H5.5C5.30109 8.125 5.11032 8.04598 4.96967 7.90533C4.82902 7.76468 4.75 7.57391 4.75 7.375V6.625ZM5.5 6.625H6.25V7.375H5.5V6.625ZM8.5 5.875C8.30109 5.875 8.11032 5.95402 7.96967 6.09467C7.82902 6.23532 7.75 6.42609 7.75 6.625V7.375C7.75 7.57391 7.82902 7.76468 7.96967 7.90533C8.11032 8.04598 8.30109 8.125 8.5 8.125H9.25C9.44891 8.125 9.63968 8.04598 9.78033 7.90533C9.92098 7.76468 10 7.57391 10 7.375V6.625C10 6.42609 9.92098 6.23532 9.78033 6.09467C9.63968 5.95402 9.44891 5.875 9.25 5.875H8.5ZM8.5 6.625V7.375H9.25V6.625H8.5ZM1.75 9.625C1.75 9.42609 1.82902 9.23532 1.96967 9.09467C2.11032 8.95402 2.30109 8.875 2.5 8.875H3.25C3.44891 8.875 3.63968 8.95402 3.78033 9.09467C3.92098 9.23532 4 9.42609 4 9.625V10.375C4 10.5739 3.92098 10.7647 3.78033 10.9053C3.63968 11.046 3.44891 11.125 3.25 11.125H2.5C2.30109 11.125 2.11032 11.046 1.96967 10.9053C1.82902 10.7647 1.75 10.5739 1.75 10.375V9.625ZM3.25 9.625V10.375H2.5V9.625H3.25ZM5.5 8.875C5.30109 8.875 5.11032 8.95402 4.96967 9.09467C4.82902 9.23532 4.75 9.42609 4.75 9.625V10.375C4.75 10.5739 4.82902 10.7647 4.96967 10.9053C5.11032 11.046 5.30109 11.125 5.5 11.125H6.25C6.44891 11.125 6.63968 11.046 6.78033 10.9053C6.92098 10.7647 7 10.5739 7 10.375V9.625C7 9.42609 6.92098 9.23532 6.78033 9.09467C6.63968 8.95402 6.44891 8.875 6.25 8.875H5.5ZM6.25 9.625H5.5V10.375H6.25V9.625Z" fill="#F8F8F8"/>
<path d="M11.5 10.1875C11.5 10.088 11.4605 9.99266 11.3902 9.92233C11.3198 9.85201 11.2245 9.8125 11.125 9.8125C11.0255 9.8125 10.9302 9.85201 10.8598 9.92233C10.7895 9.99266 10.75 10.088 10.75 10.1875V11.2803L11.2349 11.7651C11.3056 11.8334 11.4003 11.8712 11.4987 11.8704C11.597 11.8695 11.691 11.8301 11.7606 11.7606C11.8301 11.691 11.8695 11.597 11.8704 11.4987C11.8712 11.4003 11.8334 11.3056 11.7651 11.2349L11.5 10.9697V10.1875Z" fill="#F8F8F8"/>
<path fill-rule="evenodd" clip-rule="evenodd" d="M2.5 0.625C2.5 0.525544 2.53951 0.430161 2.60984 0.359835C2.68016 0.289509 2.77554 0.25 2.875 0.25C2.97446 0.25 3.06984 0.289509 3.14017 0.359835C3.21049 0.430161 3.25 0.525544 3.25 0.625V2.5C3.25 2.59946 3.28951 2.69484 3.35984 2.76516C3.43016 2.83549 3.52554 2.875 3.625 2.875C3.72446 2.875 3.81984 2.83549 3.89017 2.76516C3.96049 2.69484 4 2.59946 4 2.5V1.375H7.75V0.625C7.75 0.525544 7.78951 0.430161 7.85984 0.359835C7.93016 0.289509 8.02554 0.25 8.125 0.25C8.22446 0.25 8.31984 0.289509 8.39017 0.359835C8.46049 0.430161 8.5 0.525544 8.5 0.625V2.5C8.5 2.59946 8.53951 2.69484 8.60984 2.76516C8.68016 2.83549 8.77554 2.875 8.875 2.875C8.97446 2.875 9.06984 2.83549 9.14017 2.76516C9.21049 2.69484 9.25 2.59946 9.25 2.5V1.375H10.375C10.6734 1.375 10.9595 1.49353 11.1705 1.7045C11.3815 1.91548 11.5 2.20163 11.5 2.5V8.52625C12.1568 8.62118 12.7533 8.96135 13.1695 9.47831C13.5857 9.99527 13.7906 10.6507 13.7431 11.3126C13.6956 11.9746 13.3991 12.594 12.9134 13.0462C12.4276 13.4984 11.7887 13.7499 11.125 13.75C10.7018 13.7503 10.2848 13.6481 9.90959 13.4522C9.53443 13.2563 9.21227 12.9725 8.97062 12.625H1.375C1.07663 12.625 0.790483 12.5065 0.579505 12.2955C0.368526 12.0845 0.25 11.7984 0.25 11.5V2.5C0.25 2.20163 0.368526 1.91548 0.579505 1.7045C0.790483 1.49353 1.07663 1.375 1.375 1.375H2.5V0.625ZM8.5 11.125C8.49992 10.4937 8.72733 9.88348 9.14056 9.40619C9.55379 8.92891 10.1252 8.61652 10.75 8.52625V4.75H1V11.5C1 11.5995 1.03951 11.6948 1.10984 11.7652C1.18016 11.8355 1.27554 11.875 1.375 11.875H8.60875C8.53642 11.6316 8.49979 11.3789 8.5 11.125ZM13 11.125C13 11.6223 12.8025 12.0992 12.4508 12.4508C12.0992 12.8025 11.6223 13 11.125 13C10.6277 13 10.1508 12.8025 9.79918 12.4508C9.44755 12.0992 9.25 11.6223 9.25 11.125C9.25 10.6277 9.44755 10.1508 9.79918 9.79918C10.1508 9.44754 10.6277 9.25 11.125 9.25C11.6223 9.25 12.0992 9.44754 12.4508 9.79918C12.8025 10.1508 13 10.6277 13 11.125Z" fill="#F8F8F8"/>
</svg>
