<svg width="12" height="12" viewBox="0 0 12 12" fill="none" xmlns="http://www.w3.org/2000/svg">
<path d="M6.00292 6.58512C6.35193 6.58511 6.69298 6.68945 6.98223 6.88474C7.27149 7.08003 7.49575 7.35735 7.62619 7.68107C7.75663 8.00479 7.7873 8.36012 7.71425 8.7014C7.6412 9.04268 7.46777 9.35433 7.21625 9.59629L6.10209 10.6685H7.75292V11.8351H4.25292L4.25234 10.8295L6.40717 8.75571C6.4767 8.68888 6.52857 8.60585 6.55815 8.51405C6.58772 8.42226 6.59408 8.32456 6.57664 8.22971C6.55921 8.13486 6.51853 8.04581 6.45825 7.97053C6.39797 7.89526 6.31996 7.8361 6.23121 7.79836C6.14246 7.76061 6.04574 7.74546 5.94971 7.75426C5.85367 7.76306 5.76131 7.79553 5.68089 7.84877C5.60048 7.90201 5.53452 7.97435 5.48892 8.05933C5.44332 8.14431 5.4195 8.23927 5.41959 8.33571H4.25292C4.25284 8.10585 4.29805 7.87822 4.38596 7.66583C4.47387 7.45345 4.60277 7.26046 4.76528 7.09789C4.92779 6.93533 5.12073 6.80637 5.33309 6.71839C5.54545 6.63041 5.77306 6.58512 6.00292 6.58512ZM9.50292 6.58512V8.91846H10.6696V6.58512H11.8363V11.8351H10.6696V10.0851H8.33625V6.58512H9.50292ZM1.33625 6.00179C1.33553 6.70155 1.49249 7.39248 1.79545 8.02325C2.09842 8.65403 2.53961 9.20844 3.08625 9.64529V11.0546C2.19917 10.5427 1.46255 9.80623 0.950538 8.91922C0.438523 8.0322 0.169171 7.02598 0.169587 6.00179H1.33625ZM6.00292 0.168459C9.0275 0.168459 11.5148 2.47088 11.8071 5.41846H10.6334C10.5149 4.47781 10.1128 3.59555 9.48054 2.88909C8.84827 2.18263 8.01584 1.68548 7.09404 1.46381C6.17224 1.24213 5.20479 1.30644 4.32044 1.64817C3.4361 1.98991 2.67679 2.59286 2.14359 3.37679H3.66959V4.54346H0.169587V1.04346H1.33625V2.50179C1.87914 1.77681 2.58361 1.18842 3.39371 0.783375C4.20381 0.378326 5.0972 0.167778 6.00292 0.168459Z" fill="#F8F8F8"/>
</svg>
