<svg width="14" height="14" viewBox="0 0 14 14" fill="none" xmlns="http://www.w3.org/2000/svg">
<path d="M12.6459 1.86084H10.4311C10.3868 1.86084 10.3442 1.87846 10.3129 1.90983C10.2815 1.94119 10.2639 1.98373 10.2639 2.02809C10.2639 2.07245 10.2815 2.11499 10.3129 2.14635C10.3442 2.17772 10.3868 2.19534 10.4311 2.19534H12.6459C12.6665 2.19534 12.683 2.21184 12.683 2.23246V4.62121H0.340634V2.23246C0.340733 2.22258 0.344727 2.21314 0.351749 2.20619C0.358771 2.19924 0.368253 2.19534 0.378134 2.19534H2.71213C2.75649 2.19534 2.79903 2.17772 2.8304 2.14635C2.86176 2.11499 2.87938 2.07245 2.87938 2.02809C2.87938 1.98373 2.86176 1.94119 2.8304 1.90983C2.79903 1.87846 2.75649 1.86084 2.71213 1.86084H0.378134C0.279569 1.86094 0.185064 1.90011 0.115332 1.96977C0.0456009 2.03943 0.0063325 2.1339 0.00613403 2.23246V13.3077C0.00613403 13.5132 0.173009 13.6801 0.378134 13.6801H12.6459C12.7445 13.6799 12.839 13.6406 12.9087 13.5708C12.9784 13.5009 13.0175 13.4063 13.0175 13.3077V2.23246C13.0173 2.13396 12.9781 2.03956 12.9084 1.96991C12.8388 1.90025 12.7444 1.86104 12.6459 1.86084ZM12.6459 13.3456H0.378134C0.373178 13.3456 0.368271 13.3446 0.363696 13.3427C0.359122 13.3408 0.354971 13.338 0.351484 13.3345C0.347997 13.331 0.345243 13.3268 0.34338 13.3222C0.341518 13.3176 0.340584 13.3127 0.340634 13.3077V4.95534H12.683V13.3073C12.6831 13.3123 12.6822 13.3172 12.6804 13.3218C12.6786 13.3264 12.6759 13.3307 12.6724 13.3342C12.669 13.3378 12.6649 13.3406 12.6603 13.3426C12.6557 13.3445 12.6508 13.3455 12.6459 13.3456Z" fill="#F8F8F8"/>
<path d="M4.31413 2.19526H8.77813C8.82249 2.19526 8.86503 2.17764 8.89639 2.14628C8.92776 2.11491 8.94538 2.07237 8.94538 2.02801C8.94538 1.98366 8.92776 1.94112 8.89639 1.90975C8.86503 1.87838 8.82249 1.86076 8.77813 1.86076H4.31413C4.26977 1.86076 4.22723 1.87838 4.19586 1.90975C4.1645 1.94112 4.14688 1.98366 4.14688 2.02801C4.14688 2.07237 4.1645 2.11491 4.19586 2.14628C4.22723 2.17764 4.26977 2.19526 4.31413 2.19526ZM3.55513 3.35401C3.64738 3.35401 3.72238 3.27901 3.72238 3.18676V0.937514C3.72238 0.91555 3.71805 0.893802 3.70965 0.87351C3.70124 0.853218 3.68892 0.834781 3.67339 0.81925C3.65786 0.80372 3.63942 0.7914 3.61913 0.782995C3.59884 0.77459 3.57709 0.770264 3.55513 0.770264C3.53316 0.770264 3.51142 0.77459 3.49112 0.782995C3.47083 0.7914 3.4524 0.80372 3.43686 0.81925C3.42133 0.834781 3.40901 0.853218 3.40061 0.87351C3.3922 0.893802 3.38788 0.91555 3.38788 0.937514V3.18714C3.38788 3.27939 3.46288 3.35401 3.55513 3.35401ZM9.61288 3.35401C9.70513 3.35401 9.78013 3.27901 9.78013 3.18676V0.937514C9.78013 0.893156 9.76251 0.850616 9.73114 0.81925C9.69978 0.787885 9.65724 0.770264 9.61288 0.770264C9.56852 0.770264 9.52598 0.787885 9.49461 0.81925C9.46325 0.850616 9.44563 0.893156 9.44563 0.937514V3.18714C9.44563 3.27939 9.52025 3.35401 9.61288 3.35401Z" fill="#F8F8F8"/>
<path d="M2.69076 7.48535C3.19983 7.48535 3.61251 7.07266 3.61251 6.5636C3.61251 6.05453 3.19983 5.64185 2.69076 5.64185C2.18169 5.64185 1.76901 6.05453 1.76901 6.5636C1.76901 7.07266 2.18169 7.48535 2.69076 7.48535Z" fill="#F8F8F8"/>
<path d="M5.33975 7.48535C5.84882 7.48535 6.2615 7.07266 6.2615 6.5636C6.2615 6.05453 5.84882 5.64185 5.33975 5.64185C4.83068 5.64185 4.418 6.05453 4.418 6.5636C4.418 7.07266 4.83068 7.48535 5.33975 7.48535Z" fill="#F8F8F8"/>
<path d="M7.98837 7.48535C8.49744 7.48535 8.91012 7.07266 8.91012 6.5636C8.91012 6.05453 8.49744 5.64185 7.98837 5.64185C7.4793 5.64185 7.06662 6.05453 7.06662 6.5636C7.06662 7.07266 7.4793 7.48535 7.98837 7.48535Z" fill="#F8F8F8"/>
<path d="M2.69076 10.0522C3.19983 10.0522 3.61251 9.63956 3.61251 9.13049C3.61251 8.62142 3.19983 8.20874 2.69076 8.20874C2.18169 8.20874 1.76901 8.62142 1.76901 9.13049C1.76901 9.63956 2.18169 10.0522 2.69076 10.0522Z" fill="#F8F8F8"/>
<path d="M5.33975 10.0522C5.84882 10.0522 6.2615 9.63956 6.2615 9.13049C6.2615 8.62142 5.84882 8.20874 5.33975 8.20874C4.83068 8.20874 4.418 8.62142 4.418 9.13049C4.418 9.63956 4.83068 10.0522 5.33975 10.0522Z" fill="#F8F8F8"/>
<path d="M7.98837 10.0522C8.49744 10.0522 8.91012 9.63956 8.91012 9.13049C8.91012 8.62142 8.49744 8.20874 7.98837 8.20874C7.4793 8.20874 7.06662 8.62142 7.06662 9.13049C7.06662 9.63956 7.4793 10.0522 7.98837 10.0522Z" fill="#F8F8F8"/>
<path d="M2.69076 12.6191C3.19983 12.6191 3.61251 12.2065 3.61251 11.6974C3.61251 11.1883 3.19983 10.7756 2.69076 10.7756C2.18169 10.7756 1.76901 11.1883 1.76901 11.6974C1.76901 12.2065 2.18169 12.6191 2.69076 12.6191Z" fill="#F8F8F8"/>
<path d="M5.33975 12.6191C5.84882 12.6191 6.2615 12.2065 6.2615 11.6974C6.2615 11.1883 5.84882 10.7756 5.33975 10.7756C4.83068 10.7756 4.418 11.1883 4.418 11.6974C4.418 12.2065 4.83068 12.6191 5.33975 12.6191Z" fill="#F8F8F8"/>
<path d="M7.98837 12.6191C8.49744 12.6191 8.91012 12.2065 8.91012 11.6974C8.91012 11.1883 8.49744 10.7756 7.98837 10.7756C7.4793 10.7756 7.06662 11.1883 7.06662 11.6974C7.06662 12.2065 7.4793 12.6191 7.98837 12.6191Z" fill="#F8F8F8"/>
<path d="M10.5751 7.48535C11.0842 7.48535 11.4969 7.07266 11.4969 6.5636C11.4969 6.05453 11.0842 5.64185 10.5751 5.64185C10.0661 5.64185 9.65338 6.05453 9.65338 6.5636C9.65338 7.07266 10.0661 7.48535 10.5751 7.48535Z" fill="#F8F8F8"/>
<path d="M10.5751 10.0522C11.0842 10.0522 11.4969 9.63956 11.4969 9.13049C11.4969 8.62142 11.0842 8.20874 10.5751 8.20874C10.0661 8.20874 9.65338 8.62142 9.65338 9.13049C9.65338 9.63956 10.0661 10.0522 10.5751 10.0522Z" fill="#F8F8F8"/>
<path d="M10.5751 10.7756C10.4541 10.7756 10.3342 10.7995 10.2224 10.8458C10.1106 10.8921 10.0089 10.96 9.92336 11.0456C9.83776 11.1312 9.76987 11.2328 9.72355 11.3446C9.67722 11.4565 9.65338 11.5763 9.65338 11.6974C9.65338 11.8184 9.67722 11.9383 9.72355 12.0501C9.76987 12.162 9.83776 12.2636 9.92336 12.3492C10.0089 12.4348 10.1106 12.5026 10.2224 12.549C10.3342 12.5953 10.4541 12.6191 10.5751 12.6191C10.8196 12.6191 11.054 12.522 11.2269 12.3492C11.3998 12.1763 11.4969 11.9418 11.4969 11.6974C11.4969 11.4529 11.3998 11.2185 11.2269 11.0456C11.054 10.8727 10.8196 10.7756 10.5751 10.7756ZM10.5751 12.2314C10.4336 12.2312 10.2979 12.1749 10.1978 12.0748C10.0977 11.9747 10.0413 11.8389 10.0411 11.6974C10.0411 11.403 10.2808 11.1634 10.5751 11.1634C10.7133 11.1686 10.8441 11.2271 10.94 11.3267C11.0359 11.4262 11.0895 11.5591 11.0895 11.6974C11.0895 11.8356 11.0359 11.9685 10.94 12.0681C10.8441 12.1677 10.7133 12.2262 10.5751 12.2314Z" fill="#F8F8F8"/>
</svg>
