<svg width="25" height="25" viewBox="0 0 25 25" fill="none" xmlns="http://www.w3.org/2000/svg">
<path d="M12.1487 1C14.1002 1 15.9717 1.77482 17.3516 3.15402C18.7315 4.53322 19.5068 6.40381 19.5068 8.35429C19.5068 16.5314 22.4912 18.1429 23.2973 18.1429H1C1.82329 18.1429 4.79054 16.5143 4.79054 8.35429C4.79054 6.40381 5.56577 4.53322 6.94569 3.15402C8.3256 1.77482 10.1972 1 12.1487 1V1Z" stroke="white" stroke-opacity="0.5" stroke-width="1.71429" stroke-linecap="round" stroke-linejoin="round"/>
<path d="M9.57617 21.28C9.72443 21.8492 10.0575 22.3532 10.523 22.7129C10.9886 23.0726 11.5605 23.2677 12.1489 23.2677C12.7374 23.2677 13.3092 23.0726 13.7748 22.7129C14.2404 22.3532 14.5734 21.8492 14.7217 21.28" stroke="white" stroke-opacity="0.5" stroke-width="1.71429" stroke-linecap="round" stroke-linejoin="round"/>
</svg>
