<svg width="70" height="70" viewBox="0 0 70 70" fill="none" xmlns="http://www.w3.org/2000/svg">
<path d="M35.0005 49.5844C43.055 49.5844 49.5844 43.055 49.5844 35.0005C49.5844 26.9461 43.055 20.4166 35.0005 20.4166C26.9461 20.4166 20.4166 26.9461 20.4166 35.0005C20.4166 43.055 26.9461 49.5844 35.0005 49.5844Z" fill="url(#paint0_linear_704_150)"/>
<path d="M23.3326 5.8322H13.1239V1.45703C13.1237 1.17836 13.0436 0.905601 12.8931 0.671034C12.7427 0.436467 12.5282 0.249915 12.275 0.133457C12.0218 0.0170004 11.7406 -0.0244855 11.4646 0.0139104C11.1886 0.0523063 10.9293 0.168976 10.7176 0.350111L0.508846 9.10045C0.349242 9.23736 0.221134 9.40717 0.133304 9.59823C0.0454739 9.78929 0 9.99709 0 10.2074C0 10.4177 0.0454739 10.6254 0.133304 10.8165C0.221134 11.0076 0.349242 11.1774 0.508846 11.3143L10.7176 20.0646C10.9293 20.2458 11.1886 20.3624 11.4646 20.4008C11.7406 20.4392 12.0218 20.3977 12.275 20.2813C12.5282 20.1648 12.7427 19.9783 12.8931 19.7437C13.0436 19.5091 13.1237 19.2364 13.1239 18.9577V14.5825H23.3326C23.7194 14.5825 24.0904 14.4289 24.3639 14.1554C24.6374 13.8819 24.791 13.5109 24.791 13.1241V7.29059C24.791 6.9038 24.6374 6.53285 24.3639 6.25935C24.0904 5.98585 23.7194 5.8322 23.3326 5.8322Z" fill="url(#paint1_linear_704_150)"/>
<path d="M69.4906 58.6852L59.2818 49.9348C59.0701 49.7537 58.8108 49.637 58.5348 49.5986C58.2588 49.5602 57.9776 49.6017 57.7244 49.7182C57.4712 49.8346 57.2567 50.0212 57.1063 50.2557C56.9558 50.4903 56.8758 50.7631 56.8755 51.0417V55.4169H46.6668C46.28 55.4169 45.909 55.5706 45.6355 55.8441C45.362 56.1176 45.2084 56.4885 45.2084 56.8753V62.7089C45.2084 63.0957 45.362 63.4666 45.6355 63.7401C45.909 64.0136 46.28 64.1673 46.6668 64.1673H56.8755V68.5424C56.8758 68.8211 56.9558 69.0939 57.1063 69.3284C57.2567 69.563 57.4712 69.7495 57.7244 69.866C57.9776 69.9825 58.2588 70.0239 58.5348 69.9855C58.8108 69.9471 59.0701 69.8305 59.2818 69.6493L69.4906 60.899C69.6502 60.7621 69.7783 60.5923 69.8661 60.4012C69.9539 60.2102 69.9994 60.0024 69.9994 59.7921C69.9994 59.5818 69.9539 59.374 69.8661 59.1829C69.7783 58.9919 69.6502 58.8221 69.4906 58.6852Z" fill="url(#paint2_linear_704_150)"/>
<g filter="url(#filter0_bi_704_150)">
<path d="M35 61.25C49.4975 61.25 61.25 49.4975 61.25 35C61.25 20.5025 49.4975 8.75 35 8.75C20.5025 8.75 8.75 20.5025 8.75 35C8.75 49.4975 20.5025 61.25 35 61.25Z" fill="#1D1D1D" fill-opacity="0.05"/>
<path d="M35 61.25C49.4975 61.25 61.25 49.4975 61.25 35C61.25 20.5025 49.4975 8.75 35 8.75C20.5025 8.75 8.75 20.5025 8.75 35C8.75 49.4975 20.5025 61.25 35 61.25Z" fill="url(#paint3_linear_704_150)" fill-opacity="0.2"/>
<path d="M60.65 35C60.65 49.1661 49.1661 60.65 35 60.65C20.8339 60.65 9.35 49.1661 9.35 35C9.35 20.8339 20.8339 9.35 35 9.35C49.1661 9.35 60.65 20.8339 60.65 35Z" stroke="url(#paint4_linear_704_150)" stroke-opacity="0.1" stroke-width="1.2"/>
</g>
<g filter="url(#filter1_i_704_150)">
<path d="M34.9979 55.1944C46.1498 55.1944 55.1902 46.154 55.1902 35.0021C55.1902 23.8502 46.1498 14.8098 34.9979 14.8098C23.8459 14.8098 14.8055 23.8502 14.8055 35.0021C14.8055 46.154 23.8459 55.1944 34.9979 55.1944Z" fill="white" fill-opacity="0.1"/>
</g>
<defs>
<filter id="filter0_bi_704_150" x="-15.25" y="-15.25" width="100.5" height="100.5" filterUnits="userSpaceOnUse" color-interpolation-filters="sRGB">
<feFlood flood-opacity="0" result="BackgroundImageFix"/>
<feGaussianBlur in="BackgroundImageFix" stdDeviation="12"/>
<feComposite in2="SourceAlpha" operator="in" result="effect1_backgroundBlur_704_150"/>
<feBlend mode="normal" in="SourceGraphic" in2="effect1_backgroundBlur_704_150" result="shape"/>
<feColorMatrix in="SourceAlpha" type="matrix" values="0 0 0 0 0 0 0 0 0 0 0 0 0 0 0 0 0 0 127 0" result="hardAlpha"/>
<feOffset dy="8"/>
<feGaussianBlur stdDeviation="6"/>
<feComposite in2="hardAlpha" operator="arithmetic" k2="-1" k3="1"/>
<feColorMatrix type="matrix" values="0 0 0 0 1 0 0 0 0 1 0 0 0 0 1 0 0 0 0.15 0"/>
<feBlend mode="normal" in2="shape" result="effect2_innerShadow_704_150"/>
</filter>
<filter id="filter1_i_704_150" x="14.8055" y="14.8098" width="40.3846" height="48.3846" filterUnits="userSpaceOnUse" color-interpolation-filters="sRGB">
<feFlood flood-opacity="0" result="BackgroundImageFix"/>
<feBlend mode="normal" in="SourceGraphic" in2="BackgroundImageFix" result="shape"/>
<feColorMatrix in="SourceAlpha" type="matrix" values="0 0 0 0 0 0 0 0 0 0 0 0 0 0 0 0 0 0 127 0" result="hardAlpha"/>
<feOffset dy="8"/>
<feGaussianBlur stdDeviation="4"/>
<feComposite in2="hardAlpha" operator="arithmetic" k2="-1" k3="1"/>
<feColorMatrix type="matrix" values="0 0 0 0 1 0 0 0 0 1 0 0 0 0 1 0 0 0 0.1 0"/>
<feBlend mode="normal" in2="shape" result="effect1_innerShadow_704_150"/>
</filter>
<linearGradient id="paint0_linear_704_150" x1="21.632" y1="26.2502" x2="53.4273" y2="30.6662" gradientUnits="userSpaceOnUse">
<stop stop-color="#2ABDFF"/>
<stop offset="1" stop-color="#181818"/>
</linearGradient>
<linearGradient id="paint1_linear_704_150" x1="1.03296" y1="4.08295" x2="27.8166" y2="8.60035" gradientUnits="userSpaceOnUse">
<stop stop-color="#2ABDFF"/>
<stop offset="1" stop-color="#181818"/>
</linearGradient>
<linearGradient id="paint2_linear_704_150" x1="46.2413" y1="53.6677" x2="73.025" y2="58.1851" gradientUnits="userSpaceOnUse">
<stop stop-color="#2ABDFF"/>
<stop offset="1" stop-color="#181818"/>
</linearGradient>
<linearGradient id="paint3_linear_704_150" x1="10.9375" y1="19.25" x2="68.1669" y2="27.1985" gradientUnits="userSpaceOnUse">
<stop stop-color="#2ABDFF"/>
<stop offset="1" stop-color="#181818"/>
</linearGradient>
<linearGradient id="paint4_linear_704_150" x1="10.3906" y1="11.1364" x2="61.25" y2="11.1364" gradientUnits="userSpaceOnUse">
<stop stop-color="#C8A6FF"/>
<stop offset="1" stop-color="#69CFB5"/>
</linearGradient>
</defs>
</svg>
