<svg width="28" height="32" viewBox="0 0 28 32" fill="none" xmlns="http://www.w3.org/2000/svg">
<path d="M3.74967 0.916748C2.13092 0.916748 0.833008 2.21466 0.833008 3.83341V27.1667C0.833008 27.9403 1.1403 28.6822 1.68728 29.2291C2.23426 29.7761 2.97613 30.0834 3.74967 30.0834H9.58301V27.298L12.6309 24.2501H3.74967V21.3334H15.5476L18.4643 18.4167H3.74967V15.5001H21.3809L24.1663 12.7147V9.66675L15.4163 0.916748H3.74967ZM13.958 3.10425L21.9788 11.1251H13.958V3.10425ZM24.3851 16.9584C24.2772 16.956 24.1699 16.9755 24.0696 17.0156C23.9694 17.0557 23.8783 17.1156 23.8018 17.1917L22.3143 18.6792L25.3622 21.7126L26.8497 20.2397C27.1559 19.9188 27.1559 19.3938 26.8497 19.0876L24.9538 17.1917C24.8793 17.117 24.7906 17.0578 24.693 17.0178C24.5953 16.9777 24.4906 16.9575 24.3851 16.9584ZM21.4538 19.5397L12.4997 28.5084V31.5417H15.533L24.5018 22.573L21.4538 19.5397Z" fill="#535353"/>
</svg>
