          <svg width="24" height="16" viewBox="0 0 24 16" fill="none" xmlns="http://www.w3.org/2000/svg">
              <path fill-rule="evenodd" clip-rule="evenodd"
                d="M18.2596 4.65411C17.5168 4.92921 16.933 5.55162 16.675 6.34349L16.1936 7.82082C16.1866 7.84334 16.1669 7.85851 16.1447 7.85851C16.1225 7.85851 16.1028 7.84334 16.0959 7.82082L15.6145 6.34349C15.3564 5.55157 14.7725 4.92915 14.0296 4.65411L12.644 4.14094C12.6233 4.13327 12.6094 4.1125 12.6094 4.08917C12.6094 4.06585 12.6233 4.04508 12.644 4.03741L14.0296 3.52424C14.7725 3.2492 15.3564 2.62677 15.6145 1.83486L16.0959 0.357515C16.1028 0.335026 16.1225 0.319824 16.1447 0.319824C16.1669 0.319824 16.1866 0.335026 16.1936 0.357515L16.675 1.83486C16.933 2.62674 17.5168 3.24915 18.2596 3.52424L19.6453 4.03741C19.6659 4.04508 19.6798 4.06585 19.6798 4.08917C19.6798 4.1125 19.6659 4.13327 19.6453 4.14094L18.2596 4.65411ZM12.1671 9.26357C11.1354 9.64571 10.3246 10.5102 9.96631 11.61L9.29742 13.6618C9.28759 13.6928 9.26039 13.7135 9.2298 13.7135C9.1992 13.7135 9.172 13.6928 9.16217 13.6618L8.49328 11.61C8.13496 10.5102 7.32416 9.64571 6.29255 9.26357L4.36776 8.55086C4.33906 8.54018 4.31982 8.51138 4.31982 8.47893C4.31982 8.44654 4.33906 8.41774 4.36776 8.40706L6.29255 7.69435C7.32416 7.31221 8.13497 6.44776 8.49328 5.34794L9.16217 3.29608C9.172 3.26519 9.1992 3.2444 9.2298 3.2444C9.26039 3.2444 9.28759 3.26519 9.29742 3.29608L9.96631 5.34794C10.3246 6.44776 11.1354 7.31221 12.1671 7.69435L14.0919 8.40706C14.1205 8.41774 14.1398 8.44654 14.1398 8.47893C14.1398 8.51138 14.1205 8.54018 14.0919 8.55086L12.1671 9.26357ZM16.0974 14.4665C16.3038 13.833 16.7708 13.3351 17.3649 13.115L18.474 12.7045C18.4905 12.6983 18.5016 12.6817 18.5016 12.663C18.5016 12.6444 18.4905 12.6277 18.474 12.6216L17.3649 12.2111C16.7708 11.9909 16.3038 11.493 16.0974 10.8595L15.7121 9.67771C15.707 9.65902 15.691 9.64622 15.6727 9.64622C15.6545 9.64622 15.6384 9.65902 15.6333 9.67771L15.249 10.8595C15.0424 11.4933 14.575 11.9912 13.9805 12.2111L12.8724 12.6216C12.8559 12.6277 12.8448 12.6444 12.8448 12.663C12.8448 12.6817 12.8559 12.6983 12.8724 12.7045L13.9805 13.115C14.575 13.3349 15.0424 13.8328 15.249 14.4665L15.6333 15.6484C15.6384 15.667 15.6545 15.6798 15.6727 15.6798C15.691 15.6798 15.707 15.667 15.7121 15.6484L16.0974 14.4665Z"
                fill="url(#paint0_linear_79_4174)" />
              <defs>
                <linearGradient id="paint0_linear_79_4174" x1="19.6798" y1="-7.36018" x2="6.0653" y2="10.4435"
                  gradientUnits="userSpaceOnUse">
                  <stop stop-color="#2775CA" />
                  <stop offset="1" stop-color="#2ABDFF" />
                </linearGradient>
              </defs>
            </svg>