<svg width="18" height="19" viewBox="0 0 18 19" fill="none" xmlns="http://www.w3.org/2000/svg">
<path d="M6.31055 8.57217H10.5421C10.6405 8.57217 10.7381 8.59264 10.8291 8.63243C10.9201 8.67221 11.0027 8.73053 11.0724 8.80404C11.142 8.87755 11.1973 8.96483 11.235 9.06088C11.2727 9.15693 11.2921 9.25987 11.2921 9.36383C11.2921 9.4678 11.2727 9.57074 11.235 9.66679C11.1973 9.76284 11.142 9.85011 11.0724 9.92363C11.0027 9.99714 10.9201 10.0555 10.8291 10.0952C10.7381 10.135 10.6405 10.1555 10.5421 10.1555H6.31055L7.15205 11.0437C7.29269 11.1923 7.37165 11.3937 7.37158 11.6037C7.37151 11.8137 7.29241 12.0151 7.15168 12.1636C7.01095 12.312 6.82012 12.3954 6.62116 12.3953C6.42221 12.3952 6.23144 12.3117 6.09081 12.1632L3.9698 9.92433C3.8998 9.85097 3.84425 9.76371 3.80633 9.66758C3.76842 9.57145 3.7489 9.46836 3.7489 9.36423C3.7489 9.2601 3.76842 9.15701 3.80633 9.06088C3.84425 8.96475 3.8998 8.87749 3.9698 8.80413L6.09005 6.56529C6.23069 6.41674 6.42146 6.33325 6.62041 6.33317C6.81937 6.3331 7.0102 6.41645 7.15093 6.5649C7.29166 6.71334 7.37076 6.91471 7.37083 7.12472C7.3709 7.33473 7.29194 7.53616 7.1513 7.68471L6.31055 8.57217ZM13.5001 2.375C13.699 2.375 13.8897 2.45841 14.0304 2.60687C14.171 2.75534 14.2501 2.9567 14.2501 3.16667V15.8333C14.2501 16.0433 14.171 16.2447 14.0304 16.3931C13.8897 16.5416 13.699 16.625 13.5001 16.625C13.3011 16.625 13.1104 16.5416 12.9697 16.3931C12.8291 16.2447 12.7501 16.0433 12.7501 15.8333V3.16667C12.7501 2.9567 12.8291 2.75534 12.9697 2.60687C13.1104 2.45841 13.3011 2.375 13.5001 2.375V2.375Z" fill="white"/>
</svg>
