<svg width="15" height="15" viewBox="0 0 15 15" fill="none" xmlns="http://www.w3.org/2000/svg">
<g clip-path="url(#clip0_5046_13326)">
<path d="M7.66289 2.96748C7.61927 2.92575 7.56124 2.90247 7.50088 2.90247C7.44052 2.90247 7.38248 2.92575 7.33887 2.96748L1.94531 8.11992C1.92241 8.14183 1.90418 8.16816 1.89175 8.19731C1.87931 8.22647 1.87291 8.25785 1.87295 8.28955L1.87207 13.1253C1.87207 13.3739 1.97084 13.6124 2.14666 13.7882C2.32247 13.964 2.56093 14.0628 2.80957 14.0628H5.625C5.74932 14.0628 5.86855 14.0134 5.95645 13.9255C6.04436 13.8376 6.09375 13.7184 6.09375 13.594V9.60966C6.09375 9.5475 6.11844 9.48789 6.1624 9.44393C6.20635 9.39998 6.26596 9.37529 6.32812 9.37529H8.67187C8.73403 9.37529 8.79365 9.39998 8.8376 9.44393C8.88155 9.48789 8.90625 9.5475 8.90625 9.60966V13.594C8.90625 13.7184 8.95563 13.8376 9.04354 13.9255C9.13145 14.0134 9.25068 14.0628 9.375 14.0628H12.1893C12.4379 14.0628 12.6764 13.964 12.8522 13.7882C13.028 13.6124 13.1268 13.3739 13.1268 13.1253V8.28955C13.1268 8.25785 13.1204 8.22647 13.108 8.19731C13.0955 8.16816 13.0773 8.14183 13.0544 8.11992L7.66289 2.96748Z" fill="#7EF6B2"/>
<path d="M14.3825 7.15369L12.1911 5.0572V1.87585C12.1911 1.75153 12.1417 1.63231 12.0538 1.5444C11.9659 1.45649 11.8467 1.4071 11.7223 1.4071H10.3161C10.1918 1.4071 10.0725 1.45649 9.98464 1.5444C9.89673 1.63231 9.84735 1.75153 9.84735 1.87585V2.81335L8.15047 1.19089C7.99168 1.03035 7.75555 0.938354 7.50037 0.938354C7.24608 0.938354 7.01053 1.03035 6.85174 1.19119L0.620299 7.1531C0.438073 7.32888 0.415221 7.61804 0.581041 7.80847C0.622681 7.85654 0.673667 7.89563 0.730894 7.92337C0.788122 7.9511 0.850395 7.96691 0.913924 7.96981C0.977453 7.97272 1.04091 7.96266 1.10043 7.94026C1.15995 7.91787 1.21429 7.88359 1.26014 7.83953L7.33924 2.03054C7.38286 1.98882 7.44089 1.96553 7.50125 1.96553C7.56161 1.96553 7.61965 1.98882 7.66327 2.03054L13.7429 7.83953C13.8325 7.92541 13.9525 7.97228 14.0765 7.96986C14.2006 7.96745 14.3186 7.91594 14.4048 7.82663C14.5846 7.64031 14.5697 7.33269 14.3825 7.15369Z" fill="#7EF6B2"/>
</g>
<defs>
<clipPath id="clip0_5046_13326">
<rect width="15" height="15" fill="white"/>
</clipPath>
</defs>
</svg>
