<svg width="19" height="20" viewBox="0 0 19 20" fill="none" xmlns="http://www.w3.org/2000/svg">
<path d="M9.50002 3.84228C12.7255 3.84228 15.3498 6.60478 15.3498 9.99999C15.3498 13.3952 12.7255 16.1577 9.50002 16.1577C6.27458 16.1577 3.6502 13.3952 3.6502 9.99999C3.6502 6.60478 6.27458 3.84228 9.50002 3.84228ZM9.50002 2.30286C5.46145 2.30286 2.18774 5.74886 2.18774 9.99999C2.18774 14.2511 5.46145 17.6971 9.50002 17.6971C13.5386 17.6971 16.8123 14.2511 16.8123 9.99999C16.8123 5.74886 13.5386 2.30286 9.50002 2.30286ZM12.4249 8.46056C12.4249 7.644 12.1168 6.86088 11.5682 6.28348C11.0197 5.70609 10.2758 5.38171 9.50002 5.38171C8.72429 5.38171 7.98032 5.70609 7.4318 6.28348C6.88327 6.86088 6.57511 7.644 6.57511 8.46056H8.03757C8.03757 7.61157 8.69348 6.92114 9.50002 6.92114C10.3066 6.92114 10.9625 7.61157 10.9625 8.46056C10.9625 9.30956 10.3066 9.99999 9.50002 9.99999C9.30609 9.99999 9.1201 10.0811 8.98296 10.2254C8.84583 10.3698 8.76879 10.5656 8.76879 10.7697V12.3091H10.2312V11.4309C10.858 11.2618 11.4135 10.8783 11.8106 10.3406C12.2077 9.80291 12.4238 9.14159 12.4249 8.46056ZM10.2312 13.0788H8.76879V14.6183H10.2312V13.0788Z" fill="white"/>
</svg>
