<svg width="15" height="15" viewBox="0 0 15 15" fill="none" xmlns="http://www.w3.org/2000/svg">
<path d="M0.9375 11.0152C0.9375 11.4503 1.11035 11.8676 1.41803 12.1753C1.7257 12.483 2.143 12.6558 2.57812 12.6558H12.4219C12.857 12.6558 13.2743 12.483 13.582 12.1753C13.8896 11.8676 14.0625 11.4503 14.0625 11.0152V6.50348H0.9375V11.0152ZM2.87109 8.78864C2.87109 8.55553 2.96369 8.33198 3.12852 8.16715C3.29335 8.00233 3.5169 7.90973 3.75 7.90973H5.15625C5.38935 7.90973 5.6129 8.00233 5.77773 8.16715C5.94256 8.33198 6.03515 8.55553 6.03515 8.78864V9.37457C6.03515 9.60767 5.94256 9.83123 5.77773 9.99605C5.6129 10.1609 5.38935 10.2535 5.15625 10.2535H3.75C3.5169 10.2535 3.29335 10.1609 3.12852 9.99605C2.96369 9.83123 2.87109 9.60767 2.87109 9.37457V8.78864Z" fill="white"/>
<path d="M12.4219 2.34296H2.57812C2.143 2.34296 1.7257 2.51581 1.41803 2.82348C1.11035 3.13116 0.9375 3.54846 0.9375 3.98358V4.7453H14.0625V3.98358C14.0625 3.54846 13.8896 3.13116 13.582 2.82348C13.2743 2.51581 12.857 2.34296 12.4219 2.34296Z" fill="white"/>
</svg>
