<svg width="15" height="15" viewBox="0 0 15 15" fill="none" xmlns="http://www.w3.org/2000/svg">
<path d="M3.04687 14.5316H2.10937C1.92289 14.5316 1.74405 14.4575 1.61219 14.3257C1.48033 14.1938 1.40625 14.015 1.40625 13.8285V9.60974C1.40625 9.42326 1.48033 9.24442 1.61219 9.11256C1.74405 8.9807 1.92289 8.90662 2.10937 8.90662H3.04687C3.23335 8.90662 3.4122 8.9807 3.54406 9.11256C3.67592 9.24442 3.75 9.42326 3.75 9.60974V13.8285C3.75 14.015 3.67592 14.1938 3.54406 14.3257C3.4122 14.4575 3.23335 14.5316 3.04687 14.5316Z" fill="white"/>
<path d="M9.60937 14.5308H8.67187C8.48539 14.5308 8.30655 14.4567 8.17469 14.3249C8.04283 14.193 7.96875 14.0142 7.96875 13.8277V6.79645C7.96875 6.60997 8.04283 6.43112 8.17469 6.29926C8.30655 6.1674 8.48539 6.09332 8.67187 6.09332H9.60937C9.79585 6.09332 9.9747 6.1674 10.1066 6.29926C10.2384 6.43112 10.3125 6.60997 10.3125 6.79645V13.8277C10.3125 14.0142 10.2384 14.193 10.1066 14.3249C9.9747 14.4567 9.79585 14.5308 9.60937 14.5308Z" fill="white"/>
<path d="M12.8906 14.5311H11.9531C11.7666 14.5311 11.5878 14.457 11.4559 14.3252C11.3241 14.1933 11.25 14.0145 11.25 13.828V3.5155C11.25 3.32902 11.3241 3.15018 11.4559 3.01832C11.5878 2.88646 11.7666 2.81238 11.9531 2.81238H12.8906C13.0771 2.81238 13.2559 2.88646 13.3878 3.01832C13.5197 3.15018 13.5937 3.32902 13.5937 3.5155V13.828C13.5937 14.0145 13.5197 14.1933 13.3878 14.3252C13.2559 14.457 13.0771 14.5311 12.8906 14.5311Z" fill="white"/>
<path d="M6.32812 14.531H5.39062C5.20414 14.531 5.0253 14.4569 4.89344 14.3251C4.76158 14.1932 4.6875 14.0144 4.6875 13.8279V1.17163C4.6875 0.98515 4.76158 0.806308 4.89344 0.674446C5.0253 0.542585 5.20414 0.468506 5.39062 0.468506H6.32812C6.5146 0.468506 6.69345 0.542585 6.82531 0.674446C6.95717 0.806308 7.03125 0.98515 7.03125 1.17163V13.8279C7.03125 14.0144 6.95717 14.1932 6.82531 14.3251C6.69345 14.4569 6.5146 14.531 6.32812 14.531Z" fill="white"/>
</svg>
