<svg width="41" height="43" viewBox="0 0 41 43" fill="none" xmlns="http://www.w3.org/2000/svg">
<g clip-path="url(#clip0_0_1)">
<path d="M40 0H0V40H40V0Z" fill="#F93301"/>
<path d="M2.57444 57.1002L39.8984 42.7122L25.5104 5.38816L-11.8136 19.7762L2.57444 57.1002Z" fill="#F5B800"/>
<path d="M-11.445 -9.76186L-17.873 29.7181L21.607 36.1461L28.035 -3.33386L-11.445 -9.76186Z" fill="#03555E"/>
<path d="M14.3582 -23.5176L-25.2578 -29.0536L-30.7938 10.5624L8.82219 16.0984L14.3582 -23.5176Z" fill="#236FE1"/>
</g>
<circle cx="33" cy="35" r="7" fill="#F7F9FB" stroke="#141414"/>
<path d="M37.2047 30.625L33.5586 33.3594L34.2366 31.7479L37.2047 30.625Z" fill="#E17726" stroke="#E17726" stroke-width="0.25" stroke-linecap="round" stroke-linejoin="round"/>
<path d="M28.7949 30.625L32.4085 33.3849L31.763 31.7479L28.7949 30.625Z" fill="#E27625" stroke="#E27625" stroke-width="0.25" stroke-linecap="round" stroke-linejoin="round"/>
<path d="M35.892 36.9651L34.9219 38.4672L36.9992 39.0469L37.5942 36.9979L35.892 36.9651Z" fill="#E27625" stroke="#E27625" stroke-width="0.25" stroke-linecap="round" stroke-linejoin="round"/>
<path d="M28.4092 36.9979L29.0006 39.0469L31.0743 38.4672L30.1078 36.9651L28.4092 36.9979Z" fill="#E27625" stroke="#E27625" stroke-width="0.25" stroke-linecap="round" stroke-linejoin="round"/>
<path d="M30.9618 34.4276L30.3848 35.3099L32.4404 35.4047L32.3719 33.1625L30.9618 34.4276Z" fill="#E27625" stroke="#E27625" stroke-width="0.25" stroke-linecap="round" stroke-linejoin="round"/>
<path d="M35.0372 34.4276L33.6055 33.137L33.5586 35.4047L35.6142 35.3099L35.0372 34.4276Z" fill="#E27625" stroke="#E27625" stroke-width="0.25" stroke-linecap="round" stroke-linejoin="round"/>
<path d="M31.0742 38.4671L32.3184 37.8583L31.2473 37.0125L31.0742 38.4671Z" fill="#E27625" stroke="#E27625" stroke-width="0.25" stroke-linecap="round" stroke-linejoin="round"/>
<path opacity="0.8" d="M33.6816 37.8583L34.9222 38.4671L34.7527 37.0125L33.6816 37.8583Z" fill="#E27625" stroke="#E27625" stroke-width="0.25" stroke-linecap="round" stroke-linejoin="round"/>
<path d="M34.9222 38.4672L33.6816 37.8584L33.7826 38.6751L33.7718 39.0214L34.9222 38.4672Z" fill="#D5BFB2" stroke="#D5BFB2" stroke-width="0.25" stroke-linecap="round" stroke-linejoin="round"/>
<path d="M31.0742 38.4672L32.2283 39.0214L32.2211 38.6751L32.3184 37.8584L31.0742 38.4672Z" fill="#D5BFB2" stroke="#D5BFB2" stroke-width="0.25" stroke-linecap="round" stroke-linejoin="round"/>
<path d="M32.2492 36.4729L31.2178 36.1666L31.9463 35.8276L32.2492 36.4729Z" fill="#233447" stroke="#233447" stroke-width="0.25" stroke-linecap="round" stroke-linejoin="round"/>
<path d="M33.75 36.4729L34.0529 35.8276L34.785 36.1666L33.75 36.4729Z" fill="#233447" stroke="#233447" stroke-width="0.25" stroke-linecap="round" stroke-linejoin="round"/>
<path d="M31.0739 38.4672L31.2543 36.9651L30.1074 36.9979L31.0739 38.4672Z" fill="#CC6228" stroke="#CC6228" stroke-width="0.25" stroke-linecap="round" stroke-linejoin="round"/>
<path d="M34.7451 36.9651L34.9218 38.4672L35.892 36.9979L34.7451 36.9651Z" fill="#CC6228" stroke="#CC6228" stroke-width="0.25" stroke-linecap="round" stroke-linejoin="round"/>
<path d="M35.6142 35.3099L33.5586 35.4047L33.7497 36.4729L34.0527 35.8276L34.7848 36.1667L35.6142 35.3099Z" fill="#CC6228" stroke="#CC6228" stroke-width="0.25" stroke-linecap="round" stroke-linejoin="round"/>
<path d="M31.2178 36.1667L31.9463 35.8276L32.2493 36.4729L32.4404 35.4047L30.3848 35.3099L31.2178 36.1667Z" fill="#CC6228" stroke="#CC6228" stroke-width="0.25" stroke-linecap="round" stroke-linejoin="round"/>
<path d="M30.3848 35.3099L31.2467 37.0125L31.2178 36.1667L30.3848 35.3099Z" fill="#E27525" stroke="#E27525" stroke-width="0.25" stroke-linecap="round" stroke-linejoin="round"/>
<path d="M34.7844 36.1667L34.752 37.0125L35.6139 35.3099L34.7844 36.1667Z" fill="#E27525" stroke="#E27525" stroke-width="0.25" stroke-linecap="round" stroke-linejoin="round"/>
<path d="M32.4412 35.4047L32.25 36.4729L32.4916 37.7344L32.5457 36.0719L32.4412 35.4047Z" fill="#E27525" stroke="#E27525" stroke-width="0.25" stroke-linecap="round" stroke-linejoin="round"/>
<path d="M33.559 35.4047L33.458 36.0682L33.5085 37.7344L33.7501 36.4729L33.559 35.4047Z" fill="#E27525" stroke="#E27525" stroke-width="0.25" stroke-linecap="round" stroke-linejoin="round"/>
<path d="M33.7494 36.473L33.5078 37.7344L33.6809 37.8584L34.752 37.0125L34.7845 36.1667L33.7494 36.473Z" fill="#F5841F" stroke="#F5841F" stroke-width="0.25" stroke-linecap="round" stroke-linejoin="round"/>
<path d="M31.2178 36.1667L31.2466 37.0125L32.3177 37.8584L32.4908 37.7344L32.2492 36.473L31.2178 36.1667Z" fill="#F5841F" stroke="#F5841F" stroke-width="0.25" stroke-linecap="round" stroke-linejoin="round"/>
<path d="M33.7718 39.0214L33.7826 38.675L33.6889 38.5948H32.3112L32.2211 38.675L32.2283 39.0214L31.0742 38.4672L31.4781 38.8026L32.2968 39.375H33.6997L34.5219 38.8026L34.9222 38.4672L33.7718 39.0214Z" fill="#C0AC9D" stroke="#C0AC9D" stroke-width="0.25" stroke-linecap="round" stroke-linejoin="round"/>
<path d="M33.6813 37.8583L33.5082 37.7344H32.4912L32.3181 37.8583L32.2207 38.675L32.3109 38.5948H33.6885L33.7823 38.675L33.6813 37.8583Z" fill="#161616" stroke="#161616" stroke-width="0.25" stroke-linecap="round" stroke-linejoin="round"/>
<path d="M37.3601 33.538L37.6667 32.0286L37.2051 30.625L33.6816 33.2682L35.0376 34.4276L36.9526 34.9927L37.3746 34.4932L37.1907 34.3583L37.4828 34.0886L37.2592 33.9135L37.5513 33.6875L37.3601 33.538Z" fill="#763E1A" stroke="#763E1A" stroke-width="0.25" stroke-linecap="round" stroke-linejoin="round"/>
<path d="M28.333 32.0286L28.6432 33.538L28.4448 33.6875L28.7405 33.9135L28.5169 34.0886L28.8091 34.3583L28.6251 34.4932L29.0471 34.9927L30.9621 34.4276L32.3181 33.2682L28.7946 30.625L28.333 32.0286Z" fill="#763E1A" stroke="#763E1A" stroke-width="0.25" stroke-linecap="round" stroke-linejoin="round"/>
<path d="M36.9518 34.9927L35.0369 34.4276L35.6139 35.3099L34.752 37.0125L35.8916 36.9979H37.5938L36.9518 34.9927Z" fill="#F5841F" stroke="#F5841F" stroke-width="0.25" stroke-linecap="round" stroke-linejoin="round"/>
<path d="M30.9625 34.4276L29.0475 34.9927L28.4092 36.9979H30.1078L31.2474 37.0125L30.3855 35.3099L30.9625 34.4276Z" fill="#F5841F" stroke="#F5841F" stroke-width="0.25" stroke-linecap="round" stroke-linejoin="round"/>
<path d="M33.5587 35.4047L33.6813 33.2682L34.2367 31.7479H31.7627L32.3181 33.2682L32.4407 35.4047L32.4876 36.0755L32.4912 37.7344H33.5082L33.5118 36.0755L33.5587 35.4047Z" fill="#F5841F" stroke="#F5841F" stroke-width="0.25" stroke-linecap="round" stroke-linejoin="round"/>
<defs>
<clipPath id="clip0_0_1">
<rect width="40" height="40" rx="20" fill="white"/>
</clipPath>
</defs>
</svg>
