<svg width="14" height="14" viewBox="0 0 14 14" fill="none" xmlns="http://www.w3.org/2000/svg">
<g clip-path="url(#clip0_1807_18018)">
<g clip-path="url(#clip1_1807_18018)">
<g clip-path="url(#clip2_1807_18018)">
<path d="M6.58 0.000427246C6.42536 0.000427246 6.3 0.125787 6.3 0.280427V6.30043H0.28C0.12536 6.30043 0 6.42579 0 6.58043V7.42043C0 7.57506 0.12536 7.70043 0.28 7.70043H6.3V13.7204C6.3 13.8751 6.42536 14.0004 6.58 14.0004H7.42C7.57463 14.0004 7.7 13.8751 7.7 13.7204V7.70043H13.72C13.8746 7.70043 14 7.57506 14 7.42043V6.58043C14 6.42579 13.8746 6.30043 13.72 6.30043H7.7V0.280427C7.7 0.125787 7.57463 0.000427246 7.42 0.000427246H6.58Z" fill="#EBEBEC"/>
</g>
</g>
</g>
<defs>
<clipPath id="clip0_1807_18018">
<rect width="14" height="14" fill="white" transform="translate(0 0.000427246)"/>
</clipPath>
<clipPath id="clip1_1807_18018">
<rect width="14" height="14" fill="white" transform="translate(0 0.000427246)"/>
</clipPath>
<clipPath id="clip2_1807_18018">
<rect width="14" height="14" fill="white" transform="translate(0 0.000427246)"/>
</clipPath>
</defs>
</svg>
