<svg
              width="10"
              height="16"
              viewBox="0 0 10 16"
              fill="none"
              xmlns="http://www.w3.org/2000/svg"
            >
              <path
                fill-rule="evenodd"
                clip-rule="evenodd"
                d="M8.87855 4.65411C8.43073 4.92921 8.07876 5.55162 7.92322 6.34349L7.63295 7.82082C7.62878 7.84334 7.61689 7.85851 7.60351 7.85851C7.59012 7.85851 7.57823 7.84334 7.57407 7.82082L7.28383 6.34349C7.12825 5.55157 6.7762 4.92915 6.32834 4.65411L5.49294 4.14094C5.48048 4.13327 5.4721 4.1125 5.4721 4.08917C5.4721 4.06585 5.48048 4.04508 5.49294 4.03741L6.32834 3.52424C6.7762 3.2492 7.12825 2.62677 7.28383 1.83486L7.57407 0.357515C7.57823 0.335026 7.59012 0.319824 7.60351 0.319824C7.61689 0.319824 7.62878 0.335026 7.63295 0.357515L7.92322 1.83486C8.07876 2.62674 8.43073 3.24915 8.87855 3.52424L9.71399 4.03741C9.72642 4.04508 9.73479 4.06585 9.73479 4.08917C9.73479 4.1125 9.72642 4.13327 9.71399 4.14094L8.87855 4.65411ZM5.2054 9.26357C4.58345 9.64571 4.09462 10.5102 3.87859 11.61L3.47532 13.6618C3.4694 13.6928 3.453 13.7135 3.43455 13.7135C3.4161 13.7135 3.3997 13.6928 3.39378 13.6618L2.99051 11.61C2.77448 10.5102 2.28565 9.64571 1.66371 9.26357L0.503264 8.55086C0.485961 8.54018 0.474365 8.51138 0.474365 8.47893C0.474365 8.44654 0.485961 8.41774 0.503264 8.40706L1.66371 7.69435C2.28566 7.31221 2.77449 6.44776 2.99051 5.34794L3.39378 3.29608C3.3997 3.26519 3.4161 3.2444 3.43455 3.2444C3.453 3.2444 3.4694 3.26519 3.47532 3.29608L3.87859 5.34794C4.09462 6.44776 4.58345 7.31221 5.2054 7.69435L6.36585 8.40706C6.38314 8.41774 6.39475 8.44654 6.39475 8.47893C6.39475 8.51138 6.38314 8.54018 6.36585 8.55086L5.2054 9.26357ZM7.57499 14.4665C7.69943 13.833 7.98094 13.3351 8.33917 13.115L9.00781 12.7045C9.01777 12.6983 9.02448 12.6817 9.02448 12.663C9.02448 12.6444 9.01777 12.6277 9.00781 12.6216L8.33917 12.2111C7.98094 11.9909 7.69943 11.493 7.57499 10.8595L7.34271 9.67771C7.33962 9.65902 7.32994 9.64622 7.31894 9.64622C7.30794 9.64622 7.29826 9.65902 7.29517 9.67771L7.06347 10.8595C6.93892 11.4933 6.65713 11.9912 6.29871 12.2111L5.63065 12.6216C5.62069 12.6277 5.61398 12.6444 5.61398 12.663C5.61398 12.6817 5.62069 12.6983 5.63065 12.7045L6.29871 13.115C6.65713 13.3349 6.93892 13.8328 7.06347 14.4665L7.29517 15.6484C7.29826 15.667 7.30794 15.6798 7.31894 15.6798C7.32994 15.6798 7.33962 15.667 7.34271 15.6484L7.57499 14.4665Z"
                fill="url(#paint0_linear_156_79)"
              />
              <defs>
                <linearGradient
                  id="paint0_linear_156_79"
                  x1="9.73479"
                  y1="-7.36018"
                  x2="-3.98304"
                  y2="3.45496"
                  gradientUnits="userSpaceOnUse"
                >
                  <stop stop-color="#F21BF6" />
                  <stop offset="1" stop-color="#FED533" />
                </linearGradient>
              </defs>
            </svg>