<svg width="15" height="15" viewBox="0 0 15 15" fill="none" xmlns="http://www.w3.org/2000/svg">
    <g clip-path="url(#clip0_903_264)">
        <path
            d="M3.12679 7.07988C3.12681 6.99659 3.1434 6.91411 3.17565 6.83721C3.20789 6.76029 3.25512 6.69046 3.31465 6.6317C3.37418 6.57294 3.44483 6.52643 3.52253 6.49483C3.60024 6.46323 3.68347 6.44716 3.76745 6.44754L4.8296 6.45098C4.99895 6.45098 5.16138 6.51771 5.28113 6.63648C5.40088 6.75525 5.46816 6.91634 5.46816 7.0843V11.0679C5.58778 11.0328 5.74088 10.9952 5.90935 10.9559C6.02607 10.9287 6.13009 10.8631 6.20454 10.7699C6.279 10.6767 6.31954 10.5613 6.31956 10.4423V5.50131C6.31956 5.33334 6.38683 5.17223 6.50658 5.05345C6.62633 4.93466 6.78875 4.86791 6.95812 4.86787H8.02349C8.19285 4.86791 8.35527 4.93466 8.47501 5.05345C8.59476 5.17223 8.66204 5.33334 8.66204 5.50131V10.0874C8.66204 10.0874 8.92857 9.98041 9.18803 9.87172C9.28444 9.83128 9.36672 9.76357 9.42459 9.67705C9.48245 9.59053 9.51336 9.48904 9.51344 9.38521V3.91795C9.51344 3.75001 9.5807 3.58895 9.70042 3.47018C9.82015 3.35141 9.98254 3.28467 10.1519 3.28463H11.2161C11.3854 3.2848 11.5476 3.35159 11.6672 3.47035C11.7869 3.58911 11.8541 3.7501 11.8541 3.91795V8.42004C12.7768 7.75684 13.7119 6.95914 14.4539 6C14.5615 5.86078 14.6328 5.6973 14.6613 5.52412C14.6897 5.35094 14.6746 5.17348 14.6171 5.00754C14.2736 4.0274 13.7275 3.12916 13.0139 2.37032C12.3003 1.61148 11.4348 1.00874 10.4729 0.600668C9.51094 0.192601 8.47369 -0.0118066 7.42752 0.000526656C6.38135 0.0128599 5.34929 0.241662 4.39739 0.672291C3.44549 1.10292 2.59471 1.7259 1.8995 2.50135C1.20429 3.2768 0.679944 4.18766 0.360029 5.17563C0.040113 6.16359 -0.0683304 7.20692 0.0416368 8.23885C0.151604 9.27076 0.47756 10.2686 0.998648 11.1684C1.08943 11.3236 1.223 11.4499 1.38366 11.5324C1.54431 11.615 1.72537 11.6503 1.90559 11.6343C2.10692 11.6168 2.35758 11.5919 2.65559 11.5573C2.78529 11.5426 2.90504 11.4812 2.99202 11.3846C3.079 11.2881 3.12715 11.1632 3.12729 11.0337L3.12679 7.07988Z"
            fill="black" />
        <path
            d="M3.104 13.4685C4.22581 14.2779 5.55151 14.7638 6.93443 14.8722C8.31735 14.9808 9.70359 14.7077 10.9398 14.0833C12.176 13.459 13.2139 12.5076 13.9387 11.3345C14.6635 10.1614 15.0471 8.81226 15.0468 7.4364C15.0468 7.26426 15.0388 7.09484 15.0273 6.9259C12.2798 10.99 7.20681 12.89 3.104 13.4685Z"
            fill="#F0B90B" />
    </g>
    <defs>
        <clipPath id="clip0_903_264">
            <rect width="15" height="15" fill="white" />
        </clipPath>
    </defs>
</svg>
    