<svg width="6" height="14" viewBox="0 0 6 14" fill="none" xmlns="http://www.w3.org/2000/svg">
  <g clip-path="url(#clip0_1660_15135)">
  <path d="M4.602 0.00333585C4.77536 -0.0108791 4.94955 0.0146374 5.11295 0.0781802C5.27635 0.141723 5.42518 0.241829 5.54951 0.371808C5.67384 0.501788 5.77079 0.658648 5.8339 0.831907C5.89701 1.00517 5.92481 1.19083 5.91545 1.3765V1.373C5.89498 1.84585 5.70498 2.2921 5.38493 2.61906C5.06487 2.94603 4.63935 3.12859 4.19673 3.12884L4.16127 3.12825H4.16291C3.98723 3.14861 3.80953 3.12627 3.64305 3.06289C3.47658 2.99952 3.32564 2.89675 3.20151 2.76226C3.07738 2.62776 2.98325 2.46502 2.92617 2.28618C2.86908 2.10734 2.8505 1.91701 2.87182 1.72942L2.87127 1.73525C2.88778 1.26027 3.07921 0.811522 3.40383 0.486868C3.72845 0.162214 4.15993 -0.0120161 4.60418 0.00216919H4.60145L4.602 0.00333585ZM1.90364 13.9998C1.212 13.9998 0.704182 13.5431 1.18855 11.5347L1.98273 7.97167C2.12127 7.40117 2.14364 7.17309 1.98273 7.17309C1.39188 7.332 0.831604 7.60029 0.327273 7.96584L0.345273 7.95359L0 7.337C1.68327 5.8075 3.62073 4.91092 4.44982 4.91092C5.14145 4.91092 5.25709 5.80109 4.91073 7.17075L4.002 10.9163C3.84055 11.5784 3.91036 11.8065 4.07073 11.8065C4.6491 11.6663 5.18576 11.3744 5.63236 10.9572L5.628 10.9613L6.02073 11.5323C4.38218 13.3127 2.59473 14.001 1.90309 14.001L1.90364 13.9998Z" fill="#F8F8F8"/>
  </g>
  <defs>
  <clipPath id="clip0_1660_15135">
  <rect width="6" height="14" fill="white"/>
  </clipPath>
  </defs>
  </svg>
  