<svg width="74" height="74" viewBox="0 0 74 74" fill="none" xmlns="http://www.w3.org/2000/svg">
<path d="M36.9987 0.333008C16.7587 0.333008 0.332031 16.7597 0.332031 36.9997C0.332031 57.2397 16.7587 73.6663 36.9987 73.6663C57.2387 73.6663 73.6654 57.2397 73.6654 36.9997C73.6654 16.7597 57.2387 0.333008 36.9987 0.333008ZM27.062 52.7297L13.8987 39.5663C13.5592 39.2269 13.29 38.8239 13.1062 38.3803C12.9225 37.9368 12.828 37.4614 12.828 36.9813C12.828 36.5013 12.9225 36.0259 13.1062 35.5824C13.29 35.1388 13.5592 34.7358 13.8987 34.3963C14.2382 34.0569 14.6412 33.7876 15.0847 33.6039C15.5282 33.4202 16.0036 33.3256 16.4837 33.3256C16.9638 33.3256 17.4392 33.4202 17.8827 33.6039C18.3262 33.7876 18.7292 34.0569 19.0687 34.3963L29.6654 44.9563L54.892 19.7297C55.5776 19.0441 56.5075 18.6589 57.477 18.6589C58.4466 18.6589 59.3764 19.0441 60.062 19.7297C60.7476 20.4153 61.1328 21.3451 61.1328 22.3147C61.1328 23.2842 60.7476 24.2141 60.062 24.8997L32.232 52.7297C31.8928 53.0696 31.4899 53.3393 31.0463 53.5233C30.6028 53.7073 30.1272 53.802 29.647 53.802C29.1668 53.802 28.6913 53.7073 28.2477 53.5233C27.8042 53.3393 27.4012 53.0696 27.062 52.7297Z" fill="#00C9FF"/>
</svg>
