<svg width="104" height="104" viewBox="0 0 104 104" fill="none" xmlns="http://www.w3.org/2000/svg">
  <path
    d="M12.051 44.551C11.4417 43.9415 11.0994 43.115 11.0994 42.2532C11.0994 41.3914 11.4417 40.5649 12.051 39.9555L42.25 9.74997L42.705 9.36647C43.3312 8.93644 44.0882 8.73933 44.8446 8.80939C45.601 8.87945 46.309 9.21224 46.8455 9.74997L47.2225 10.205C47.6538 10.8314 47.8523 11.5891 47.7834 12.3466C47.7146 13.1041 47.3827 13.8136 46.8455 14.352L22.1975 39H94.25C95.112 39 95.9386 39.3424 96.5481 39.9519C97.1576 40.5614 97.5 41.388 97.5 42.25C97.5 43.1119 97.1576 43.9386 96.5481 44.5481C95.9386 45.1576 95.112 45.5 94.25 45.5H14.3455C13.4852 45.4998 12.6601 45.1585 12.051 44.551ZM6.5 61.75C6.5 60.888 6.84241 60.0614 7.4519 59.4519C8.0614 58.8424 8.88805 58.5 9.75 58.5H89.6545C90.2968 58.5001 90.9247 58.6906 91.4588 59.0473C91.9929 59.404 92.4094 59.911 92.6556 60.5042C92.9018 61.0975 92.9667 61.7504 92.8421 62.3805C92.7175 63.0105 92.409 63.5896 91.9555 64.0445L61.75 94.25L61.295 94.6335C60.6261 95.0847 59.8136 95.2716 59.0148 95.1579C58.216 95.0442 57.4879 94.6379 56.9715 94.018C56.4551 93.398 56.1873 92.6084 56.2199 91.8023C56.2525 90.9961 56.5833 90.2307 57.148 89.6545L81.822 65H9.75C8.88805 65 8.0614 64.6576 7.4519 64.0481C6.84241 63.4386 6.5 62.6119 6.5 61.75Z"
    fill="#F8F8F8"/>
</svg>