<svg
    width="17"
    height="17"
    viewBox="0 0 17 17"
    fill="none"
    xmlns="http://www.w3.org/2000/svg"
>
    <path
        d="M7.49996 13.8334L5.12496 14.6251V7.89591L1.57829 3.99458C1.31344 3.70319 1.16667 3.32356 1.16663 2.92979V1.16675H13.8333V2.88625C13.8332 3.30614 13.6663 3.7088 13.3694 4.00566L9.87496 7.50008V8.68758M13.0424 14.6251C12.6225 14.6251 12.2198 14.4583 11.9228 14.1613C11.6259 13.8644 11.4591 13.4617 11.4591 13.0417C11.4591 12.6218 11.6259 12.2191 11.9228 11.9222C12.2198 11.6252 12.6225 11.4584 13.0424 11.4584M13.0424 14.6251C13.4623 14.6251 13.8651 14.4583 14.162 14.1613C14.4589 13.8644 14.6258 13.4617 14.6258 13.0417C14.6258 12.6218 14.4589 12.2191 14.162 11.9222C13.8651 11.6252 13.4623 11.4584 13.0424 11.4584M13.0424 14.6251V15.8126M13.0424 11.4584V10.2709M15.442 11.6563L14.4136 12.2501M11.672 13.8334L10.6429 14.4272M10.6429 11.6563L11.672 12.2501M14.4136 13.8334L15.4428 14.4272"
        stroke="#F8F8F8"
        stroke-width="2"
        stroke-linecap="round"
        stroke-linejoin="round"
    />
</svg>