<svg width="18" height="18" viewBox="0 0 18 18" fill="none" xmlns="http://www.w3.org/2000/svg">
    <path
        d="M14.625 3.375H2.25V5.15812L6.41813 9.33187L6.75 9.65812V14.625H9V13.5H10.125V14.625C10.125 14.9234 10.0065 15.2095 9.7955 15.4205C9.58452 15.6315 9.29837 15.75 9 15.75H6.75C6.45163 15.75 6.16548 15.6315 5.95451 15.4205C5.74353 15.2095 5.625 14.9234 5.625 14.625V10.125L1.45688 5.95688C1.35159 5.85222 1.26807 5.72776 1.21111 5.59067C1.15415 5.45358 1.12488 5.30658 1.125 5.15812V3.375C1.125 3.07663 1.24353 2.79048 1.45451 2.5795C1.66548 2.36853 1.95163 2.25 2.25 2.25H14.625V3.375Z"
        fill="white" />
    <path
        d="M16.7119 6.35071L15.0244 4.66321C14.9721 4.61049 14.9099 4.56864 14.8413 4.54009C14.7728 4.51153 14.6993 4.49683 14.625 4.49683C14.5507 4.49683 14.4772 4.51153 14.4087 4.54009C14.3401 4.56864 14.2779 4.61049 14.2256 4.66321L9 9.89446V12.3751H11.4806L16.7119 7.14946C16.7646 7.09717 16.8064 7.03496 16.835 6.96641C16.8636 6.89787 16.8783 6.82434 16.8783 6.75009C16.8783 6.67583 16.8636 6.60231 16.835 6.53376C16.8064 6.46522 16.7646 6.403 16.7119 6.35071ZM11.0194 11.2501H10.125V10.3557L12.9375 7.54321L13.8319 8.43759L11.0194 11.2501ZM14.625 7.64446L13.7306 6.75009L14.625 5.85571L15.5194 6.75009L14.625 7.64446Z"
        fill="white" />
</svg>
    