<svg width="15" height="15" viewBox="0 0 20 19" fill="none" xmlns="http://www.w3.org/2000/svg">
    <path
        d="M1.46 2C1.25 2 1.04 2.08 0.870001 2.21C0.430001 2.55 0.350001 3.18 0.690001 3.61V3.62L6 10.42V16.41L8.29 18.71C8.68 19.1 9.32 19.1 9.71 18.71C10.1 18.32 10.1 17.68 9.71 17.29L8 15.59V9.73L2.27 2.39C2.17427 2.26686 2.05132 2.16757 1.91079 2.09991C1.77025 2.03225 1.61596 1.99805 1.46 2ZM14 9V16.88C14.04 17.18 13.94 17.5 13.71 17.71C13.6175 17.8027 13.5076 17.8762 13.3866 17.9264C13.2657 17.9766 13.136 18.0024 13.005 18.0024C12.874 18.0024 12.7444 17.9766 12.6234 17.9264C12.5024 17.8762 12.3925 17.8027 12.3 17.71L10.29 15.7C10.181 15.5933 10.0981 15.4629 10.0478 15.319C9.99751 15.175 9.98114 15.0213 10 14.87V9H9.97L4.21 1.62C4.04761 1.41153 3.97433 1.14726 4.00619 0.88493C4.03804 0.622602 4.17244 0.383546 4.38 0.22C4.57 0.08 4.78 0 5 0H19C19.22 0 19.43 0.08 19.62 0.22C19.8276 0.383546 19.962 0.622602 19.9938 0.88493C20.0257 1.14726 19.9524 1.41153 19.79 1.62L14.03 9H14Z"
        fill="#F8F8F8" />
</svg>
    