<svg width="11" height="11" viewBox="0 0 11 11" fill="none" xmlns="http://www.w3.org/2000/svg">
    <path fill-rule="evenodd" clip-rule="evenodd" d="M10.9954 9.77218V6.41399C10.9954 6.24448 10.858 6.10704 10.6885 6.10704H10.0791C9.90962 6.10704 9.77218 6.24448 9.77218 6.41399V9.77218H1.22324V1.22324H4.58142C4.75094 1.22324 4.88838 1.0858 4.88838 0.916285V0.306955C4.88838 0.137443 4.75094 0 4.58142 0H1.22324C0.545189 0 0 0.545189 0 1.22324V9.77676C0 10.1012 0.128877 10.4123 0.358279 10.6417C0.587681 10.8711 0.898817 11 1.22324 11H9.77676C10.1012 11 10.4123 10.8711 10.6417 10.6417C10.8711 10.4123 11 10.1012 11 9.77676L10.9954 9.77218ZM10.6976 0.142024L10.8626 0.306955C10.945 0.38484 10.9954 0.494794 10.9954 0.613911V4.58601C10.9954 4.75552 10.858 4.89296 10.6885 4.89296H10.0791C9.99772 4.89296 9.91965 4.86062 9.86208 4.80306C9.80452 4.74549 9.77218 4.66742 9.77218 4.58601V2.09371L4.61808 7.24323C4.49896 7.36235 4.30654 7.36235 4.18742 7.24323L3.76135 6.81716C3.73304 6.7889 3.71057 6.75534 3.69524 6.71839C3.67992 6.68144 3.67203 6.64183 3.67203 6.60183C3.67203 6.56183 3.67992 6.52222 3.69524 6.48527C3.71057 6.44832 3.73304 6.41476 3.76135 6.38651L8.91087 1.22324H6.41399C6.33258 1.22324 6.25451 1.1909 6.19694 1.13334C6.13938 1.07577 6.10704 0.997694 6.10704 0.916285V0.306955C6.10704 0.137443 6.24448 0 6.41399 0H10.3861C10.5052 0.00458142 10.6152 0.0549771 10.6976 0.142024Z" fill="#DCEEF6"/>
    </svg>
    