<svg width="27" height="28" viewBox="0 0 27 28" fill="none" xmlns="http://www.w3.org/2000/svg">
    <g clip-path="url(#clip0_1249_2730)">
        <g filter="url(#filter0_bd_1249_2730)">
            <g clip-path="url(#clip1_1249_2730)">
                <rect y="0.419983" width="26.78" height="26.78" rx="9" fill="#DDDDDD" />
                <g clip-path="url(#clip2_1249_2730)">
                    <g filter="url(#filter1_bd_1249_2730)">
                        <g clip-path="url(#clip3_1249_2730)">
                            <rect y="0.419983" width="26.78" height="26.78" rx="9" fill="white"
                                fill-opacity="0.56" shape-rendering="crispEdges" />
                            <path
                                d="M13.3898 26.6793C20.4973 26.6793 26.2591 20.9175 26.2591 13.81C26.2591 6.70248 20.4973 0.940704 13.3898 0.940704C6.28228 0.940704 0.520508 6.70248 0.520508 13.81C0.520508 20.9175 6.28228 26.6793 13.3898 26.6793Z"
                                fill="white" fill-opacity="0.05" stroke="white" stroke-opacity="0.3"
                                stroke-width="1.04144" />
                            <mask id="mask0_1249_2730" style="mask-type:alpha"
                                maskUnits="userSpaceOnUse" x="1" y="1" width="25" height="25">
                                <path
                                    d="M13.3895 25.7122C19.9629 25.7122 25.2917 20.3834 25.2917 13.81C25.2917 7.23658 19.9629 1.90778 13.3895 1.90778C6.81611 1.90778 1.4873 7.23658 1.4873 13.81C1.4873 20.3834 6.81611 25.7122 13.3895 25.7122Z"
                                    fill="#27292C" />
                            </mask>
                            <g mask="url(#mask0_1249_2730)">
                                <path fill-rule="evenodd" clip-rule="evenodd"
                                    d="M11.4577 17.3078V16.3176C11.4577 15.6068 11.5135 14.9906 11.6465 14.4962L11.6482 14.4898C11.7821 14.0094 11.9886 13.5772 12.293 13.2287C12.5558 12.9239 12.8686 12.6547 13.2244 12.418L13.2292 12.4149C13.4508 12.27 13.6414 12.1274 13.8034 11.9878C13.9452 11.8649 14.0428 11.746 14.1087 11.6338C14.1481 11.5665 14.1755 11.4804 14.1755 11.3553C14.1755 11.2376 14.1499 11.1656 14.1194 11.1152C14.0838 11.0563 14.0394 11.0142 13.9719 10.9802L13.9636 10.9759L13.9553 10.9715C13.8857 10.9342 13.8001 10.9097 13.6829 10.9097C13.5769 10.9097 13.4825 10.9331 13.3892 10.9825C13.308 11.0273 13.2367 11.0915 13.1731 11.1902C13.1365 11.2485 13.0993 11.3457 13.097 11.5158L13.0869 12.2494H8.91602L8.9265 11.4952C8.9396 10.5509 9.1525 9.70834 9.62122 9.02016L9.62323 9.01711C10.0736 8.36286 10.6736 7.87591 11.4085 7.56497C12.1167 7.26133 12.8861 7.11499 13.7063 7.11499C14.586 7.11499 15.3963 7.25577 16.1236 7.55526C16.8657 7.85925 17.4747 8.32061 17.9218 8.94637C18.3849 9.59445 18.597 10.3656 18.597 11.2172C18.597 11.7742 18.506 12.2973 18.304 12.7707C18.1112 13.2224 17.8399 13.6242 17.493 13.9716C17.1707 14.2943 16.7983 14.5822 16.3807 14.8376L16.3773 14.8396C16.1258 14.9917 15.933 15.1404 15.7893 15.2819C15.6705 15.4025 15.5839 15.5363 15.5247 15.6876L15.5232 15.6915C15.4707 15.8233 15.43 16.024 15.43 16.3176V17.3078H15.0502C15.0573 17.3148 15.0644 17.3218 15.0714 17.3289C15.5121 17.7661 15.7451 18.3151 15.7508 18.9362L15.7509 18.9446L15.7507 18.953C15.7451 19.367 15.6375 19.7591 15.423 20.113C15.2232 20.4489 14.9544 20.7241 14.6213 20.9281C14.2773 21.1413 13.8951 21.2489 13.4905 21.2489C12.8674 21.2489 12.3177 21.014 11.8812 20.5701L11.8777 20.5666C11.4445 20.1203 11.2262 19.5643 11.2302 18.943C11.2262 18.3254 11.4476 17.7747 11.8812 17.3339C11.8899 17.3252 11.8985 17.3165 11.9073 17.3078H11.4577ZM12.4115 17.8556C12.116 18.156 11.9702 18.5184 11.9741 18.943C11.9702 19.3755 12.116 19.744 12.4115 20.0484C12.7109 20.3528 13.0706 20.505 13.4905 20.505C13.7588 20.505 14.0057 20.4349 14.2312 20.2947C14.4606 20.1545 14.6453 19.9663 14.7853 19.73C14.9292 19.4937 15.003 19.2314 15.0069 18.943C15.003 18.5184 14.8494 18.156 14.5461 17.8556C14.2429 17.5512 13.891 17.399 13.4905 17.399C13.0706 17.399 12.7109 17.5512 12.4115 17.8556ZM15.2635 14.7557C15.4579 14.5634 15.701 14.3792 15.9926 14.203C16.3658 13.9747 16.6905 13.7224 16.9666 13.446C17.2465 13.1656 17.4643 12.8432 17.6198 12.4788C17.7753 12.1143 17.8531 11.6938 17.8531 11.2172C17.8531 10.4922 17.6743 9.87943 17.3165 9.37879C16.9588 8.87816 16.4669 8.49967 15.841 8.2434C15.2188 7.98705 14.5072 7.85888 13.7063 7.85888C12.9753 7.85888 12.3065 7.98906 11.6999 8.24935C11.0934 8.50569 10.6055 8.90218 10.236 9.4389C9.98476 9.80787 9.81709 10.2488 9.7331 10.7616C9.69487 10.9947 9.67396 11.2427 9.67032 11.5055H12.3532C12.3571 11.2252 12.4212 10.9869 12.5457 10.7906C12.674 10.5904 12.8373 10.4362 13.0356 10.328C13.2378 10.2199 13.4536 10.1658 13.6829 10.1658C13.9123 10.1658 14.1204 10.2159 14.3071 10.316C14.4976 10.4121 14.6472 10.5503 14.7561 10.7305C14.865 10.9108 14.9194 11.119 14.9194 11.3553C14.9194 11.5997 14.863 11.8179 14.7503 12.0102C14.6375 12.2024 14.4839 12.3826 14.2895 12.5509C14.099 12.7151 13.8813 12.8773 13.6363 13.0375C13.3291 13.2417 13.0686 13.468 12.8548 13.7163C12.6409 13.9606 12.4776 14.285 12.3648 14.6896C12.284 14.9902 12.2331 15.367 12.2123 15.8201C12.2051 15.9768 12.2016 16.1427 12.2016 16.3176V16.5639H14.6861V16.3176C14.6861 15.9612 14.7347 15.6608 14.8319 15.4165C14.9292 15.1682 15.073 14.9479 15.2635 14.7557Z"
                                    fill="black" />
                            </g>
                        </g>
                    </g>
                </g>
            </g>
        </g>
    </g>
    <defs>
        <filter id="filter0_bd_1249_2730" x="-42" y="-41.58" width="110.78" height="110.78"
            filterUnits="userSpaceOnUse" color-interpolation-filters="sRGB">
            <feFlood flood-opacity="0" result="BackgroundImageFix" />
            <feGaussianBlur in="BackgroundImageFix" stdDeviation="21" />
            <feComposite in2="SourceAlpha" operator="in" result="effect1_backgroundBlur_1249_2730" />
            <feColorMatrix in="SourceAlpha" type="matrix"
                values="0 0 0 0 0 0 0 0 0 0 0 0 0 0 0 0 0 0 127 0" result="hardAlpha" />
            <feOffset dy="9" />
            <feGaussianBlur stdDeviation="6" />
            <feComposite in2="hardAlpha" operator="out" />
            <feColorMatrix type="matrix" values="0 0 0 0 0 0 0 0 0 0 0 0 0 0 0 0 0 0 0.16 0" />
            <feBlend mode="normal" in2="effect1_backgroundBlur_1249_2730"
                result="effect2_dropShadow_1249_2730" />
            <feBlend mode="normal" in="SourceGraphic" in2="effect2_dropShadow_1249_2730"
                result="shape" />
        </filter>
        <filter id="filter1_bd_1249_2730" x="-42" y="-41.58" width="110.78" height="110.78"
            filterUnits="userSpaceOnUse" color-interpolation-filters="sRGB">
            <feFlood flood-opacity="0" result="BackgroundImageFix" />
            <feGaussianBlur in="BackgroundImageFix" stdDeviation="21" />
            <feComposite in2="SourceAlpha" operator="in" result="effect1_backgroundBlur_1249_2730" />
            <feColorMatrix in="SourceAlpha" type="matrix"
                values="0 0 0 0 0 0 0 0 0 0 0 0 0 0 0 0 0 0 127 0" result="hardAlpha" />
            <feOffset dy="9" />
            <feGaussianBlur stdDeviation="6" />
            <feComposite in2="hardAlpha" operator="out" />
            <feColorMatrix type="matrix" values="0 0 0 0 0 0 0 0 0 0 0 0 0 0 0 0 0 0 0.16 0" />
            <feBlend mode="normal" in2="effect1_backgroundBlur_1249_2730"
                result="effect2_dropShadow_1249_2730" />
            <feBlend mode="normal" in="SourceGraphic" in2="effect2_dropShadow_1249_2730"
                result="shape" />
        </filter>
        <clipPath id="clip0_1249_2730">
            <rect y="0.419983" width="26.78" height="26.78" rx="13.39" fill="white" />
        </clipPath>
        <clipPath id="clip1_1249_2730">
            <rect y="0.419983" width="26.78" height="26.78" rx="9" fill="white" />
        </clipPath>
        <clipPath id="clip2_1249_2730">
            <rect width="26.78" height="26.78" fill="white" transform="translate(0 0.419983)" />
        </clipPath>
        <clipPath id="clip3_1249_2730">
            <rect y="0.419983" width="26.78" height="26.78" rx="9" fill="white" />
        </clipPath>
    </defs>
</svg>
    