<svg width="27" height="28" viewBox="0 0 27 28" fill="none" xmlns="http://www.w3.org/2000/svg">
<path d="M13.39 26.6797C20.4975 26.6797 26.2593 20.9179 26.2593 13.8104C26.2593 6.70287 20.4975 0.941101 13.39 0.941101C6.28252 0.941101 0.520752 6.70287 0.520752 13.8104C0.520752 20.9179 6.28252 26.6797 13.39 26.6797Z" fill="white" fill-opacity="0.05" stroke="white" stroke-opacity="0.3" stroke-width="1.04144"/>
<mask id="mask0_1757_14442" style="mask-type:alpha" maskUnits="userSpaceOnUse" x="1" y="1" width="25" height="25">
<path d="M13.39 25.7126C19.9634 25.7126 25.2922 20.3838 25.2922 13.8104C25.2922 7.23695 19.9634 1.90814 13.39 1.90814C6.8166 1.90814 1.48779 7.23695 1.48779 13.8104C1.48779 20.3838 6.8166 25.7126 13.39 25.7126Z" fill="#27292C"/>
</mask>
<g mask="url(#mask0_1757_14442)">
<path fill-rule="evenodd" clip-rule="evenodd" d="M11.4579 17.3082V16.318C11.4579 15.6071 11.5137 14.991 11.6468 14.4966L11.6485 14.4902C11.7824 14.0098 11.9889 13.5776 12.2932 13.2291C12.556 12.9243 12.8688 12.655 13.2246 12.4184L13.2294 12.4153C13.451 12.2704 13.6417 12.1278 13.8036 11.9882C13.9455 11.8653 14.0431 11.7464 14.1089 11.6342C14.1483 11.5669 14.1758 11.4808 14.1758 11.3557C14.1758 11.238 14.1501 11.166 14.1196 11.1155C14.0841 11.0567 14.0396 11.0146 13.9722 10.9805L13.9638 10.9763L13.9556 10.9719C13.886 10.9346 13.8003 10.9101 13.6832 10.9101C13.5772 10.9101 13.4827 10.9335 13.3894 10.9829C13.3083 11.0276 13.2369 11.0919 13.1733 11.1906C13.1368 11.2488 13.0996 11.3461 13.0972 11.5162L13.0871 12.2498H8.91626L8.92675 11.4956C8.93984 10.5513 9.15274 9.7087 9.62147 9.02053L9.62347 9.01748C10.0738 8.36323 10.6738 7.87628 11.4087 7.56534C12.117 7.26169 12.8863 7.11536 13.7065 7.11536C14.5863 7.11536 15.3966 7.25614 16.1238 7.55563C16.8659 7.85962 17.4749 8.32098 17.922 8.94674C18.3851 9.59481 18.5972 10.3659 18.5972 11.2175C18.5972 11.7746 18.5063 12.2977 18.3042 12.7711C18.1115 13.2228 17.8402 13.6245 17.4932 13.972C17.1709 14.2946 16.7985 14.5826 16.381 14.838L16.3775 14.84C16.126 14.992 15.9333 15.1407 15.7896 15.2823C15.6707 15.4029 15.5841 15.5367 15.5249 15.688L15.5234 15.6919C15.471 15.8236 15.4303 16.0243 15.4303 16.318V17.3082H15.0504C15.0576 17.3152 15.0646 17.3222 15.0716 17.3292C15.5123 17.7665 15.7453 18.3155 15.751 18.9366L15.7511 18.945L15.751 18.9534C15.7454 19.3674 15.6377 19.7595 15.4233 20.1133C15.2235 20.4493 14.9546 20.7244 14.6216 20.9285C14.2775 21.1417 13.8953 21.2492 13.4907 21.2492C12.8676 21.2492 12.318 21.0143 11.8814 20.5704L11.878 20.567C11.4447 20.1206 11.2264 19.5647 11.2304 18.9434C11.2264 18.3258 11.4479 17.7751 11.8815 17.3343C11.8901 17.3255 11.8987 17.3168 11.9075 17.3082H11.4579ZM12.4117 17.856C12.1162 18.1564 11.9704 18.5188 11.9743 18.9433C11.9704 19.3759 12.1162 19.7444 12.4117 20.0488C12.7111 20.3532 13.0708 20.5054 13.4907 20.5054C13.7591 20.5054 14.0059 20.4353 14.2314 20.2951C14.4608 20.1549 14.6455 19.9667 14.7855 19.7304C14.9294 19.494 15.0033 19.2317 15.0071 18.9433C15.0033 18.5188 14.8497 18.1564 14.5464 17.856C14.2431 17.5516 13.8912 17.3994 13.4907 17.3994C13.0708 17.3994 12.7111 17.5516 12.4117 17.856ZM15.2638 14.7561C15.4582 14.5638 15.7012 14.3796 15.9928 14.2034C16.3661 13.9751 16.6907 13.7227 16.9668 13.4464C17.2468 13.166 17.4645 12.8436 17.6201 12.4792C17.7755 12.1147 17.8533 11.6941 17.8533 11.2175C17.8533 10.4926 17.6745 9.8798 17.3168 9.37916C16.959 8.87852 16.4672 8.50003 15.8412 8.24376C15.2191 7.98742 14.5075 7.85925 13.7065 7.85925C12.9755 7.85925 12.3068 7.98943 11.7002 8.24971C11.0936 8.50606 10.6057 8.90255 10.2363 9.43927C9.985 9.80823 9.81733 10.2491 9.73335 10.762C9.69511 10.9951 9.67421 11.243 9.67056 11.5059H12.3534C12.3573 11.2256 12.4215 10.9872 12.5459 10.791C12.6742 10.5907 12.8375 10.4365 13.0358 10.3284C13.238 10.2203 13.4538 10.1662 13.6832 10.1662C13.9126 10.1662 14.1207 10.2163 14.3073 10.3164C14.4978 10.4125 14.6475 10.5507 14.7564 10.7309C14.8652 10.9111 14.9197 11.1194 14.9197 11.3557C14.9197 11.6 14.8633 11.8183 14.7505 12.0105C14.6377 12.2028 14.4842 12.383 14.2897 12.5512C14.0992 12.7154 13.8815 12.8777 13.6365 13.0378C13.3294 13.2421 13.0689 13.4684 12.855 13.7167C12.6411 13.961 12.4779 14.2854 12.3651 14.6899C12.2842 14.9905 12.2333 15.3673 12.2126 15.8204C12.2054 15.9772 12.2018 16.143 12.2018 16.318V16.5643H14.6864V16.318C14.6864 15.9615 14.735 15.6612 14.8322 15.4169C14.9294 15.1685 15.0733 14.9483 15.2638 14.7561Z" fill="#858C91"/>
</g>
</svg>
