<svg width="182" height="24" viewBox="0 0 182 24" fill="none" xmlns="http://www.w3.org/2000/svg">
    <g clip-path="url(#clip0_1_2621)">
        <path
            d="M34.0098 2.07959H42.2244C45.5413 2.07959 47.7172 4.0294 47.7172 7.38379C47.7172 10.7382 45.5413 12.688 42.2244 12.688H35.7717V20.6456H34.0098V2.07959ZM35.7717 11.1821H41.8363C44.2735 11.1821 45.9579 9.93333 45.9579 7.38638C45.9579 4.83943 44.2735 3.59062 41.8363 3.59062H35.7717V11.1847V11.1821Z"
            fill="#DCEEF6" />
        <path
            d="M50.4158 7.22816H51.919V10.3749H51.9707C52.8012 8.21734 54.6149 6.94257 57.0237 7.04642V8.68467C54.069 8.5289 52.0483 10.7124 52.0483 13.4956V20.6483H50.4158V7.22816Z"
            fill="#DCEEF6" />
        <path
            d="M58.9927 2.07959H60.6253V4.70702H58.9927V2.07959ZM58.9927 7.22801H60.6253V20.6482H58.9927V7.22801Z"
            fill="#DCEEF6" />
        <path
            d="M62.6458 7.22803H64.4594L68.6586 19.0099H68.7103L72.8578 7.22803H74.5421L69.5409 20.6482H67.8048L62.6483 7.22803H62.6458Z"
            fill="#DCEEF6" />
        <path
            d="M76.3817 11.3377C76.5369 8.19104 78.7413 6.83838 81.7995 6.83838C84.1565 6.83838 86.7231 7.56534 86.7231 11.156V18.2828C86.7231 18.9059 87.0336 19.272 87.683 19.272C87.8641 19.272 88.0711 19.22 88.2004 19.1681V20.5467C87.8382 20.6246 87.5795 20.6506 87.1371 20.6506C85.4786 20.6506 85.2199 19.7133 85.2199 18.3113H85.1681C84.0271 20.0534 82.8629 21.0426 80.2963 21.0426C77.7297 21.0426 75.8125 19.8198 75.8125 17.117C75.8125 13.3472 79.4657 13.2148 82.9922 12.7994C84.3402 12.6437 85.0905 12.4619 85.0905 10.9794C85.0905 8.77001 83.5097 8.2222 81.5925 8.2222C79.5718 8.2222 78.0686 9.15945 78.0169 11.3429H76.3843L76.3817 11.3377ZM85.0905 13.3135H85.0388C84.8318 13.7029 84.1048 13.8328 83.6649 13.9106C80.8913 14.4039 77.4451 14.378 77.4451 17.0054C77.4451 18.6437 78.8965 19.6588 80.4256 19.6588C82.9146 19.6588 85.1164 18.0725 85.0905 15.445V13.3135Z"
            fill="#DCEEF6" />
        <path
            d="M92.9688 7.22782H95.6907V8.60645H92.9688V17.6571C92.9688 18.7241 93.1241 19.3472 94.2909 19.4251C94.7567 19.4251 95.225 19.3992 95.6907 19.3472V20.7518C95.1991 20.7518 94.7334 20.8038 94.2392 20.8038C92.0633 20.8038 91.3104 20.0768 91.3363 17.7869V8.60645H89.0051V7.22782H91.3363V3.1958H92.9688V7.22782Z"
            fill="#DCEEF6" />
        <path
            d="M99.3958 14.3781C99.4216 16.7719 100.666 19.6564 103.802 19.6564C106.185 19.6564 107.481 18.2518 108.001 16.2241H109.634C108.935 19.2669 107.171 21.035 103.802 21.035C99.551 21.035 97.7632 17.7585 97.7632 13.9368C97.7632 10.4006 99.551 6.83594 103.802 6.83594C108.053 6.83594 109.815 10.6057 109.685 14.3781H99.3958ZM108.05 12.9995C107.973 10.5278 106.444 8.21456 103.799 8.21456C101.155 8.21456 99.6519 10.5538 99.3932 12.9995H108.048H108.05Z"
            fill="#DCEEF6" />
        <path
            d="M112.689 2.07959H120.852C126.138 2.07959 127.15 5.51187 127.15 7.82775C127.15 10.1436 126.138 13.5499 120.852 13.524H115.928V20.6508H112.689V2.07959ZM115.928 10.8706H120.671C122.122 10.8706 123.91 10.1436 123.91 7.80179C123.91 5.45994 122.433 4.73299 120.723 4.73299H115.928V10.8706Z"
            fill="#DCEEF6" />
        <path
            d="M129.328 13.9108C129.328 9.80089 131.788 6.83594 136.091 6.83594C140.394 6.83594 142.854 9.80089 142.854 13.9108C142.854 18.0207 140.391 21.009 136.091 21.009C131.791 21.009 129.328 18.0441 129.328 13.9108ZM139.902 13.9108C139.902 11.5975 138.735 9.17778 136.094 9.17778C133.452 9.17778 132.285 11.5975 132.285 13.9108C132.285 16.2241 133.452 18.6698 136.094 18.6698C138.735 18.6698 139.902 16.2526 139.902 13.9108Z"
            fill="#DCEEF6" />
        <path
            d="M145.084 13.9108C145.084 9.80089 147.545 6.83594 151.848 6.83594C156.15 6.83594 158.611 9.80089 158.611 13.9108C158.611 18.0207 156.148 21.009 151.848 21.009C147.548 21.009 145.084 18.0441 145.084 13.9108ZM155.659 13.9108C155.659 11.5975 154.492 9.17778 151.85 9.17778C149.209 9.17778 148.042 11.5975 148.042 13.9108C148.042 16.2241 149.209 18.6698 151.85 18.6698C154.492 18.6698 155.659 16.2526 155.659 13.9108Z"
            fill="#DCEEF6" />
        <path d="M161.54 2.07959H164.494V20.6482H161.54V2.07959Z" fill="#DCEEF6" />
        <path
            d="M170.326 16.3305C170.481 18.0467 171.777 18.6698 173.358 18.6698C174.473 18.6698 176.416 18.4361 176.339 16.9017C176.261 15.3413 174.111 15.1596 171.959 14.6637C169.783 14.1964 167.656 13.4149 167.656 10.6836C167.656 7.74464 170.818 6.83594 173.252 6.83594C176 6.83594 178.486 7.9809 178.851 10.9718H175.767C175.508 9.56722 174.341 9.17778 173.045 9.17778C172.189 9.17778 170.611 9.38548 170.611 10.5564C170.611 12.0129 172.787 12.2206 174.965 12.7139C177.115 13.2072 179.294 13.9887 179.294 16.6421C179.294 19.8407 176.08 21.0116 173.307 21.0116C169.938 21.0116 167.423 19.5032 167.371 16.3305H170.326Z"
            fill="#DCEEF6" />
        <path
            d="M180.522 7.57832C180.522 7.47706 180.541 7.381 180.579 7.29013C180.618 7.19926 180.67 7.12137 180.737 7.05387C180.804 6.98637 180.882 6.93444 180.97 6.8955C181.061 6.85655 181.156 6.83838 181.257 6.83838C181.358 6.83838 181.454 6.85655 181.544 6.8955C181.635 6.93444 181.713 6.98637 181.78 7.05387C181.847 7.12137 181.899 7.19926 181.938 7.29013C181.977 7.381 181.995 7.47706 181.995 7.57832C181.995 7.67957 181.977 7.77823 181.938 7.8665C181.899 7.95737 181.847 8.03526 181.78 8.10017C181.713 8.16767 181.635 8.2196 181.544 8.25854C181.454 8.29749 181.358 8.31566 181.257 8.31566C181.156 8.31566 181.058 8.29749 180.97 8.25854C180.88 8.2196 180.802 8.16767 180.737 8.10017C180.67 8.03267 180.618 7.95478 180.579 7.8665C180.541 7.77564 180.522 7.67957 180.522 7.57832ZM180.623 7.57832C180.623 7.66659 180.639 7.74967 180.673 7.82756C180.706 7.90545 180.753 7.97295 180.81 8.03007C180.867 8.08719 180.936 8.13392 181.014 8.16767C181.092 8.20142 181.174 8.217 181.262 8.217C181.35 8.217 181.433 8.20142 181.511 8.16767C181.588 8.13392 181.656 8.08719 181.715 8.03007C181.775 7.97295 181.819 7.90285 181.852 7.82756C181.886 7.74967 181.901 7.66659 181.901 7.57832C181.901 7.49004 181.886 7.40696 181.852 7.32908C181.819 7.25119 181.772 7.18368 181.715 7.12397C181.658 7.06685 181.588 7.02012 181.511 6.98637C181.433 6.95262 181.35 6.93704 181.262 6.93704C181.174 6.93704 181.092 6.95262 181.014 6.98637C180.936 7.02012 180.869 7.06685 180.81 7.12397C180.753 7.18109 180.706 7.25119 180.673 7.32908C180.639 7.40696 180.623 7.49004 180.623 7.57832ZM181.661 7.7315C181.638 7.82496 181.594 7.90026 181.529 7.95997C181.462 8.01969 181.381 8.04824 181.288 8.04824C181.221 8.04824 181.159 8.03526 181.105 8.0119C181.05 7.98853 181.004 7.95478 180.962 7.91324C180.923 7.8717 180.892 7.82237 180.872 7.76525C180.851 7.70813 180.841 7.64582 180.841 7.57832C180.841 7.51082 180.851 7.4485 180.872 7.39139C180.892 7.33427 180.921 7.28494 180.96 7.2434C180.999 7.20186 181.043 7.1707 181.097 7.14474C181.151 7.12137 181.213 7.10839 181.283 7.10839C181.332 7.10839 181.376 7.11618 181.42 7.12916C181.464 7.14214 181.503 7.16291 181.534 7.18888C181.568 7.21484 181.596 7.24599 181.617 7.28494C181.638 7.32388 181.653 7.36802 181.661 7.41735H181.552C181.539 7.35763 181.508 7.30831 181.462 7.26936C181.415 7.23042 181.353 7.20965 181.281 7.20965C181.226 7.20965 181.177 7.22003 181.136 7.23821C181.094 7.25638 181.061 7.28234 181.032 7.31609C181.004 7.34985 180.983 7.38879 180.97 7.43293C180.957 7.47706 180.949 7.52639 180.949 7.57832C180.949 7.62765 180.957 7.67178 180.973 7.71592C180.988 7.76006 181.009 7.799 181.04 7.83275C181.068 7.86651 181.105 7.89506 181.146 7.91583C181.187 7.9366 181.237 7.94699 181.288 7.94699C181.361 7.94699 181.42 7.92622 181.467 7.88468C181.513 7.84314 181.542 7.79121 181.555 7.7289H181.663L181.661 7.7315Z"
            fill="#DCEEF6" />
        <path
            d="M9.52905 15.3828L9.52905 -0.000137329H9.75415C14.8899 -0.000137329 19.058 4.18247 19.058 9.33608V15.3828H9.52905Z"
            fill="url(#paint0_linear_1_2621)" />
        <path
            d="M9.52905 0L9.52905 24H9.30396C4.1682 24 8.10623e-05 19.8174 8.10623e-05 14.6638L8.10623e-05 0L9.52905 0Z"
            fill="url(#paint1_linear_1_2621)" />
    </g>
    <defs>
        <linearGradient id="paint0_linear_1_2621" x1="14.2922" y1="15.3828" x2="14.2922"
            y2="-0.000138283" gradientUnits="userSpaceOnUse">
            <stop stop-color="#00E0FF" stop-opacity="0" />
            <stop offset="1" stop-color="#00E0FF" />
        </linearGradient>
        <linearGradient id="paint1_linear_1_2621" x1="4.76327" y1="0" x2="4.76327" y2="24"
            gradientUnits="userSpaceOnUse">
            <stop stop-color="#00E0FF" stop-opacity="0" />
            <stop offset="1" stop-color="#00E0FF" />
        </linearGradient>
        <clipPath id="clip0_1_2621">
            <rect width="182" height="24" fill="white" />
        </clipPath>
    </defs>
</svg>
    