<svg
  width="9"
  height="9"
  viewBox="0 0 9 9"
  fill="none"
  xmlns="http://www.w3.org/2000/svg"
>
  <path
    d="M4.5 8.25C2.42888 8.25 0.75 6.57113 0.75 4.5C0.75 2.42888 2.42888 0.75 4.5 0.75C6.57113 0.75 8.25 2.42888 8.25 4.5C8.25 6.57113 6.57113 8.25 4.5 8.25ZM4.125 5.625V6.375H4.875V5.625H4.125ZM4.875 5.00812C5.17638 4.91729 5.4351 4.72123 5.60406 4.45565C5.77302 4.19007 5.84096 3.87265 5.79553 3.56117C5.75009 3.2497 5.59429 2.96491 5.3565 2.75867C5.11872 2.55243 4.81477 2.43845 4.5 2.4375C4.19657 2.43748 3.9025 2.54256 3.6678 2.73487C3.4331 2.92719 3.27225 3.19486 3.21263 3.49237L3.94838 3.63975C3.96925 3.53529 4.01937 3.4389 4.09289 3.36181C4.16641 3.28471 4.2603 3.23008 4.36366 3.20426C4.46701 3.17845 4.57557 3.18252 4.67671 3.21599C4.77784 3.24946 4.86739 3.31096 4.93494 3.39334C5.00248 3.47572 5.04525 3.57558 5.05826 3.68132C5.07126 3.78705 5.05398 3.8943 5.00841 3.99059C4.96285 4.08689 4.89088 4.16826 4.80087 4.22525C4.71087 4.28224 4.60653 4.31249 4.5 4.3125C4.40054 4.3125 4.30516 4.35201 4.23484 4.42234C4.16451 4.49266 4.125 4.58804 4.125 4.6875V5.25H4.875V5.00812Z"
    fill="#F8F8F8"
  />
</svg>
