<svg width="112" height="44" viewBox="0 0 112 44" fill="none" xmlns="http://www.w3.org/2000/svg">
<g clip-path="url(#clip0_1807_18039)">
<g clip-path="url(#clip1_1807_18039)">
<g clip-path="url(#clip2_1807_18039)">
<path d="M96 40H12V44H96V40Z" fill="#343F46"/>
<path d="M96 40H0V44H96V40Z" fill="#273036"/>
<path d="M112 24H98V44H112V24Z" fill="#273036"/>
<path d="M25 0H23V44H25V0Z" fill="#477988"/>
<path d="M23 0H17V11.4783H23V0Z" fill="#477988"/>
<path d="M98 0H96V44H98V0Z" fill="#477988"/>
<path d="M104 0H98V11.4783H104V0Z" fill="#477988"/>
<path d="M53 36H25V44H53V36Z" fill="#343F46"/>
<path d="M68 20H40V44H68V20Z" fill="#343F46"/>
<path d="M41 0H40V44H41V0Z" fill="#405059"/>
<path d="M96 24H65V44H96V24Z" fill="#343F46"/>
</g>
</g>
</g>
<defs>
<clipPath id="clip0_1807_18039">
<rect width="112" height="44" fill="white"/>
</clipPath>
<clipPath id="clip1_1807_18039">
<rect width="112" height="44" fill="white"/>
</clipPath>
<clipPath id="clip2_1807_18039">
<rect width="112" height="44" fill="white"/>
</clipPath>
</defs>
</svg>
