<svg width="31" height="32" viewBox="0 0 31 32" fill="none" xmlns="http://www.w3.org/2000/svg">
<path d="M14.2083 17.2917H16.7917V18.5834H14.2083V17.2917ZM27.125 6.95835V14.7084C27.125 21.8125 22.2167 28.5292 15.5 30.2084C8.78333 28.5292 3.875 21.8125 3.875 14.7084V6.95835L15.5 1.79169L27.125 6.95835ZM21.9583 13.4167H19.1167C18.8583 12.6417 18.3417 11.9959 17.6958 11.4792L19.2458 9.92919L18.3417 9.02502L16.5333 10.8334H15.5C15.2417 10.8334 14.8542 10.8334 14.5958 10.9625L12.7875 9.02502L11.7542 10.0584L13.3042 11.6084C12.6583 11.9959 12.1417 12.6417 11.8833 13.4167H9.04167V14.7084H11.625V16H9.04167V17.2917H11.625V18.5834H9.04167V19.875H11.8833C12.4 21.425 13.8208 22.4584 15.5 22.4584C17.1792 22.4584 18.6 21.425 19.1167 19.875H21.9583V18.5834H19.375V17.2917H21.9583V16H19.375V14.7084H21.9583V13.4167ZM14.2083 16H16.7917V14.7084H14.2083V16Z" fill="#00E0FF"/>
</svg>
