<svg width="21" height="20" viewBox="0 0 21 20" fill="none" xmlns="http://www.w3.org/2000/svg">
<g clip-path="url(#clip0_2808_1458)">
<path d="M15.7321 5.78948V2.63158C15.7321 2.3524 15.6211 2.08466 15.4237 1.88725C15.2264 1.68985 14.9586 1.57895 14.6794 1.57895H4.15311C3.59477 1.57895 3.05928 1.80075 2.66447 2.19557C2.26965 2.59038 2.04785 3.12586 2.04785 3.68421M2.04785 3.68421C2.04785 4.24256 2.26965 4.77804 2.66447 5.17285C3.05928 5.56768 3.59477 5.78948 4.15311 5.78948H16.7847C17.0639 5.78948 17.3316 5.90038 17.529 6.09778C17.7264 6.29519 17.8373 6.56293 17.8373 6.84211V10M2.04785 3.68421V16.3158C2.04785 16.8741 2.26965 17.4096 2.66447 17.8044C3.05928 18.1993 3.59477 18.4211 4.15311 18.4211H16.7847C17.0639 18.4211 17.3316 18.3101 17.529 18.1127C17.7264 17.9154 17.8373 17.6476 17.8373 17.3684V14.2105" stroke="white" stroke-width="1.57895" stroke-linecap="round" stroke-linejoin="round"/>
<path d="M18.89 10V14.2105H14.6795C14.1212 14.2105 13.5857 13.9887 13.1909 13.5939C12.796 13.1991 12.5742 12.6636 12.5742 12.1053C12.5742 11.5469 12.796 11.0115 13.1909 10.6166C13.5857 10.2218 14.1212 10 14.6795 10H18.89Z" stroke="white" stroke-width="1.57895" stroke-linecap="round" stroke-linejoin="round"/>
</g>
<defs>
<clipPath id="clip0_2808_1458">
<rect width="20" height="20" fill="white" transform="translate(0.46875)"/>
</clipPath>
</defs>
</svg>
