<svg width="28" height="44" viewBox="0 0 28 44" fill="none" xmlns="http://www.w3.org/2000/svg">
<rect x="1" y="1" width="26" height="26" rx="13" stroke="#CBD5E1" stroke-width="2"/>
<path d="M10.9992 19V18.1051L14.36 14.4261C14.7544 13.9953 15.0792 13.6207 15.3344 13.3026C15.5896 12.9811 15.7786 12.6795 15.9012 12.3977C16.0271 12.1127 16.0901 11.8144 16.0901 11.5028C16.0901 11.1449 16.0039 10.835 15.8316 10.5732C15.6625 10.3113 15.4305 10.1091 15.1356 9.96662C14.8406 9.8241 14.5091 9.75284 14.1412 9.75284C13.7501 9.75284 13.4088 9.83404 13.1171 9.99645C12.8287 10.1555 12.605 10.3793 12.4459 10.6676C12.2902 10.956 12.2123 11.294 12.2123 11.6818H11.039C11.039 11.0852 11.1765 10.5616 11.4516 10.1108C11.7267 9.66004 12.1012 9.30871 12.5752 9.05682C13.0525 8.80492 13.5877 8.67898 14.181 8.67898C14.7776 8.67898 15.3063 8.80492 15.767 9.05682C16.2277 9.30871 16.5889 9.64844 16.8508 10.076C17.1126 10.5036 17.2435 10.9792 17.2435 11.5028C17.2435 11.8774 17.1756 12.2436 17.0397 12.6016C16.9071 12.9562 16.6751 13.3523 16.3437 13.7898C16.0155 14.224 15.5598 14.7543 14.9765 15.3807L12.6895 17.8267V17.9062H17.4225V19H10.9992Z" fill="#475569"/>
<rect x="13.5" y="28" width="1" height="16" fill="#CBD5E1"/>
</svg>

