<svg width="28" height="28" viewBox="0 0 28 28" fill="none" xmlns="http://www.w3.org/2000/svg">
<rect width="28" height="28" rx="14" fill="url(#paint0_linear_5887_1860)"/>
<path
        d="M14.1887 19.1392C13.4727 19.1392 12.8364 19.0166 12.2796 18.7713C11.7261 18.526 11.2886 18.1847 10.9671 17.7472C10.6456 17.3097 10.4749 16.8042 10.455 16.2308H12.3243C12.3409 16.5059 12.432 16.7462 12.5977 16.9517C12.7635 17.1539 12.9839 17.3113 13.259 17.424C13.5341 17.5367 13.8423 17.593 14.1837 17.593C14.5483 17.593 14.8714 17.5301 15.1531 17.4041C15.4349 17.2749 15.6553 17.0959 15.8144 16.8672C15.9735 16.6385 16.0513 16.375 16.048 16.0767C16.0513 15.7685 15.9718 15.4967 15.8094 15.2614C15.647 15.026 15.4117 14.8421 15.1034 14.7095C14.7985 14.5769 14.4306 14.5107 13.9997 14.5107H13.0999V13.0888H13.9997C14.3544 13.0888 14.6643 13.0275 14.9294 12.9048C15.1979 12.7822 15.4083 12.6098 15.5608 12.3878C15.7133 12.1624 15.7878 11.9022 15.7845 11.6072C15.7878 11.3189 15.7232 11.0687 15.5906 10.8565C15.4614 10.6411 15.2774 10.4737 15.0388 10.3544C14.8035 10.2351 14.5267 10.1754 14.2085 10.1754C13.897 10.1754 13.6086 10.2318 13.3435 10.3445C13.0783 10.4571 12.8646 10.6179 12.7021 10.8267C12.5397 11.0322 12.4536 11.2775 12.4436 11.5625H10.6688C10.682 10.9924 10.8461 10.492 11.161 10.0611C11.4791 9.62689 11.9034 9.28883 12.4337 9.04688C12.964 8.80161 13.5589 8.67898 14.2185 8.67898C14.8979 8.67898 15.4879 8.80658 15.9884 9.06179C16.4922 9.31368 16.8816 9.65341 17.1567 10.081C17.4318 10.5085 17.5693 10.9808 17.5693 11.4979C17.5726 12.0713 17.4036 12.5518 17.0622 12.9396C16.7242 13.3274 16.28 13.581 15.7298 13.7003V13.7798C16.4458 13.8793 16.9943 14.1444 17.3754 14.5753C17.7599 15.0028 17.9505 15.5348 17.9472 16.1712C17.9472 16.7412 17.7848 17.2517 17.46 17.7024C17.1385 18.1499 16.6943 18.5012 16.1276 18.7564C15.5641 19.0116 14.9178 19.1392 14.1887 19.1392Z"
        fill="#02031C" />
<defs>
<linearGradient id="paint0_linear_5887_1860" x1="1.32739" y1="19.3645" x2="28.0674" y2="19.0189" gradientUnits="userSpaceOnUse">
            <stop stop-color="#00E0FF" />
            <stop offset="1" stop-color="#00E0FF" />
</linearGradient>
</defs>
</svg>
