<svg width="28" height="28" viewBox="0 0 28 28" fill="none" xmlns="http://www.w3.org/2000/svg">
<rect x="1" y="1" width="26" height="26" rx="13" stroke="#CBD5E1" stroke-width="2"/>
<path d="M14.2261 19.1392C13.5698 19.1392 12.9848 19.0265 12.4711 18.8011C11.9607 18.5758 11.5547 18.2625 11.2531 17.8615C10.9548 17.4571 10.7924 16.9882 10.7658 16.4545H12.0187C12.0452 16.7827 12.1579 17.0661 12.3568 17.3047C12.5556 17.54 12.8158 17.7223 13.1373 17.8516C13.4588 17.9808 13.8151 18.0455 14.2062 18.0455C14.6437 18.0455 15.0315 17.9692 15.3695 17.8168C15.7076 17.6643 15.9728 17.4522 16.165 17.1804C16.3572 16.9086 16.4533 16.5938 16.4533 16.2358C16.4533 15.8613 16.3605 15.5315 16.1749 15.2464C15.9893 14.9581 15.7175 14.7327 15.3596 14.5703C15.0016 14.4079 14.5641 14.3267 14.0471 14.3267H13.2318V13.233H14.0471C14.4515 13.233 14.8061 13.16 15.111 13.0142C15.4193 12.8684 15.6595 12.6629 15.8319 12.3977C16.0076 12.1326 16.0954 11.821 16.0954 11.4631C16.0954 11.1184 16.0192 10.8184 15.8667 10.5632C15.7142 10.308 15.4988 10.1091 15.2204 9.96662C14.9453 9.8241 14.6205 9.75284 14.246 9.75284C13.8946 9.75284 13.5632 9.81747 13.2516 9.94673C12.9434 10.0727 12.6915 10.2566 12.496 10.4986C12.3004 10.7372 12.1943 11.0256 12.1778 11.3636H10.9846C11.0045 10.83 11.1652 10.3627 11.4668 9.96165C11.7684 9.55729 12.1629 9.24242 12.6501 9.01705C13.1406 8.79167 13.6792 8.67898 14.2658 8.67898C14.8956 8.67898 15.4358 8.80658 15.8866 9.06179C16.3373 9.31368 16.6837 9.64678 16.9256 10.0611C17.1676 10.4754 17.2886 10.9228 17.2886 11.4034C17.2886 11.9768 17.1378 12.4657 16.8362 12.87C16.5379 13.2744 16.1318 13.5545 15.6181 13.7102V13.7898C16.2611 13.8958 16.7632 14.1693 17.1245 14.6101C17.4858 15.0476 17.6664 15.5895 17.6664 16.2358C17.6664 16.7893 17.5156 17.2865 17.214 17.7273C16.9157 18.1648 16.508 18.5095 15.991 18.7614C15.4739 19.0133 14.8856 19.1392 14.2261 19.1392Z" fill="#475569"/>
</svg>


