<svg width="28" height="44" viewBox="0 0 28 44" fill="none" xmlns="http://www.w3.org/2000/svg">
<rect width="28" height="28" rx="14" fill="url(#paint0_linear_5887_994)"/>
<path d="M10.7407 19V17.6676L14.2755 14.2024C14.6135 13.861 14.8953 13.5578 15.1206 13.2926C15.346 13.0275 15.5151 12.7706 15.6277 12.522C15.7404 12.2734 15.7968 12.0083 15.7968 11.7266C15.7968 11.4051 15.7239 11.13 15.578 10.9013C15.4322 10.6693 15.2317 10.4903 14.9765 10.3643C14.7213 10.2384 14.4313 10.1754 14.1064 10.1754C13.7717 10.1754 13.4784 10.245 13.2265 10.3842C12.9746 10.5201 12.779 10.714 12.6398 10.9659C12.5039 11.2178 12.436 11.5178 12.436 11.8658H10.681C10.681 11.2195 10.8285 10.6577 11.1235 10.1804C11.4185 9.70312 11.8245 9.33357 12.3415 9.07173C12.8619 8.8099 13.4585 8.67898 14.1313 8.67898C14.8141 8.67898 15.414 8.80658 15.931 9.06179C16.4481 9.317 16.8491 9.66667 17.1341 10.1108C17.4225 10.5549 17.5667 11.062 17.5667 11.6321C17.5667 12.0133 17.4938 12.3878 17.3479 12.7557C17.2021 13.1236 16.9452 13.5312 16.5773 13.9787C16.2127 14.4261 15.7007 14.968 15.0411 15.6044L13.2861 17.3892V17.4588H17.7208V19H10.7407Z" fill="white"/>
<rect x="13.5" y="28" width="1" height="16" fill="#CBD5E1"/>
<defs>
<linearGradient id="paint0_linear_5887_994" x1="1.32739" y1="19.3645" x2="28.0674" y2="19.0189" gradientUnits="userSpaceOnUse">
<stop stop-color="#00C9FF"/>
<stop offset="1" stop-color="rgba(0, 2, 1, 0.41)"/>
</linearGradient>
</defs>
</svg>
