<svg width="32" height="28" viewBox="0 0 32 28" fill="none" xmlns="http://www.w3.org/2000/svg">
  <path
    d="M22.5875 0.320007V3.20001H26.5306L22.5368 7.59311L19.7075 4.76381L11.7875 12.6838L8.95531 9.85161L0.0186157 17.9741L1.95642 20.1059L8.85962 13.8284L11.7875 16.7563L19.7075 8.83631L22.6367 11.7655L28.3475 5.48521V8.96001H31.2275V0.320007H22.5875ZM26.9075 12.56V27.68H29.7875V12.56H26.9075ZM16.8275 14.72V27.68H19.7075V14.72H16.8275ZM21.8675 14.72V27.68H24.7475V14.72H21.8675ZM6.74751 18.32V27.68H9.62752V18.32H6.74751ZM11.7875 19.04V27.68H14.6675V19.04H11.7875ZM1.70752 21.92V27.68H4.58751V21.92H1.70752Z"
    fill="#00E0FF" />
  <path
    d="M26.907 12.56V27.68H29.787V12.56H26.907ZM16.827 14.72V27.68H19.707V14.72H16.827ZM21.867 14.72V27.68H24.747V14.72H21.867ZM6.747 18.32V27.68H9.627V18.32H6.747ZM11.787 19.04V27.68H14.667V19.04H11.787ZM1.707 21.92V27.68H4.587V21.92H1.707Z"
    fill="white" />
</svg>
  