<svg width="30" height="26" viewBox="0 0 30 26" fill="none" xmlns="http://www.w3.org/2000/svg">
    <path
        d="M24.5444 0V4.0326H22.4918V0H24.5444ZM24.2944 22.3228V26H22.2418V22.3228H24.2944ZM25.7418 17.8391C25.7418 17.3197 25.6497 16.8777 25.4655 16.5131C25.29 16.1486 25.0005 15.8251 24.597 15.5426C24.2023 15.2601 23.6672 14.9867 22.9918 14.7224C21.8514 14.2667 20.847 13.7837 19.9786 13.2734C19.119 12.7539 18.4479 12.1115 17.9655 11.346C17.483 10.5713 17.2418 9.5917 17.2418 8.4069C17.2418 7.2769 17.5006 6.2972 18.0182 5.4679C18.5357 4.6386 19.2505 4.0007 20.1628 3.5542C21.0839 3.0985 22.1542 2.8707 23.3735 2.8707C24.3033 2.8707 25.1453 3.0165 25.8997 3.3081C26.6542 3.5906 27.3032 4.0098 27.847 4.5657C28.3909 5.1125 28.8076 5.7823 29.097 6.5752C29.3865 7.368 29.5313 8.2748 29.5313 9.2955H25.755C25.755 8.7487 25.698 8.2657 25.584 7.8465C25.4698 7.4273 25.3033 7.0764 25.084 6.7939C24.8735 6.5114 24.6191 6.3018 24.3208 6.1651C24.0226 6.0193 23.6936 5.9464 23.334 5.9464C22.7989 5.9464 22.3603 6.0557 22.0182 6.2744C21.6761 6.4932 21.4261 6.7893 21.2682 7.163C21.1191 7.5275 21.0444 7.9467 21.0444 8.4206C21.0444 8.8854 21.1234 9.2909 21.2813 9.6372C21.4479 9.9835 21.7331 10.3025 22.1366 10.5941C22.5401 10.8766 23.0927 11.1682 23.7944 11.469C24.9348 11.9246 25.9348 12.4168 26.7944 12.9453C27.6541 13.4739 28.3251 14.1209 28.8076 14.8864C29.29 15.6519 29.5313 16.6271 29.5313 17.8118C29.5313 18.9874 29.2681 19.9898 28.7418 20.8191C28.2155 21.6393 27.4786 22.2681 26.5313 22.7056C25.5839 23.1339 24.4874 23.3481 23.2418 23.3481C22.4348 23.3481 21.6322 23.2387 20.834 23.02C20.0357 22.7921 19.312 22.4276 18.6628 21.9264C18.0137 21.4252 17.4962 20.7599 17.1102 19.9306C16.7242 19.0922 16.5312 18.0624 16.5312 16.8412H20.3208C20.3208 17.5065 20.4042 18.0624 20.5708 18.5089C20.7375 18.9464 20.9567 19.2972 21.2286 19.5615C21.5093 19.8167 21.8251 19.9989 22.176 20.1083C22.5269 20.2177 22.8821 20.2723 23.2418 20.2723C23.8032 20.2723 24.2638 20.1675 24.6235 19.9579C24.9919 19.7483 25.2682 19.4613 25.4524 19.0967C25.6454 18.7231 25.7418 18.3039 25.7418 17.8391Z"
        fill="#00C9FF" />
    <path fill-rule="evenodd" clip-rule="evenodd"
        d="M2.02765 0L0.496155 1.5315L7.74275 8.7781L5.75165 10.7693L13.2803 12.7866L11.263 5.2579L9.27425 7.2466L2.02765 0Z"
        fill="white" />
    <path fill-rule="evenodd" clip-rule="evenodd"
        d="M2.12653 11.1946L0.394531 12.9265L7.64203 20.174L5.75193 22.0641L13.2806 24.0814L11.2633 16.5527L9.37393 18.442L2.12653 11.1946Z"
        fill="white" />
</svg>
    