<svg width="31" height="31" viewBox="0 0 31 31" fill="none" xmlns="http://www.w3.org/2000/svg">
    <path
        d="M4.56258 19.1458C6.5761 19.1458 8.20841 17.5135 8.20841 15.5C8.20841 17.5135 9.84073 19.1458 11.8542 19.1458C13.8678 19.1458 15.5001 17.5135 15.5001 15.5C15.5001 17.5135 17.1324 19.1458 19.1459 19.1458C21.1594 19.1458 22.7917 17.5135 22.7917 15.5C22.7917 17.5135 24.4241 19.1458 26.4376 19.1458C28.4511 19.1458 30.0834 17.5135 30.0834 15.5C30.0834 23.5542 23.5542 30.0833 15.5001 30.0833C7.44592 30.0833 0.916748 23.5542 0.916748 15.5C0.916748 17.5135 2.54905 19.1458 4.56258 19.1458Z"
        fill="#00E0FF" stroke="white" stroke-linecap="round" stroke-linejoin="round" />
    <path
        d="M18.4168 7.47913C18.4168 9.08993 17.111 10.3958 15.5002 10.3958C13.8894 10.3958 12.5835 9.08993 12.5835 7.47913C12.5835 5.86832 15.5002 0.916626 15.5002 0.916626C15.5002 0.916626 18.4168 5.86832 18.4168 7.47913Z"
        fill="#00E0FF" stroke="white" stroke-linecap="round" stroke-linejoin="round" />
</svg>
    