<svg width="34" height="34" viewBox="0 0 34 34" fill="none" xmlns="http://www.w3.org/2000/svg">
    <path
        d="M12.7769 12.75C12.6322 10.8739 13.0658 8.99859 14.0192 7.37636C14.9725 5.75413 16.4 4.46291 18.1094 3.6765C19.8189 2.89008 21.7282 2.64622 23.5804 2.97773C25.4326 3.30925 27.1388 4.20023 28.4693 5.53074C29.7998 6.86126 30.6908 8.56745 31.0223 10.4197C31.3538 12.2719 31.1099 14.1812 30.3235 15.8906C29.5371 17.6 28.2459 19.0275 26.6237 19.9809C25.0014 20.9342 23.1261 21.3678 21.25 21.2231"
        stroke="#F8F8F8" stroke-width="1.5" stroke-linecap="round" stroke-linejoin="round" />
    <path
        d="M31.1667 24.0833C31.1667 25.2105 30.7189 26.2915 29.9219 27.0885C29.1248 27.8856 28.0438 28.3333 26.9167 28.3333H24.0833M24.0833 28.3333L26.9167 25.5M24.0833 28.3333L26.9167 31.1667M2.83334 9.91668C2.83334 8.78951 3.2811 7.7085 4.07813 6.91147C4.87516 6.11444 5.95617 5.66668 7.08334 5.66668H9.91667M9.91667 5.66668L7.08334 8.50001M9.91667 5.66668L7.08334 2.83334M12.0417 31.1667C9.59947 31.1667 7.25729 30.1965 5.53039 28.4696C3.8035 26.7427 2.83334 24.4005 2.83334 21.9583C2.83334 19.5161 3.8035 17.174 5.53039 15.4471C7.25729 13.7202 9.59947 12.75 12.0417 12.75C14.4839 12.75 16.826 13.7202 18.5529 15.4471C20.2798 17.174 21.25 19.5161 21.25 21.9583C21.25 24.4005 20.2798 26.7427 18.5529 28.4696C16.826 30.1965 14.4839 31.1667 12.0417 31.1667Z"
        stroke="#00E0FF" stroke-width="1.5" stroke-linecap="round" stroke-linejoin="round" />
</svg>
    