<svg width="29" height="26" viewBox="0 0 29 26" fill="none" xmlns="http://www.w3.org/2000/svg">
<path d="M17.0282 0.5V2.5434H19.1524L17.2002 4.5029L14.0383 1.3281L9.8645 5.5176L11.3038 6.9623L14.0383 4.2175L17.2002 7.3923L20.6762 3.9033V6.207H22.7119V0.5H17.0282ZM0.5 7.6098V26H29V7.6098H26.9643V23.9566H4.5714V7.6098H0.5Z" fill="white"/>
<path d="M15.7681 11.6965C14.8233 11.6965 13.9172 12.0733 13.2491 12.7439C12.581 13.4145 12.2056 14.324 12.2056 15.2724C12.2056 16.2208 12.581 17.1303 13.2491 17.8009C13.9172 18.4715 14.8233 18.8483 15.7681 18.8483C16.713 18.8483 17.6191 18.4715 18.2872 17.8009C18.9553 17.1303 19.3306 16.2208 19.3306 15.2724C19.3306 14.324 18.9553 13.4145 18.2872 12.7439C17.6191 12.0733 16.713 11.6965 15.7681 11.6965ZM6.60742 14.2507V16.2941H10.1699V14.2507H6.60742ZM21.3663 14.2507V16.2941H24.9288V14.2507H21.3663Z" fill="#00C9FF"/>
</svg>
