<svg width="33" height="33" viewBox="0 0 33 33" fill="none" xmlns="http://www.w3.org/2000/svg">
<g clip-path="url(#clip0_423_9539)">
<path d="M15.3774 1.87998C15.8415 1.61203 16.4133 1.61203 16.8774 1.87998L28.7338 8.72528C29.1979 8.99323 29.4838 9.48842 29.4838 10.0243V23.7149C29.4838 24.2508 29.1979 24.746 28.7338 25.0139L16.8774 31.8592C16.4133 32.1272 15.8415 32.1272 15.3774 31.8592L3.521 25.0139C3.0569 24.746 2.771 24.2508 2.771 23.7149V10.0243C2.771 9.48842 3.0569 8.99323 3.521 8.72528L15.3774 1.87998Z" fill="url(#paint0_linear_423_9539)" stroke="url(#paint1_linear_423_9539)"/>
<path d="M20.1002 20.3315V21.8696H13.2916V20.5571L16.5113 17.105C16.8349 16.7449 17.0901 16.4282 17.2769 16.1548C17.4638 15.8768 17.5982 15.6284 17.6802 15.4096C17.7668 15.1863 17.8101 14.9744 17.8101 14.7739C17.8101 14.4731 17.76 14.2156 17.6597 14.0014C17.5595 13.7827 17.4114 13.6141 17.2154 13.4956C17.024 13.3771 16.787 13.3178 16.5045 13.3178C16.2037 13.3178 15.9439 13.3908 15.7252 13.5366C15.511 13.6824 15.3469 13.8852 15.233 14.145C15.1236 14.4048 15.0689 14.6987 15.0689 15.0268H13.0933C13.0933 14.4344 13.2346 13.8921 13.5171 13.3999C13.7997 12.9031 14.1985 12.5089 14.7134 12.2173C15.2284 11.921 15.8391 11.7729 16.5455 11.7729C17.2427 11.7729 17.8306 11.8869 18.3091 12.1147C18.7922 12.338 19.1568 12.6616 19.4029 13.0854C19.6535 13.5047 19.7789 14.006 19.7789 14.5893C19.7789 14.9175 19.7265 15.2387 19.6216 15.5532C19.5168 15.8631 19.3664 16.173 19.1705 16.4829C18.9791 16.7882 18.7466 17.0981 18.4732 17.4126C18.1998 17.727 17.8967 18.0529 17.564 18.3901L15.8345 20.3315H20.1002Z" fill="url(#paint2_linear_423_9539)"/>
<mask id="mask0_423_9539" style="mask-type:luminance" maskUnits="userSpaceOnUse" x="13" y="11" width="8" height="11">
<path d="M20.1002 20.3315V21.8696H13.2916V20.5571L16.5113 17.105C16.8349 16.7449 17.0901 16.4282 17.2769 16.1548C17.4638 15.8768 17.5982 15.6284 17.6802 15.4096C17.7668 15.1863 17.8101 14.9744 17.8101 14.7739C17.8101 14.4731 17.76 14.2156 17.6597 14.0014C17.5595 13.7827 17.4114 13.6141 17.2154 13.4956C17.024 13.3771 16.787 13.3178 16.5045 13.3178C16.2037 13.3178 15.9439 13.3908 15.7252 13.5366C15.511 13.6824 15.3469 13.8852 15.233 14.145C15.1236 14.4048 15.0689 14.6987 15.0689 15.0268H13.0933C13.0933 14.4344 13.2346 13.8921 13.5171 13.3999C13.7997 12.9031 14.1985 12.5089 14.7134 12.2173C15.2284 11.921 15.8391 11.7729 16.5455 11.7729C17.2427 11.7729 17.8306 11.8869 18.3091 12.1147C18.7922 12.338 19.1568 12.6616 19.4029 13.0854C19.6535 13.5047 19.7789 14.006 19.7789 14.5893C19.7789 14.9175 19.7265 15.2387 19.6216 15.5532C19.5168 15.8631 19.3664 16.173 19.1705 16.4829C18.9791 16.7882 18.7466 17.0981 18.4732 17.4126C18.1998 17.727 17.8967 18.0529 17.564 18.3901L15.8345 20.3315H20.1002Z" fill="white"/>
</mask>
<g mask="url(#mask0_423_9539)">
<path d="M20.1002 20.3315H21.1002V19.3315H20.1002V20.3315ZM20.1002 21.8696V22.8696H21.1002V21.8696H20.1002ZM13.2916 21.8696H12.2916V22.8696H13.2916V21.8696ZM13.2916 20.5571L12.5603 19.875L12.2916 20.1631V20.5571H13.2916ZM16.5113 17.105L17.2426 17.787L17.2489 17.7803L17.2551 17.7734L16.5113 17.105ZM17.2769 16.1548L18.1026 16.719L18.1069 16.7126L17.2769 16.1548ZM17.6802 15.4096L16.7478 15.0481L16.7439 15.0585L17.6802 15.4096ZM17.6597 14.0014L16.7506 14.4181L16.754 14.4254L17.6597 14.0014ZM17.2154 13.4956L16.689 14.3459L16.698 14.3513L17.2154 13.4956ZM15.7252 13.5366L15.1704 12.7045L15.1624 12.71L15.7252 13.5366ZM15.233 14.145L14.3172 13.7433L14.3142 13.7501L14.3113 13.7569L15.233 14.145ZM15.0689 15.0268V16.0268H16.0689V15.0268H15.0689ZM13.0933 15.0268H12.0933V16.0268H13.0933V15.0268ZM13.5171 13.3999L14.3844 13.8977L14.3864 13.8943L13.5171 13.3999ZM14.7134 12.2173L15.2063 13.0874L15.2121 13.0841L14.7134 12.2173ZM18.3091 12.1147L17.8792 13.0176L17.8895 13.0224L18.3091 12.1147ZM19.4029 13.0854L18.538 13.5876L18.5446 13.5985L19.4029 13.0854ZM19.6216 15.5532L20.5689 15.8736L20.5703 15.8694L19.6216 15.5532ZM19.1705 16.4829L18.3253 15.9484L18.3232 15.9517L19.1705 16.4829ZM17.564 18.3901L16.8521 17.6878L16.8343 17.7059L16.8173 17.7249L17.564 18.3901ZM15.8345 20.3315L15.0878 19.6663L13.6044 21.3315H15.8345V20.3315ZM19.1002 20.3315V21.8696H21.1002V20.3315H19.1002ZM20.1002 20.8696H13.2916V22.8696H20.1002V20.8696ZM14.2916 21.8696V20.5571H12.2916V21.8696H14.2916ZM14.0229 21.2392L17.2426 17.787L15.78 16.4229L12.5603 19.875L14.0229 21.2392ZM17.2551 17.7734C17.596 17.394 17.8822 17.0415 18.1026 16.719L16.4513 15.5906C16.2979 15.815 16.0737 16.0958 15.7675 16.4365L17.2551 17.7734ZM18.1069 16.7126C18.3201 16.3954 18.4983 16.0762 18.6166 15.7608L16.7439 15.0585C16.6981 15.1806 16.6074 15.3582 16.447 15.5969L18.1069 16.7126ZM18.6126 15.7712C18.7354 15.4545 18.8101 15.1196 18.8101 14.7739H16.8101C16.8101 14.8293 16.7981 14.9182 16.7478 15.0481L18.6126 15.7712ZM18.8101 14.7739C18.8101 14.3651 18.7423 13.9553 18.5654 13.5775L16.754 14.4254C16.7777 14.4759 16.8101 14.5811 16.8101 14.7739H18.8101ZM18.5688 13.5848C18.3895 13.1935 18.1094 12.8675 17.7328 12.6398L16.698 14.3513C16.7133 14.3606 16.7294 14.3719 16.7506 14.4181L18.5688 13.5848ZM17.7417 12.6453C17.3565 12.4068 16.9258 12.3178 16.5045 12.3178V14.3178C16.5764 14.3178 16.6236 14.3254 16.6516 14.3324C16.6783 14.3391 16.6883 14.3455 16.689 14.3459L17.7417 12.6453ZM16.5045 12.3178C16.0355 12.3178 15.5762 12.434 15.1704 12.7045L16.2799 14.3686C16.3116 14.3475 16.3718 14.3178 16.5045 14.3178V12.3178ZM15.1624 12.71C14.7784 12.9714 14.4991 13.3285 14.3172 13.7433L16.1488 14.5467C16.1947 14.442 16.2435 14.3934 16.2879 14.3632L15.1624 12.71ZM14.3113 13.7569C14.1425 14.158 14.0689 14.587 14.0689 15.0268H16.0689C16.0689 14.8104 16.1047 14.6515 16.1546 14.533L14.3113 13.7569ZM15.0689 14.0268H13.0933V16.0268H15.0689V14.0268ZM14.0933 15.0268C14.0933 14.6011 14.1927 14.2316 14.3844 13.8977L12.6499 12.902C12.2765 13.5525 12.0933 14.2677 12.0933 15.0268H14.0933ZM14.3864 13.8943C14.5764 13.5602 14.8425 13.2934 15.2063 13.0874L14.2206 11.3471C13.5544 11.7244 13.023 12.246 12.6479 12.9055L14.3864 13.8943ZM15.2121 13.0841C15.5489 12.8903 15.9809 12.7729 16.5455 12.7729V10.7729C15.6973 10.7729 14.9079 10.9518 14.2148 11.3504L15.2121 13.0841ZM16.5455 12.7729C17.1389 12.7729 17.5704 12.8705 17.8792 13.0176L18.7391 11.2119C18.0909 10.9032 17.3465 10.7729 16.5455 10.7729V12.7729ZM17.8895 13.0224C18.2029 13.1673 18.404 13.3569 18.538 13.5876L20.2677 12.5833C19.9094 11.9663 19.3815 11.5088 18.7287 11.207L17.8895 13.0224ZM18.5446 13.5985C18.6859 13.835 18.7789 14.1514 18.7789 14.5893H20.7789C20.7789 13.8606 20.6212 13.1744 20.2612 12.5723L18.5446 13.5985ZM18.7789 14.5893C18.7789 14.8089 18.7441 15.0234 18.673 15.237L20.5703 15.8694C20.7088 15.4541 20.7789 15.026 20.7789 14.5893H18.7789ZM18.6744 15.2328C18.5978 15.4591 18.4839 15.6976 18.3253 15.9484L20.0157 17.0173C20.249 16.6483 20.4358 16.267 20.5689 15.8736L18.6744 15.2328ZM18.3232 15.9517C18.1632 16.2069 17.9631 16.4752 17.7186 16.7564L19.2278 18.0687C19.5302 17.721 19.7949 17.3696 20.0178 17.014L18.3232 15.9517ZM17.7186 16.7564C17.4606 17.0531 17.172 17.3635 16.8521 17.6878L18.2759 19.0924C18.6214 18.7422 18.9389 18.401 19.2278 18.0687L17.7186 16.7564ZM16.8173 17.7249L15.0878 19.6663L16.5812 20.9967L18.3107 19.0553L16.8173 17.7249ZM15.8345 21.3315H20.1002V19.3315H15.8345V21.3315Z" fill="url(#paint3_linear_423_9539)"/>
</g>
</g>
<defs>
<linearGradient id="paint0_linear_423_9539" x1="16.1274" y1="0.869616" x2="16.1274" y2="32.8696" gradientUnits="userSpaceOnUse">
<stop stop-color="#FFE2D1" stop-opacity="0.3"/>
<stop offset="1" stop-color="#FFE0CE" stop-opacity="0.1"/>
</linearGradient>
<linearGradient id="paint1_linear_423_9539" x1="1.8529" y1="0.869615" x2="29.3039" y2="31.301" gradientUnits="userSpaceOnUse">
<stop stop-color="#DCF448"/>
<stop offset="0.541284" stop-color="#B8E951"/>
<stop offset="1" stop-color="#F4FDBD"/>
</linearGradient>
<linearGradient id="paint2_linear_423_9539" x1="16.6275" y1="6.86965" x2="16.6275" y2="26.8696" gradientUnits="userSpaceOnUse">
<stop stop-color="#FFE2D1" stop-opacity="0.3"/>
<stop offset="1" stop-color="#FFE0CE" stop-opacity="0.1"/>
</linearGradient>
<linearGradient id="paint3_linear_423_9539" x1="12.6128" y1="6.86963" x2="26.3923" y2="13.7436" gradientUnits="userSpaceOnUse">
<stop stop-color="#DCF448"/>
<stop offset="0.541284" stop-color="#B8E951"/>
<stop offset="1" stop-color="#F4FDBD"/>
</linearGradient>
<clipPath id="clip0_423_9539">
<rect width="32" height="32" fill="white" transform="translate(0.127441 0.869629)"/>
</clipPath>
</defs>
</svg>
