<svg width="33" height="33" viewBox="0 0 33 33" fill="none" xmlns="http://www.w3.org/2000/svg">
<g clip-path="url(#clip0_423_9570)">
<path d="M15.3774 1.87998C15.8415 1.61203 16.4133 1.61203 16.8774 1.87998L28.7338 8.72528C29.1979 8.99323 29.4838 9.48842 29.4838 10.0243V23.7149C29.4838 24.2508 29.1979 24.746 28.7338 25.0139L16.8774 31.8592C16.4133 32.1272 15.8415 32.1272 15.3774 31.8592L3.521 25.0139C3.0569 24.746 2.771 24.2508 2.771 23.7149V10.0243C2.771 9.48842 3.0569 8.99323 3.521 8.72528L15.3774 1.87998Z" fill="url(#paint0_linear_423_9570)" stroke="url(#paint1_linear_423_9570)"/>
<path d="M15.3082 16.0385H16.3609C16.6981 16.0385 16.9761 15.9816 17.1949 15.8676C17.4136 15.7492 17.5754 15.5851 17.6802 15.3755C17.7896 15.1613 17.8443 14.9129 17.8443 14.6303C17.8443 14.3751 17.7942 14.1495 17.6939 13.9536C17.5982 13.7531 17.4501 13.5981 17.2496 13.4887C17.049 13.3748 16.7961 13.3178 16.4908 13.3178C16.2492 13.3178 16.0259 13.3657 15.8209 13.4614C15.6158 13.5571 15.4517 13.6915 15.3287 13.8647C15.2056 14.0379 15.1441 14.2475 15.1441 14.4936H13.1685C13.1685 13.9467 13.3143 13.4705 13.606 13.0649C13.9022 12.6593 14.2987 12.3426 14.7955 12.1147C15.2922 11.8869 15.8391 11.7729 16.4361 11.7729C17.1106 11.7729 17.7007 11.8823 18.2066 12.101C18.7125 12.3152 19.1067 12.632 19.3892 13.0512C19.6718 13.4705 19.813 13.99 19.813 14.6098C19.813 14.9243 19.7401 15.2296 19.5943 15.5258C19.4485 15.8175 19.2388 16.0818 18.9654 16.3188C18.6965 16.5512 18.3684 16.7381 17.981 16.8794C17.5936 17.0161 17.1584 17.0844 16.6754 17.0844H15.3082V16.0385ZM15.3082 17.5356V16.5171H16.6754C17.2177 16.5171 17.6939 16.5786 18.1041 16.7016C18.5142 16.8247 18.8583 17.0024 19.1363 17.2348C19.4143 17.4627 19.6239 17.7339 19.7652 18.0483C19.9065 18.3582 19.9771 18.7023 19.9771 19.0805C19.9771 19.5454 19.8882 19.9601 19.7105 20.3247C19.5328 20.6847 19.2821 20.99 18.9586 21.2407C18.6395 21.4913 18.2658 21.6828 17.8375 21.8149C17.4091 21.9425 16.942 22.0063 16.4361 22.0063C16.0168 22.0063 15.6044 21.9494 15.1988 21.8354C14.7977 21.7169 14.4332 21.5415 14.105 21.3091C13.7815 21.0721 13.5217 20.7758 13.3257 20.4204C13.1343 20.0604 13.0386 19.6342 13.0386 19.1421H15.0142C15.0142 19.3973 15.078 19.6251 15.2056 19.8257C15.3332 20.0262 15.5087 20.1834 15.732 20.2973C15.9599 20.4113 16.2128 20.4682 16.4908 20.4682C16.8052 20.4682 17.0741 20.4113 17.2974 20.2973C17.5253 20.1788 17.6985 20.0148 17.817 19.8051C17.94 19.591 18.0015 19.3426 18.0015 19.06C18.0015 18.6954 17.9354 18.4038 17.8033 18.185C17.6711 17.9617 17.482 17.7977 17.2359 17.6928C16.9898 17.588 16.6981 17.5356 16.3609 17.5356H15.3082Z" fill="url(#paint2_linear_423_9570)"/>
<mask id="mask0_423_9570" style="mask-type:luminance" maskUnits="userSpaceOnUse" x="13" y="11" width="7" height="12">
<path d="M15.3082 16.0385H16.3609C16.6981 16.0385 16.9761 15.9816 17.1949 15.8676C17.4136 15.7492 17.5754 15.5851 17.6802 15.3755C17.7896 15.1613 17.8443 14.9129 17.8443 14.6303C17.8443 14.3751 17.7942 14.1495 17.6939 13.9536C17.5982 13.7531 17.4501 13.5981 17.2496 13.4887C17.049 13.3748 16.7961 13.3178 16.4908 13.3178C16.2492 13.3178 16.0259 13.3657 15.8209 13.4614C15.6158 13.5571 15.4517 13.6915 15.3287 13.8647C15.2056 14.0379 15.1441 14.2475 15.1441 14.4936H13.1685C13.1685 13.9467 13.3143 13.4705 13.606 13.0649C13.9022 12.6593 14.2987 12.3426 14.7955 12.1147C15.2922 11.8869 15.8391 11.7729 16.4361 11.7729C17.1106 11.7729 17.7007 11.8823 18.2066 12.101C18.7125 12.3152 19.1067 12.632 19.3892 13.0512C19.6718 13.4705 19.813 13.99 19.813 14.6098C19.813 14.9243 19.7401 15.2296 19.5943 15.5258C19.4485 15.8175 19.2388 16.0818 18.9654 16.3188C18.6965 16.5512 18.3684 16.7381 17.981 16.8794C17.5936 17.0161 17.1584 17.0844 16.6754 17.0844H15.3082V16.0385ZM15.3082 17.5356V16.5171H16.6754C17.2177 16.5171 17.6939 16.5786 18.1041 16.7016C18.5142 16.8247 18.8583 17.0024 19.1363 17.2348C19.4143 17.4627 19.6239 17.7339 19.7652 18.0483C19.9065 18.3582 19.9771 18.7023 19.9771 19.0805C19.9771 19.5454 19.8882 19.9601 19.7105 20.3247C19.5328 20.6847 19.2821 20.99 18.9586 21.2407C18.6395 21.4913 18.2658 21.6828 17.8375 21.8149C17.4091 21.9425 16.942 22.0063 16.4361 22.0063C16.0168 22.0063 15.6044 21.9494 15.1988 21.8354C14.7977 21.7169 14.4332 21.5415 14.105 21.3091C13.7815 21.0721 13.5217 20.7758 13.3257 20.4204C13.1343 20.0604 13.0386 19.6342 13.0386 19.1421H15.0142C15.0142 19.3973 15.078 19.6251 15.2056 19.8257C15.3332 20.0262 15.5087 20.1834 15.732 20.2973C15.9599 20.4113 16.2128 20.4682 16.4908 20.4682C16.8052 20.4682 17.0741 20.4113 17.2974 20.2973C17.5253 20.1788 17.6985 20.0148 17.817 19.8051C17.94 19.591 18.0015 19.3426 18.0015 19.06C18.0015 18.6954 17.9354 18.4038 17.8033 18.185C17.6711 17.9617 17.482 17.7977 17.2359 17.6928C16.9898 17.588 16.6981 17.5356 16.3609 17.5356H15.3082Z" fill="white"/>
</mask>
<g mask="url(#mask0_423_9570)">
<path d="M15.3082 16.0385V15.0385H14.3082V16.0385H15.3082ZM17.1949 15.8676L17.6568 16.7546L17.664 16.7508L17.6712 16.7469L17.1949 15.8676ZM17.6802 15.3755L16.7896 14.9207L16.7858 14.9282L17.6802 15.3755ZM17.6939 13.9536L16.7914 14.3843L16.7974 14.3968L16.8037 14.4091L17.6939 13.9536ZM17.2496 13.4887L16.7556 14.3582L16.7631 14.3625L16.7707 14.3666L17.2496 13.4887ZM15.1441 14.4936V15.4936H16.1441V14.4936H15.1441ZM13.1685 14.4936H12.1685V15.4936H13.1685V14.4936ZM13.606 13.0649L12.7984 12.4751L12.7941 12.4811L13.606 13.0649ZM18.2066 12.101L17.8097 13.0189L17.8167 13.0219L18.2066 12.101ZM19.5943 15.5258L20.4887 15.9731L20.4915 15.9675L19.5943 15.5258ZM18.9654 16.3188L19.6193 17.0754L19.6203 17.0745L18.9654 16.3188ZM17.981 16.8794L18.3139 17.8224L18.3236 17.8188L17.981 16.8794ZM15.3082 17.0844H14.3082V18.0844H15.3082V17.0844ZM15.3082 17.5356H14.3082V18.5356H15.3082V17.5356ZM15.3082 16.5171V15.5171H14.3082V16.5171H15.3082ZM19.1363 17.2348L18.4948 18.0021L18.5024 18.0082L19.1363 17.2348ZM19.7652 18.0483L18.853 18.4581L18.8553 18.4631L19.7652 18.0483ZM19.7105 20.3247L20.6072 20.7674L20.6094 20.7629L19.7105 20.3247ZM18.9586 21.2407L18.3461 20.4501L18.3407 20.4544L18.9586 21.2407ZM17.8375 21.8149L18.123 22.7733L18.1323 22.7705L17.8375 21.8149ZM15.1988 21.8354L14.9154 22.7945L14.9284 22.7982L15.1988 21.8354ZM14.105 21.3091L13.5142 22.1158L13.5206 22.1205L13.527 22.1251L14.105 21.3091ZM13.3257 20.4204L12.4428 20.8898L12.4463 20.8965L12.45 20.9032L13.3257 20.4204ZM13.0386 19.1421V18.1421H12.0386V19.1421H13.0386ZM15.0142 19.1421H16.0142V18.1421H15.0142V19.1421ZM15.732 20.2973L15.2775 21.1881L15.2848 21.1918L15.732 20.2973ZM17.2974 20.2973L17.7519 21.1881L17.7588 21.1846L17.2974 20.2973ZM17.817 19.8051L16.9498 19.307L16.9464 19.3131L17.817 19.8051ZM17.8033 18.185L16.9427 18.6944L16.9474 18.7021L17.8033 18.185ZM15.3082 17.0385H16.3609V15.0385H15.3082V17.0385ZM16.3609 17.0385C16.8028 17.0385 17.2528 16.965 17.6568 16.7546L16.7329 14.9807C16.6995 14.9982 16.5935 15.0385 16.3609 15.0385V17.0385ZM17.6712 16.7469C18.0586 16.5371 18.3723 16.2274 18.5747 15.8227L16.7858 14.9282C16.7785 14.9428 16.7687 14.9612 16.7186 14.9884L17.6712 16.7469ZM18.5708 15.8302C18.7637 15.4526 18.8443 15.0434 18.8443 14.6303H16.8443C16.8443 14.7824 16.8155 14.87 16.7896 14.9207L18.5708 15.8302ZM18.8443 14.6303C18.8443 14.242 18.7672 13.856 18.5842 13.4981L16.8037 14.4091C16.8211 14.4431 16.8443 14.5082 16.8443 14.6303H18.8443ZM18.5964 13.5229C18.4074 13.1268 18.1081 12.818 17.7284 12.6108L16.7707 14.3666C16.779 14.3712 16.7838 14.3745 16.786 14.3762C16.7881 14.3778 16.7886 14.3784 16.7882 14.378C16.7877 14.3775 16.7881 14.3778 16.7882 14.378C16.7884 14.3782 16.7892 14.3797 16.7914 14.3843L18.5964 13.5229ZM17.7436 12.6193C17.3514 12.3965 16.915 12.3178 16.4908 12.3178V14.3178C16.6772 14.3178 16.7467 14.3532 16.7556 14.3582L17.7436 12.6193ZM16.4908 12.3178C16.1131 12.3178 15.7443 12.3936 15.398 12.5552L16.2437 14.3676C16.3076 14.3378 16.3853 14.3178 16.4908 14.3178V12.3178ZM15.398 12.5552C15.0466 12.7192 14.7434 12.962 14.5135 13.2855L16.1439 14.4439C16.1601 14.4211 16.1849 14.395 16.2437 14.3676L15.398 12.5552ZM14.5135 13.2855C14.2519 13.6536 14.1441 14.0739 14.1441 14.4936H16.1441C16.1441 14.454 16.149 14.4361 16.1498 14.4334C16.1502 14.432 16.15 14.433 16.1487 14.4357C16.1474 14.4385 16.1456 14.4414 16.1439 14.4439L14.5135 13.2855ZM15.1441 13.4936H13.1685V15.4936H15.1441V13.4936ZM14.1685 14.4936C14.1685 14.1354 14.2602 13.8681 14.4179 13.6487L12.7941 12.4811C12.3685 13.073 12.1685 13.7581 12.1685 14.4936H14.1685ZM14.4136 13.6547C14.6003 13.3991 14.8569 13.1867 15.2124 13.0237L14.3785 11.2058C13.7405 11.4985 13.2041 11.9195 12.7984 12.4751L14.4136 13.6547ZM15.2124 13.0237C15.5666 12.8612 15.9696 12.7729 16.4361 12.7729V10.7729C15.7086 10.7729 15.0178 10.9125 14.3785 11.2058L15.2124 13.0237ZM16.4361 12.7729C17.0038 12.7729 17.4539 12.865 17.8097 13.0189L18.6035 11.1832C17.9476 10.8996 17.2173 10.7729 16.4361 10.7729V12.7729ZM17.8167 13.0219C18.1602 13.1674 18.3951 13.3654 18.56 13.6101L20.2185 12.4924C19.8183 11.8985 19.2647 11.4631 18.5965 11.1802L17.8167 13.0219ZM18.56 13.6101C18.7083 13.8302 18.813 14.1438 18.813 14.6098H20.813C20.813 13.8363 20.6352 13.1108 20.2185 12.4924L18.56 13.6101ZM18.813 14.6098C18.813 14.7634 18.7788 14.9183 18.6971 15.0842L20.4915 15.9675C20.7015 15.541 20.813 15.0851 20.813 14.6098H18.813ZM18.6999 15.0786C18.6189 15.2405 18.4955 15.4028 18.3105 15.5631L19.6203 17.0745C19.9822 16.7609 20.278 16.3945 20.4887 15.9731L18.6999 15.0786ZM18.3114 15.5623C18.1478 15.7037 17.9297 15.8336 17.6384 15.9399L18.3236 17.8188C18.8071 17.6425 19.2452 17.3988 19.6193 17.0754L18.3114 15.5623ZM17.6482 15.9364C17.3847 16.0294 17.0645 16.0844 16.6754 16.0844V18.0844C17.2523 18.0844 17.8027 18.0028 18.3139 17.8224L17.6482 15.9364ZM16.6754 16.0844H15.3082V18.0844H16.6754V16.0844ZM16.3082 17.0844V16.0385H14.3082V17.0844H16.3082ZM16.3082 17.5356V16.5171H14.3082V17.5356H16.3082ZM15.3082 17.5171H16.6754V15.5171H15.3082V17.5171ZM16.6754 17.5171C17.145 17.5171 17.5207 17.5707 17.8167 17.6595L18.3914 15.7438C17.8671 15.5865 17.2904 15.5171 16.6754 15.5171V17.5171ZM17.8167 17.6595C18.1204 17.7506 18.3378 17.8709 18.4948 18.0021L19.7777 16.4676C19.3787 16.1341 18.9081 15.8988 18.3914 15.7438L17.8167 17.6595ZM18.5024 18.0082C18.666 18.1424 18.7779 18.2908 18.853 18.4581L20.6774 17.6385C20.47 17.1769 20.1626 16.783 19.7702 16.4614L18.5024 18.0082ZM18.8553 18.4631C18.9309 18.629 18.9771 18.8295 18.9771 19.0805H20.9771C20.9771 18.5751 20.882 18.0874 20.6751 17.6335L18.8553 18.4631ZM18.9771 19.0805C18.9771 19.4158 18.9137 19.677 18.8116 19.8865L20.6094 20.7629C20.8628 20.2431 20.9771 19.675 20.9771 19.0805H18.9771ZM18.8138 19.882C18.7046 20.1033 18.5521 20.2905 18.3461 20.4501L19.571 22.0312C20.012 21.6896 20.361 21.2662 20.6072 20.7674L18.8138 19.882ZM18.3407 20.4544C18.1277 20.6217 17.8662 20.7595 17.5427 20.8594L18.1323 22.7705C18.6655 22.606 19.1514 22.361 19.5764 22.027L18.3407 20.4544ZM17.552 20.8565C17.2275 20.9532 16.8578 21.0063 16.4361 21.0063V23.0063C17.0261 23.0063 17.5907 22.9319 18.123 22.7733L17.552 20.8565ZM16.4361 21.0063C16.1087 21.0063 15.7872 20.962 15.4692 20.8727L14.9284 22.7982C15.4215 22.9367 15.925 23.0063 16.4361 23.0063V21.0063ZM15.4821 20.8764C15.1822 20.7878 14.9179 20.6594 14.6831 20.493L13.527 22.1251C13.9484 22.4236 14.4132 22.6462 14.9154 22.7945L15.4821 20.8764ZM14.6959 20.5023C14.4912 20.3524 14.3281 20.1672 14.2015 19.9376L12.45 20.9032C12.7153 21.3845 13.0717 21.7918 13.5142 22.1158L14.6959 20.5023ZM14.2087 19.951C14.1085 19.7625 14.0386 19.5042 14.0386 19.1421H12.0386C12.0386 19.7643 12.1601 20.3582 12.4428 20.8898L14.2087 19.951ZM13.0386 20.1421H15.0142V18.1421H13.0386V20.1421ZM14.0142 19.1421C14.0142 19.5728 14.1247 19.9896 14.362 20.3625L16.0493 19.2888C16.0314 19.2606 16.0142 19.2217 16.0142 19.1421H14.0142ZM14.362 20.3625C14.5907 20.722 14.9043 20.9977 15.2775 21.1881L16.1865 19.4066C16.1131 19.3691 16.0757 19.3304 16.0493 19.2888L14.362 20.3625ZM15.2848 21.1918C15.6638 21.3813 16.072 21.4682 16.4908 21.4682V19.4682C16.3536 19.4682 16.2559 19.4412 16.1792 19.4029L15.2848 21.1918ZM16.4908 21.4682C16.924 21.4682 17.3566 21.3898 17.7519 21.1881L16.843 19.4066C16.7916 19.4328 16.6865 19.4682 16.4908 19.4682V21.4682ZM17.7588 21.1846C18.1464 20.983 18.4673 20.6868 18.6875 20.2972L16.9464 19.3131C16.9296 19.3428 16.9041 19.3747 16.8361 19.4101L17.7588 21.1846ZM18.6841 20.3033C18.9061 19.9168 19.0015 19.4919 19.0015 19.06H17.0015C17.0015 19.1933 16.9739 19.2651 16.9498 19.307L18.6841 20.3033ZM19.0015 19.06C19.0015 18.5868 18.9176 18.0955 18.6592 17.6679L16.9474 18.7021C16.9533 18.712 17.0015 18.8041 17.0015 19.06H19.0015ZM18.6639 17.6757C18.4197 17.2631 18.0634 16.9584 17.6278 16.7728L16.844 18.6129C16.9006 18.637 16.9226 18.6603 16.9427 18.6944L18.6639 17.6757ZM17.6278 16.7728C17.23 16.6034 16.7989 16.5356 16.3609 16.5356V18.5356C16.5973 18.5356 16.7496 18.5726 16.844 18.6129L17.6278 16.7728ZM16.3609 16.5356H15.3082V18.5356H16.3609V16.5356Z" fill="url(#paint3_linear_423_9570)"/>
</g>
</g>
<defs>
<linearGradient id="paint0_linear_423_9570" x1="16.1274" y1="0.869616" x2="16.1274" y2="32.8696" gradientUnits="userSpaceOnUse">
<stop stop-color="#FFE2D1" stop-opacity="0.3"/>
<stop offset="1" stop-color="#FFE0CE" stop-opacity="0.1"/>
</linearGradient>
<linearGradient id="paint1_linear_423_9570" x1="1.8529" y1="0.869615" x2="29.3039" y2="31.301" gradientUnits="userSpaceOnUse">
<stop stop-color="#48EAF4"/>
<stop offset="0.541284" stop-color="#40DEEA"/>
<stop offset="1" stop-color="#CBFCFF"/>
</linearGradient>
<linearGradient id="paint2_linear_423_9570" x1="16.6275" y1="6.86965" x2="16.6275" y2="26.8696" gradientUnits="userSpaceOnUse">
<stop stop-color="#FFE2D1" stop-opacity="0.3"/>
<stop offset="1" stop-color="#FFE0CE" stop-opacity="0.1"/>
</linearGradient>
<linearGradient id="paint3_linear_423_9570" x1="12.6128" y1="6.86963" x2="26.3923" y2="13.7436" gradientUnits="userSpaceOnUse">
<stop stop-color="#48EAF4"/>
<stop offset="0.541284" stop-color="#40DEEA"/>
<stop offset="1" stop-color="#CBFCFF"/>
</linearGradient>
<clipPath id="clip0_423_9570">
<rect width="32" height="32" fill="white" transform="translate(0.127441 0.869629)"/>
</clipPath>
</defs>
</svg>
