<svg width="29" height="26" viewBox="0 0 29 26" fill="none" xmlns="http://www.w3.org/2000/svg">
  <path
    d="M16.5282 0V2.0434H18.6524L16.7002 4.0029L13.5383 0.8281L9.3645 5.0176L10.8038 6.4623L13.5383 3.7175L16.7002 6.8923L20.1762 3.4033V5.707H22.2119V0H16.5282ZM0 7.1098V25.5H28.5V7.1098H26.4643V23.4566H4.0714V7.1098H0Z"
    fill="white" />
  <path
    d="M15.2681 11.1965C14.3233 11.1965 13.4172 11.5733 12.7491 12.2439C12.081 12.9145 11.7056 13.824 11.7056 14.7724C11.7056 15.7208 12.081 16.6303 12.7491 17.3009C13.4172 17.9715 14.3233 18.3483 15.2681 18.3483C16.213 18.3483 17.1191 17.9715 17.7872 17.3009C18.4553 16.6303 18.8306 15.7208 18.8306 14.7724C18.8306 13.824 18.4553 12.9145 17.7872 12.2439C17.1191 11.5733 16.213 11.1965 15.2681 11.1965ZM6.10742 13.7507V15.7941H9.66992V13.7507H6.10742ZM20.8663 13.7507V15.7941H24.4288V13.7507H20.8663Z"
    fill="#00C9FF" />
</svg>
  