<svg width="33" height="24" viewBox="0 0 33 24" fill="none" xmlns="http://www.w3.org/2000/svg">
  <path
    d="M26.8271 11.0682C28.7099 11.0682 30.2362 9.54191 30.2362 7.65912C30.2362 5.77633 28.7099 4.25003 26.8271 4.25003C24.9443 4.25003 23.418 5.77633 23.418 7.65912C23.418 9.54191 24.9443 11.0682 26.8271 11.0682Z"
    fill="white" />
  <path
    d="M6.37393 11.0682C8.25672 11.0682 9.78302 9.54191 9.78302 7.65912C9.78302 5.77633 8.25672 4.25003 6.37393 4.25003C4.49115 4.25003 2.96484 5.77633 2.96484 7.65912C2.96484 9.54191 4.49115 11.0682 6.37393 11.0682Z"
    fill="white" />
  <path
    d="M31.6002 21.9773V17.2046C31.6002 14.5687 29.4633 12.4319 26.8274 12.4319C24.1915 12.4319 22.0547 14.5687 22.0547 17.2046V21.9773"
    stroke="white" stroke-width="2" />
  <path
    d="M11.147 21.9773V17.2046C11.147 14.5687 9.01022 12.4319 6.37432 12.4319C3.73842 12.4319 1.60162 14.5687 1.60162 17.2046V21.9773"
    stroke="white" stroke-width="2" />
  <path
    d="M16.5992 7.95141C18.751 7.95141 20.4953 6.20707 20.4953 4.05531C20.4953 1.90355 18.751 0.15921 16.5992 0.15921C14.4475 0.15921 12.7031 1.90355 12.7031 4.05531C12.7031 6.20707 14.4475 7.95141 16.5992 7.95141Z"
    fill="#00C9FF" />
  <path
    d="M22.0575 23.341V15.1591C22.0575 12.1467 19.6154 9.70462 16.603 9.70462C13.5905 9.70462 11.1484 12.1467 11.1484 15.1591V23.341"
    stroke="#00C9FF" stroke-width="2" />
</svg>
  