<svg
            width="37"
            height="36"
            viewBox="0 0 37 36"
            fill="none"
            xmlns="http://www.w3.org/2000/svg"
          >
            <mask
              id="mask0_423_10103"
              style="mask-type: luminance"
              maskUnits="userSpaceOnUse"
              x="0"
              y="0"
              width="37"
              height="36"
            >
    <path d="M36.6016 0H0.601562V36H36.6016V0Z" fill="#00C9FF" />
            </mask>
            <g mask="url(#mask0_423_10103)">
              <path
      d="M28.8271 18.0682C30.7098 18.0682 32.2361 16.5419 32.2361 14.6591C32.2361 12.7763 30.7098 11.25 28.8271 11.25C26.9443 11.25 25.418 12.7763 25.418 14.6591C25.418 16.5419 26.9443 18.0682 28.8271 18.0682Z"
      fill="#00C9FF"
    />
              <path
      d="M8.37393 18.0682C10.2567 18.0682 11.783 16.5419 11.783 14.6591C11.783 12.7763 10.2567 11.25 8.37393 11.25C6.49115 11.25 4.96484 12.7763 4.96484 14.6591C4.96484 16.5419 6.49115 18.0682 8.37393 18.0682Z"
      fill="#00C9FF"
    />
              <path
      d="M33.6001 28.9773V24.2046C33.6001 21.5687 31.4633 19.4319 28.8274 19.4319C26.1915 19.4319 24.0547 21.5687 24.0547 24.2046V28.9773"
      stroke="#00C9FF"
      stroke-width="2"
    />
              <path
      d="M13.147 28.9773V24.2046C13.147 21.5687 11.0102 19.4319 8.37426 19.4319C5.73836 19.4319 3.60156 21.5687 3.60156 24.2046V28.9773"
      stroke="#00C9FF"
      stroke-width="2"
    />
              <path
                d="M18.5992 14.9514C20.751 14.9514 22.4953 13.207 22.4953 11.0553C22.4953 8.90352 20.751 7.15918 18.5992 7.15918C16.4475 7.15918 14.7031 8.90352 14.7031 11.0553C14.7031 13.207 16.4475 14.9514 18.5992 14.9514Z"
                fill="#00C9FF"
              />
              <path
                d="M24.0575 30.341V22.1591C24.0575 19.1467 21.6154 16.7046 18.603 16.7046C15.5905 16.7046 13.1484 19.1467 13.1484 22.1591V30.341"
                stroke="#00C9FF"
                stroke-width="2"
              />
            </g>
          </svg>