<svg width="24" height="24" viewBox="0 0 24 24" fill="none" xmlns="http://www.w3.org/2000/svg">
    <path
        d="M3 0V3H0V5H3V8H5V5H8V3H5V0H3ZM9 3V6H6V9H3V19C3 19.5304 3.21071 20.0391 3.58579 20.4142C3.96086 20.7893 4.46957 21 5 21H19C20.11 21 21 20.11 21 19V18H12C11.4696 18 10.9609 17.7893 10.5858 17.4142C10.2107 17.0391 10 16.5304 10 16V8C10 7.46957 10.2107 6.96086 10.5858 6.58579C10.9609 6.21071 11.4696 6 12 6H21V5C21 4.46957 20.7893 3.96086 20.4142 3.58579C20.0391 3.21071 19.5304 3 19 3H9ZM12 8V16H22V8H12ZM16 10.5C16.83 10.5 17.5 11.17 17.5 12C17.5 12.83 16.83 13.5 16 13.5C15.17 13.5 14.5 12.83 14.5 12C14.5 11.17 15.17 10.5 16 10.5Z"
        fill="#00E0FF" />
</svg>
    