<svg width="33" height="33" viewBox="0 0 33 33" fill="none" xmlns="http://www.w3.org/2000/svg">
<path d="M20.625 5.5C23.5424 5.5 26.3403 6.65893 28.4032 8.72183C30.4661 10.7847 31.625 13.5826 31.625 16.5C31.625 19.4174 30.4661 22.2153 28.4032 24.2782C26.3403 26.3411 23.5424 27.5 20.625 27.5C17.7076 27.5 14.9097 26.3411 12.8468 24.2782C10.7839 22.2153 9.625 19.4174 9.625 16.5C9.625 13.5826 10.7839 10.7847 12.8468 8.72183C14.9097 6.65893 17.7076 5.5 20.625 5.5ZM20.625 8.25C18.437 8.25 16.3385 9.11919 14.7914 10.6664C13.2442 12.2135 12.375 14.312 12.375 16.5C12.375 18.688 13.2442 20.7865 14.7914 22.3336C16.3385 23.8808 18.437 24.75 20.625 24.75C22.813 24.75 24.9115 23.8808 26.4586 22.3336C28.0058 20.7865 28.875 18.688 28.875 16.5C28.875 14.312 28.0058 12.2135 26.4586 10.6664C24.9115 9.11919 22.813 8.25 20.625 8.25ZM19.25 11H21.3125V16.1975L24.5163 19.4012L23.0588 20.8588L19.25 17.05V11ZM2.75 24.75C2.38533 24.75 2.03559 24.6051 1.77773 24.3473C1.51987 24.0894 1.375 23.7397 1.375 23.375C1.375 23.0103 1.51987 22.6606 1.77773 22.4027C2.03559 22.1449 2.38533 22 2.75 22H8.01625C8.4425 22.9762 8.9925 23.8975 9.625 24.75H2.75ZM4.125 17.875C3.76033 17.875 3.41059 17.7301 3.15273 17.4723C2.89487 17.2144 2.75 16.8647 2.75 16.5C2.75 16.1353 2.89487 15.7856 3.15273 15.5277C3.41059 15.2699 3.76033 15.125 4.125 15.125H6.94375L6.875 16.5L6.94375 17.875H4.125ZM5.5 11C5.13533 11 4.78559 10.8551 4.52773 10.5973C4.26987 10.3394 4.125 9.98967 4.125 9.625C4.125 9.26033 4.26987 8.91059 4.52773 8.65273C4.78559 8.39487 5.13533 8.25 5.5 8.25H9.625C8.9925 9.1025 8.4425 10.0237 8.01625 11H5.5Z" fill="white"/>
</svg>
