<svg width="28" height="30" viewBox="0 0 28 30" fill="none" xmlns="http://www.w3.org/2000/svg">
<path d="M18.6875 20.3438L22.62 22.6675L21.5888 24.345L16.625 21.375V14.5H18.6875V20.3438ZM27.625 20C27.625 25.3212 23.3212 29.625 18 29.625C16.4471 29.6262 14.9171 29.2517 13.5403 28.5334C12.1636 27.8151 10.9811 26.7744 10.0938 25.5C4.51125 25.2113 0.125 22.86 0.125 20V6.25C0.125 3.21125 5.0475 0.75 11.125 0.75C17.2025 0.75 22.125 3.21125 22.125 6.25V11.31C25.37 12.8638 27.625 16.1637 27.625 20ZM19.375 10.485V9.88C19.0588 10.0588 18.6875 10.2375 18.33 10.375C18.6875 10.375 19.0312 10.43 19.375 10.485ZM2.875 6.25C2.875 6.9375 5.80375 9 11.125 9C16.4462 9 19.375 6.9375 19.375 6.25C19.375 5.5625 16.4462 3.5 11.125 3.5C5.80375 3.5 2.875 5.5625 2.875 6.25ZM2.875 13.7437C4.34625 14.8162 6.725 15.545 9.365 15.7788C10.2038 14.0463 11.565 12.6025 13.2425 11.64C12.555 11.7087 11.8538 11.75 11.125 11.75C7.83875 11.75 4.89625 11.0213 2.875 9.88V13.7437ZM8.7325 22.5713C8.5125 21.7463 8.375 20.8937 8.375 20C8.375 19.4638 8.43 18.9412 8.5125 18.4325C6.395 18.1987 4.45625 17.7038 2.875 16.9338V20C2.875 20.5775 4.9375 22.0625 8.7325 22.5713ZM24.875 20C24.875 16.205 21.795 13.125 18 13.125C14.205 13.125 11.125 16.205 11.125 20C11.125 23.795 14.205 26.875 18 26.875C21.795 26.875 24.875 23.795 24.875 20Z" fill="white"/>
</svg>
