<svg width="33" height="31" viewBox="0 0 33 31" fill="none" xmlns="http://www.w3.org/2000/svg">
<path d="M15.2308 20.1151V27.6593C15.2308 27.9927 15.097 28.3125 14.859 28.5483C14.621 28.7841 14.2982 28.9166 13.9615 28.9166H6.34616C6.00954 28.9166 5.68671 28.7841 5.44868 28.5483C5.21065 28.3125 5.07693 27.9927 5.07693 27.6593C5.07693 27.3258 5.21065 27.006 5.44868 26.7702C5.68671 26.5344 6.00954 26.4019 6.34616 26.4019H10.8979L6.40962 21.9572C5.5823 21.1415 4.92638 20.1715 4.47978 19.1032C4.03318 18.0349 3.80475 16.8895 3.8077 15.7333V9.89913C2.61125 9.5931 1.56854 8.8653 0.875017 7.85215C0.181494 6.839 -0.115225 5.61006 0.0404769 4.39569C0.196179 3.18132 0.793612 2.06489 1.72079 1.25567C2.64797 0.446452 3.84124 0 5.07693 0C6.31262 0 7.50589 0.446452 8.43307 1.25567C9.36025 2.06489 9.95768 3.18132 10.1134 4.39569C10.2691 5.61006 9.97237 6.839 9.27885 7.85215C8.58532 8.8653 7.54261 9.5931 6.34616 9.89913V15.7348C6.34403 16.5605 6.50728 17.3783 6.82645 18.141C7.14563 18.9037 7.61439 19.596 8.20558 20.178L12.6923 24.6243V20.1151C12.6923 19.7817 12.826 19.4618 13.0641 19.226C13.3021 18.9902 13.6249 18.8578 13.9615 18.8578C14.2982 18.8578 14.621 18.9902 14.859 19.226C15.097 19.4618 15.2308 19.7817 15.2308 20.1151ZM29.1923 20.2723V14.4382C29.1953 13.2819 28.9668 12.1365 28.5202 11.0682C28.0736 9.99992 27.4177 9.02992 26.5904 8.21427L22.1021 3.76953H26.6538C26.9905 3.76953 27.3133 3.63706 27.5513 3.40126C27.7893 3.16546 27.9231 2.84564 27.9231 2.51217C27.9231 2.1787 27.7893 1.85889 27.5513 1.62309C27.3133 1.38729 26.9905 1.25482 26.6538 1.25482H19.0385C18.7018 1.25482 18.379 1.38729 18.141 1.62309C17.903 1.85889 17.7692 2.1787 17.7692 2.51217V10.0563C17.7692 10.3898 17.903 10.7096 18.141 10.9454C18.379 11.1812 18.7018 11.3137 19.0385 11.3137C19.3751 11.3137 19.6979 11.1812 19.9359 10.9454C20.174 10.7096 20.3077 10.3898 20.3077 10.0563V5.54711L24.7944 9.99343C25.3858 10.5756 25.8547 11.2682 26.1739 12.0312C26.493 12.7941 26.6562 13.6123 26.6538 14.4382V20.2723C25.4574 20.5783 24.4147 21.3061 23.7212 22.3193C23.0276 23.3324 22.7309 24.5614 22.8866 25.7757C23.0423 26.9901 23.6398 28.1065 24.5669 28.9158C25.4941 29.725 26.6874 30.1714 27.9231 30.1714C29.1588 30.1714 30.352 29.725 31.2792 28.9158C32.2064 28.1065 32.8038 26.9901 32.9595 25.7757C33.1152 24.5614 32.8185 23.3324 32.125 22.3193C31.4315 21.3061 30.3888 20.5783 29.1923 20.2723Z" fill="#F8F8F8"/>
</svg>
