<svg width="18" height="19" viewBox="0 0 18 19" fill="none" xmlns="http://www.w3.org/2000/svg">
            <path
              d="M17.6208 16.5062C17.8622 16.7473 17.9979 17.0743 17.9979 17.4152C17.9979 17.7562 17.8622 18.0832 17.6208 18.3242C17.3793 18.5653 17.0518 18.7008 16.7104 18.7008C16.3689 18.7008 16.0415 18.5653 15.8 18.3242L9 11.5324L2.19785 18.3221C1.9564 18.5632 1.62893 18.6986 1.28747 18.6986C0.946013 18.6986 0.61854 18.5632 0.377092 18.3221C0.135644 18.081 3.59785e-09 17.754 0 17.4131C-3.59785e-09 17.0722 0.135644 16.7452 0.377092 16.5041L7.17924 9.71438L0.379234 2.92253C0.137786 2.68144 0.00214212 2.35446 0.00214212 2.01352C0.00214212 1.67258 0.137786 1.3456 0.379234 1.10452C0.620682 0.863437 0.948155 0.727998 1.28961 0.727998C1.63107 0.727998 1.95855 0.863437 2.19999 1.10452L9 7.89638L15.8021 1.10345C16.0436 0.862367 16.3711 0.726929 16.7125 0.726929C17.054 0.726929 17.3815 0.862367 17.6229 1.10345C17.8644 1.34453 18 1.67151 18 2.01245C18 2.3534 17.8644 2.68037 17.6229 2.92146L10.8208 9.71438L17.6208 16.5062Z"
              fill="white" />
          </svg>