<svg width="24" height="16" viewBox="0 0 24 16" fill="none" xmlns="http://www.w3.org/2000/svg">
<path d="M12.3937 0.453624C10.725 0.450812 8.63437 0.978156 6.57187 2.05159C4.51266 3.12503 2.88047 4.53128 1.92234 5.90472C0.963749 7.27347 0.704531 8.54847 1.17609 9.45784C1.64812 10.3625 2.84156 10.8828 4.51453 10.8828C6.1875 10.8875 8.27812 10.3578 10.3359 9.28909C12.3984 8.21566 14.0297 6.80472 14.9859 5.43597C15.9469 4.06722 16.2 2.79222 15.7312 1.88284C15.2578 0.978156 14.0672 0.453624 12.3937 0.453624ZM16.7016 3.74847C16.5375 4.46566 16.1812 5.20159 15.6797 5.91878C14.6203 7.43284 12.8906 8.9094 10.725 10.0344C8.55937 11.1641 6.36094 11.7313 4.51406 11.7313C3.64219 11.7313 2.83406 11.6 2.15297 11.3235L2.64937 12.2797C3.12187 13.1891 4.31203 13.7094 5.98594 13.7094C7.65937 13.7094 9.75 13.1844 11.8078 12.111C13.8703 11.0422 15.5016 9.63128 16.4578 8.25784C17.4141 6.88909 17.6766 5.61409 17.2031 4.70941L16.7016 3.74847ZM18.0516 4.53597C18.5766 5.78753 18.1547 7.31097 17.1516 8.74065C16.2656 10.011 14.9109 11.2438 13.2328 12.275C13.7531 12.3313 14.2969 12.3594 14.85 12.3594C17.1703 12.3594 19.2703 11.8625 20.7516 11.0891C22.2375 10.3157 23.0531 9.30316 23.0531 8.28128C23.0531 7.25941 22.2375 6.24691 20.7516 5.47347C19.9969 5.07972 19.0781 4.75628 18.0516 4.53597ZM23.0531 10.386C22.575 10.9438 21.9188 11.436 21.1453 11.8391C19.5047 12.6922 17.2922 13.2032 14.85 13.2032C13.8562 13.2032 12.9 13.1188 12.0047 12.9594C10.9172 13.5078 9.825 13.9157 8.775 14.1828C8.83125 14.2157 8.8875 14.2438 8.94844 14.2766C10.4297 15.05 12.5297 15.5469 14.85 15.5469C17.1703 15.5469 19.2703 15.05 20.7516 14.2766C22.2375 13.5032 23.0531 12.4907 23.0531 11.4688V10.386Z" fill="#F8F8F8"/>
</svg>
