<svg width="24" height="24" viewBox="0 0 24 24" fill="none" xmlns="http://www.w3.org/2000/svg">
<path d="M8.48425 20.4373C9.2609 20.4373 9.8905 19.8077 9.8905 19.0311C9.8905 18.2544 9.2609 17.6248 8.48425 17.6248C7.7076 17.6248 7.078 18.2544 7.078 19.0311C7.078 19.8077 7.7076 20.4373 8.48425 20.4373Z" fill="white"/>
<path d="M18.3281 20.4373C19.1048 20.4373 19.7344 19.8077 19.7344 19.0311C19.7344 18.2544 19.1048 17.6248 18.3281 17.6248C17.5515 17.6248 16.9219 18.2544 16.9219 19.0311C16.9219 19.8077 17.5515 20.4373 18.3281 20.4373Z" fill="white"/>
<path d="M20.8242 6.0579C20.7254 5.93707 20.601 5.83975 20.4599 5.77301C20.3188 5.70628 20.1647 5.67179 20.0086 5.67206H6.63384L6.36445 4.14364C6.33573 3.98084 6.25056 3.83336 6.1239 3.72711C5.99724 3.62087 5.83719 3.56265 5.67187 3.56268H2.85937C2.67289 3.56268 2.49405 3.63676 2.36219 3.76862C2.23033 3.90049 2.15625 4.07933 2.15625 4.26581C2.15625 4.45229 2.23033 4.63113 2.36219 4.76299C2.49405 4.89485 2.67289 4.96893 2.85937 4.96893H5.08213L7.08867 16.3411C7.11739 16.5039 7.20257 16.6514 7.32923 16.7576C7.45588 16.8639 7.61593 16.9221 7.78125 16.9221H19.0312C19.2177 16.9221 19.3966 16.848 19.5284 16.7161C19.6603 16.5843 19.7344 16.4054 19.7344 16.2189C19.7344 16.0324 19.6603 15.8536 19.5284 15.7217C19.3966 15.5899 19.2177 15.5158 19.0312 15.5158H8.37099L8.12314 14.1096H18.743C18.9868 14.1092 19.223 14.0247 19.4117 13.8702C19.6004 13.7157 19.7299 13.5008 19.7783 13.2618L21.0439 6.93373C21.0744 6.78058 21.0705 6.62257 21.0325 6.47111C20.9945 6.31965 20.9234 6.17851 20.8242 6.0579Z" fill="white"/>
</svg>
