<svg width="24" height="24" viewBox="0 0 24 24" fill="none" xmlns="http://www.w3.org/2000/svg">
<path d="M8.48436 20.4375C9.26101 20.4375 9.89061 19.8079 9.89061 19.0312C9.89061 18.2546 9.26101 17.625 8.48436 17.625C7.70771 17.625 7.07811 18.2546 7.07811 19.0312C7.07811 19.8079 7.70771 20.4375 8.48436 20.4375Z" fill="white"/>
<path d="M18.3281 20.4375C19.1048 20.4375 19.7344 19.8079 19.7344 19.0312C19.7344 18.2546 19.1048 17.625 18.3281 17.625C17.5515 17.625 16.9219 18.2546 16.9219 19.0312C16.9219 19.8079 17.5515 20.4375 18.3281 20.4375Z" fill="white"/>
<path d="M20.8242 6.05796C20.7254 5.93713 20.601 5.83981 20.4599 5.77308C20.3188 5.70634 20.1646 5.67185 20.0086 5.67212H6.63382L6.36444 4.1437C6.33571 3.9809 6.25054 3.83342 6.12388 3.72717C5.99722 3.62093 5.83718 3.56271 5.67186 3.56274H2.85936C2.67288 3.56274 2.49404 3.63682 2.36218 3.76868C2.23031 3.90055 2.15623 4.07939 2.15623 4.26587C2.15623 4.45235 2.23031 4.63119 2.36218 4.76305C2.49404 4.89491 2.67288 4.96899 2.85936 4.96899H5.08211L7.08865 16.3412C7.11738 16.504 7.20255 16.6514 7.32921 16.7577C7.45587 16.8639 7.61591 16.9221 7.78123 16.9221H19.0312C19.2177 16.9221 19.3966 16.848 19.5284 16.7162C19.6603 16.5843 19.7344 16.4055 19.7344 16.219C19.7344 16.0325 19.6603 15.8537 19.5284 15.7218C19.3966 15.5899 19.2177 15.5159 19.0312 15.5159H8.37098L8.12313 14.1096H18.7429C18.9868 14.1093 19.223 14.0248 19.4117 13.8703C19.6004 13.7158 19.7299 13.5009 19.7783 13.2619L21.0439 6.93379C21.0744 6.78064 21.0705 6.62263 21.0325 6.47117C20.9945 6.31971 20.9234 6.17857 20.8242 6.05796Z" fill="white"/>
</svg>
