<svg width="24" height="24" viewBox="0 0 24 24" fill="none" xmlns="http://www.w3.org/2000/svg">
<path d="M4.94668 5.31804H19.0092C19.1734 5.31797 19.3375 5.32839 19.5005 5.34924C19.4453 4.96155 19.3121 4.58905 19.109 4.25421C18.9059 3.91937 18.6371 3.62913 18.3188 3.40097C18.0006 3.17282 17.6394 3.01149 17.257 2.9267C16.8747 2.84192 16.4792 2.83543 16.0943 2.90764L4.5292 4.88211H4.51602C3.79007 5.02093 3.14451 5.43165 2.71118 6.0304C3.36403 5.56604 4.14553 5.31701 4.94668 5.31804Z" fill="white"/>
<path d="M19.0093 6.375H4.94678C4.20111 6.37581 3.48621 6.67239 2.95894 7.19966C2.43167 7.72693 2.13509 8.44183 2.13428 9.1875V17.625C2.13509 18.3707 2.43167 19.0856 2.95894 19.6128C3.48621 20.1401 4.20111 20.4367 4.94678 20.4375H19.0093C19.7549 20.4367 20.4698 20.1401 20.9971 19.6128C21.5244 19.0856 21.821 18.3707 21.8218 17.625V9.1875C21.821 8.44183 21.5244 7.72693 20.9971 7.19966C20.4698 6.67239 19.7549 6.37581 19.0093 6.375ZM16.9219 14.8125C16.6437 14.8125 16.3719 14.73 16.1406 14.5755C15.9093 14.421 15.7291 14.2014 15.6227 13.9444C15.5162 13.6874 15.4884 13.4047 15.5426 13.1319C15.5969 12.8591 15.7308 12.6085 15.9275 12.4119C16.1242 12.2152 16.3747 12.0813 16.6475 12.027C16.9203 11.9728 17.2031 12.0006 17.46 12.107C17.717 12.2135 17.9366 12.3937 18.0911 12.625C18.2456 12.8562 18.3281 13.1281 18.3281 13.4062C18.3281 13.7792 18.18 14.1369 17.9162 14.4006C17.6525 14.6643 17.2948 14.8125 16.9219 14.8125Z" fill="white"/>
<path d="M2.15625 12.1514V7.77881C2.15625 6.82651 2.68359 5.22998 4.51392 4.88413C6.06738 4.59277 7.60547 4.59277 7.60547 4.59277C7.60547 4.59277 8.61621 5.2959 7.78125 5.2959C6.94629 5.2959 6.96826 6.37256 7.78125 6.37256C8.59424 6.37256 7.78125 7.40527 7.78125 7.40527L4.50732 11.1187L2.15625 12.1514Z" fill="white"/>
</svg>
