<svg width="24" height="24" viewBox="0 0 24 24" fill="none" xmlns="http://www.w3.org/2000/svg">
<path d="M13.4062 10.6057H19.5586C19.6021 10.6057 19.6438 10.623 19.6746 10.6538C19.7054 10.6845 19.7227 10.7263 19.7227 10.7698V19.0315C19.7227 19.7743 19.4276 20.4867 18.9023 21.0119C18.3771 21.5372 17.6647 21.8323 16.9219 21.8323H7.07812C6.33531 21.8323 5.62292 21.5372 5.09767 21.0119C4.57243 20.4867 4.27734 19.7743 4.27734 19.0315V4.96899C4.27734 4.22618 4.57243 3.51379 5.09767 2.98854C5.62292 2.46329 6.33531 2.16821 7.07812 2.16821H11.1211C11.1646 2.16821 11.2063 2.1855 11.2371 2.21627C11.2679 2.24703 11.2852 2.28876 11.2852 2.33228V8.48462C11.2852 9.04717 11.5086 9.58668 11.9064 9.98446C12.3042 10.3822 12.8437 10.6057 13.4062 10.6057ZM8.48437 17.637H15.5156C15.7052 17.637 15.887 17.5616 16.0211 17.4276C16.1552 17.2935 16.2305 17.1117 16.2305 16.9221C16.2305 16.7325 16.1552 16.5507 16.0211 16.4166C15.887 16.2826 15.7052 16.2073 15.5156 16.2073H8.48437C8.29479 16.2073 8.11296 16.2826 7.9789 16.4166C7.84484 16.5507 7.76953 16.7325 7.76953 16.9221C7.76953 17.1117 7.84484 17.2935 7.9789 17.4276C8.11296 17.5616 8.29479 17.637 8.48437 17.637ZM8.48437 14.1213H15.5156C15.7052 14.1213 15.887 14.046 16.0211 13.912C16.1552 13.7779 16.2305 13.5961 16.2305 13.4065C16.2305 13.2169 16.1552 13.0351 16.0211 12.901C15.887 12.767 15.7052 12.6916 15.5156 12.6916H8.48437C8.29479 12.6916 8.11296 12.767 7.9789 12.901C7.84484 13.0351 7.76953 13.2169 7.76953 13.4065C7.76953 13.5961 7.84484 13.7779 7.9789 13.912C8.11296 14.046 8.29479 14.1213 8.48437 14.1213Z" fill="white" stroke="#01B47E" stroke-width="0.0234375"/>
<path d="M12.8447 2.72747L19.1644 9.0472L12.8447 2.72747ZM12.8447 2.72747C12.8447 2.72747 12.8447 2.72747 12.8447 2.72746M12.8447 2.72747L12.8447 2.72746M12.8447 2.72746C12.8341 2.71688 12.8205 2.70968 12.8058 2.70677C12.7911 2.70386 12.7758 2.70536 12.7619 2.7111C12.748 2.71684 12.7362 2.72656 12.7278 2.73902C12.7194 2.75148 12.7149 2.76614 12.7148 2.78115V8.48567C12.7148 8.66904 12.7877 8.8449 12.9174 8.97456C13.047 9.10423 13.2229 9.17707 13.4063 9.17707H19.1107C19.1258 9.17701 19.1404 9.17251 19.1529 9.16413C19.1654 9.15576 19.1751 9.14389 19.1808 9.13001C19.1866 9.11613 19.1881 9.10086 19.1851 9.08613C19.1822 9.07141 19.175 9.05787 19.1645 9.04722L12.8447 2.72746Z" fill="white" stroke="#01B47E" stroke-width="0.0234375"/>
</svg>
