<svg width="32" height="33" viewBox="0 0 32 33" fill="none" xmlns="http://www.w3.org/2000/svg">
<g clip-path="url(#clip0_418_7824)">
<g clip-path="url(#clip1_418_7824)">
<g clip-path="url(#clip2_418_7824)">
<mask id="mask0_418_7824" style="mask-type:luminance" maskUnits="userSpaceOnUse" x="0" y="0" width="32" height="33">
<path d="M32 0.800049H0V32.8H32V0.800049Z" fill="white"/>
</mask>
<g mask="url(#mask0_418_7824)">
<path fill-rule="evenodd" clip-rule="evenodd" d="M0 15.3631C0.082 14.7781 0.147 14.1891 0.25 13.6071C0.624731 11.4798 1.4805 9.46623 2.752 7.72008C2.782 7.68008 2.819 7.64408 2.875 7.58008L6.955 10.6301C4.832 14.0941 4.454 17.7031 6.208 21.3751C7.963 25.0511 11.007 27.0281 15.041 27.5591V32.6891C14.566 32.6491 14.092 32.6371 13.626 32.5691C8.207 31.7811 4.419 28.7371 1.891 24.0021C0.82 21.9981 0.223 19.8401 0.052 17.5701C0.045 17.4781 0.018 17.3901 0 17.3001V15.3631Z" fill="#00C9FF"/>
<mask id="mask1_418_7824" style="mask-type:luminance" maskUnits="userSpaceOnUse" x="4" y="0" width="28" height="16">
<path d="M4.02344 0.800049H31.9984V15.776H4.02344V0.800049Z" fill="white"/>
</mask>
<g mask="url(#mask1_418_7824)">
<path fill-rule="evenodd" clip-rule="evenodd" d="M31.9984 15.7731H29.9194C28.9834 15.7731 28.0464 15.7711 27.1094 15.7761C26.9354 15.7761 26.8214 15.7641 26.8024 15.5391C26.4744 11.6981 24.4504 8.98508 21.1094 7.23908C18.2464 5.74208 15.2334 5.43708 12.1394 6.49508C10.6764 6.99508 9.42444 7.83508 8.36144 8.95808C8.29744 9.02608 8.22544 9.08708 8.13144 9.17608L4.02344 6.09808C4.83935 5.08462 5.79526 4.19235 6.86244 3.44808C9.90344 1.33808 13.2934 0.55308 16.9514 0.86608C20.7014 1.18808 24.0294 2.55908 26.8774 5.02508C29.6134 7.39508 31.2954 10.3701 31.8274 13.9681C31.9144 14.5491 31.9404 15.1401 31.9984 15.7731Z" fill="white"/>
</g>
<path fill-rule="evenodd" clip-rule="evenodd" d="M16.9531 27.624C17.8771 27.389 18.8031 27.247 19.6591 26.92C23.6271 25.4 25.9911 22.523 26.7361 18.334C26.8591 17.642 26.8411 17.639 27.5461 17.639H31.9431C31.6781 25.369 25.0981 32.311 16.9531 32.651V27.624Z" fill="white"/>
<path fill-rule="evenodd" clip-rule="evenodd" d="M14.3172 20.779V12.592C14.3172 11.902 14.5442 11.677 15.2312 11.677C15.8042 11.677 16.3762 11.672 16.9482 11.678C17.3982 11.684 17.6732 11.95 17.6732 12.398C17.6782 15.154 17.6752 17.91 17.6742 20.666C17.6742 20.696 17.6662 20.726 17.6582 20.779H14.3172ZM12.5632 20.796C11.6252 20.796 10.7232 20.807 9.82015 20.791C9.661 20.7845 9.5107 20.716 9.40138 20.6002C9.29207 20.4843 9.23241 20.3303 9.23515 20.171C9.2237 18.747 9.2237 17.323 9.23515 15.899C9.23815 15.534 9.50015 15.28 9.88115 15.269C10.5562 15.249 11.2322 15.25 11.9072 15.269C12.2892 15.279 12.5562 15.532 12.5582 15.893C12.5692 17.514 12.5632 19.135 12.5632 20.796ZM19.4321 17.49C19.4372 17.127 19.7092 16.864 20.0752 16.856C20.7184 16.8367 21.3621 16.84 22.0051 16.866C22.5991 16.896 22.7952 17.126 22.7972 17.719C22.7992 18.509 22.7931 19.297 22.7822 20.087C22.7762 20.49 22.5192 20.788 22.1422 20.794C21.2502 20.808 20.3582 20.799 19.4272 20.799C19.4272 19.669 19.4181 18.579 19.4321 17.489V17.49Z" fill="#00C9FF"/>
</g>
</g>
</g>
</g>
<defs>
<clipPath id="clip0_418_7824">
<rect width="32" height="32" fill="white" transform="translate(0 0.800049)"/>
</clipPath>
<clipPath id="clip1_418_7824">
<rect width="32" height="32" fill="white" transform="translate(0 0.800049)"/>
</clipPath>
<clipPath id="clip2_418_7824">
<rect width="32" height="32" fill="white" transform="translate(0 0.800049)"/>
</clipPath>
</defs>
</svg>
