<svg width="32" height="33" viewBox="0 0 32 33" fill="none" xmlns="http://www.w3.org/2000/svg">
<g clip-path="url(#clip0_418_7844)">
<g clip-path="url(#clip1_418_7844)">
<mask id="mask0_418_7844" style="mask-type:luminance" maskUnits="userSpaceOnUse" x="0" y="0" width="32" height="33">
<path d="M32 0.800049H0V32.8H32V0.800049Z" fill="white"/>
</mask>
<g mask="url(#mask0_418_7844)">
<path fill-rule="evenodd" clip-rule="evenodd" d="M24.4344 15.4761C24.4344 15.2391 24.4404 15.0821 24.4334 14.9261C24.4094 14.3821 23.9854 13.9611 23.4794 13.9731C22.9784 13.9851 22.5774 14.3971 22.5594 14.9291C22.5504 15.2091 22.5464 15.4911 22.5614 15.7711C22.5714 15.9541 22.5054 16.0331 22.3354 16.1081C21.2134 16.6031 20.5254 17.8401 20.7154 18.9941C20.9554 20.4701 21.9864 21.3741 23.5214 21.4581C23.9244 21.4801 24.2114 21.6751 24.3644 22.0451C24.5124 22.4051 24.4444 22.7431 24.1844 23.0281C23.9204 23.3151 23.5864 23.3901 23.2144 23.2881C22.8144 23.1801 22.5354 22.9021 22.2604 22.6141C21.8854 22.2231 21.3204 22.1921 20.9444 22.5301C20.5484 22.8841 20.5244 23.4401 20.8904 23.8681C21.1392 24.1482 21.4194 24.3988 21.7254 24.6151C21.9874 24.8081 22.4184 24.8231 22.5314 25.1211C22.6414 25.4121 22.5504 25.7781 22.5604 26.1101C22.5764 26.6531 23.0004 27.0781 23.5064 27.0701C24.0054 27.0631 24.4104 26.6521 24.4324 26.1201C24.4424 25.8821 24.4544 25.6401 24.4294 25.4041C24.4034 25.1421 24.4894 25.0101 24.7374 24.8921C25.8194 24.3751 26.4574 23.1671 26.2764 22.0481C26.0364 20.5751 25.0084 19.6721 23.4694 19.5851C23.0664 19.5621 22.7794 19.3671 22.6274 18.9961C22.5559 18.8382 22.5329 18.6627 22.5614 18.4918C22.5899 18.3208 22.6686 18.1622 22.7874 18.0361C23.0514 17.7341 23.3934 17.6511 23.7794 17.7541C24.0794 17.8341 24.3094 18.0261 24.5424 18.2211C24.9584 18.5711 25.5154 18.5311 25.8584 18.1451C26.1834 17.7781 26.1584 17.2151 25.7934 16.8501C25.5484 16.6061 25.2794 16.3731 24.9554 16.2651C24.5044 16.1151 24.3084 15.8641 24.4344 15.4761ZM31.9964 21.3331C31.8664 21.8001 31.8274 22.2851 31.6944 22.7541C31.2322 24.3789 30.2973 25.8295 29.0084 26.9214C27.7195 28.0133 26.135 28.6972 24.4564 28.8861C20.0024 29.3921 15.9114 26.3311 15.1804 21.9461C14.3984 17.2541 17.5904 12.8631 22.2784 12.1781C26.8154 11.5141 31.0754 14.6051 31.8844 19.1381C31.9184 19.3281 31.8814 19.5361 31.9964 19.7111V21.3331Z" fill="#00C9FF"/>
<mask id="mask1_418_7844" style="mask-type:luminance" maskUnits="userSpaceOnUse" x="7" y="0" width="16" height="33">
<path d="M7.55469 0.800049H22.5627V32.748H7.55469V0.800049Z" fill="white"/>
</mask>
<g mask="url(#mask1_418_7844)">
<path fill-rule="evenodd" clip-rule="evenodd" d="M11.3108 32.748C11.3108 24.701 11.3108 16.655 11.3178 8.60805C11.3178 8.34305 11.2448 8.28305 10.9898 8.28805C10.1778 8.30505 9.36484 8.29605 8.55184 8.29405C8.08284 8.29205 7.75884 8.07305 7.61284 7.66605C7.47484 7.28205 7.58284 6.90605 7.93284 6.60605C10.0818 4.76605 12.2328 2.92605 14.3848 1.08705C14.8318 0.706051 15.2878 0.703051 15.7358 1.08605C17.3428 2.45605 18.9458 3.83105 20.5518 5.20405C21.1048 5.67705 21.6668 6.14105 22.2108 6.62605C22.7928 7.14505 22.6248 8.01305 21.9108 8.25405C21.7868 8.29605 21.6648 8.29405 21.5408 8.29405C20.7378 8.29405 19.9358 8.30405 19.1338 8.28805C18.8818 8.28305 18.7968 8.33805 18.8028 8.60605C18.8218 9.43805 18.8028 10.27 18.8148 11.101C18.8178 11.306 18.7498 11.403 18.5708 11.506C15.5168 13.253 13.6978 15.861 13.2628 19.352C12.7458 23.491 14.8668 27.508 18.5628 29.533C18.7588 29.64 18.8198 29.755 18.8138 29.966C18.8008 30.485 18.7848 31.0061 18.8158 31.524C18.8508 32.097 18.6618 32.514 18.1228 32.748H11.3108Z" fill="white"/>
</g>
<path fill-rule="evenodd" clip-rule="evenodd" d="M5.6875 32.7481V15.0971C5.6875 14.3141 6.0255 13.9731 6.8005 13.9731C7.5605 13.9731 8.3215 13.9851 9.0805 13.9671C9.3575 13.9601 9.4435 14.0231 9.4435 14.3171C9.4335 20.2941 9.4355 26.2721 9.4355 32.2491L9.4375 32.7481H5.6875Z" fill="white"/>
<mask id="mask2_418_7844" style="mask-type:luminance" maskUnits="userSpaceOnUse" x="0" y="21" width="4" height="12">
<path d="M0 21.4491H3.758V32.7481H0V21.4491Z" fill="white"/>
</mask>
<g mask="url(#mask2_418_7844)">
<path fill-rule="evenodd" clip-rule="evenodd" d="M0 22.144C0.231 21.627 0.626 21.426 1.193 21.451C1.909 21.483 2.628 21.474 3.345 21.451C3.657 21.441 3.759 21.508 3.758 21.847C3.744 25.48 3.75 29.114 3.75 32.748H0.687C0.38019 32.6135 0.135037 32.3687 0 32.062V22.144Z" fill="white"/>
</g>
</g>
</g>
</g>
<defs>
<clipPath id="clip0_418_7844">
<rect width="32" height="32" fill="white" transform="translate(0 0.800049)"/>
</clipPath>
<clipPath id="clip1_418_7844">
<rect width="32" height="32" fill="white" transform="translate(0 0.800049)"/>
</clipPath>
</defs>
</svg>
