<svg width="32" height="33" viewBox="0 0 32 33" fill="none" xmlns="http://www.w3.org/2000/svg">
<g clip-path="url(#clip0_418_7867)">
<g clip-path="url(#clip1_418_7867)">
<mask id="mask0_418_7867" style="mask-type:luminance" maskUnits="userSpaceOnUse" x="0" y="0" width="32" height="33">
<path d="M32 0.800049H0V32.8H32V0.800049Z" fill="white"/>
</mask>
<g mask="url(#mask0_418_7867)">
<path fill-rule="evenodd" clip-rule="evenodd" d="M4.80799 32.8C4.76499 32.679 4.64499 32.646 4.55299 32.584C3.09899 31.612 1.64499 30.639 0.184986 29.676C-0.0390136 29.528 -0.0800136 29.46 0.175986 29.292C1.65799 28.32 3.12899 27.332 4.60399 26.35C4.67699 26.302 4.73899 26.223 4.87699 26.236C4.87699 26.853 4.88499 27.47 4.87299 28.087C4.86799 28.302 4.91499 28.383 5.15299 28.383C8.80299 28.373 12.453 28.413 16.103 28.361C21.543 28.281 26.523 24.197 27.743 18.889C27.983 17.853 28.101 16.805 28.098 15.741C28.092 13.611 28.1 11.481 28.09 9.35101C28.09 9.10201 28.138 9.01001 28.408 9.02101C28.948 9.04401 29.49 9.03501 30.031 9.02401C30.227 9.02001 30.314 9.05401 30.313 9.28301C30.3 11.758 30.357 14.236 30.285 16.709C30.098 23.165 25.273 28.893 18.955 30.242C17.8624 30.4752 16.7482 30.5919 15.631 30.59C12.166 30.587 8.69999 30.592 5.23399 30.582C4.95399 30.582 4.85799 30.638 4.86899 30.935C4.89399 31.556 4.87699 32.178 4.87699 32.8H4.80799Z" fill="white"/>
<path fill-rule="evenodd" clip-rule="evenodd" d="M17.557 16.714C17.261 16.338 16.809 16.063 16.201 15.887L15.319 15.624C14.961 15.524 14.687 15.42 14.499 15.314C14.4108 15.2699 14.3372 15.2015 14.2868 15.1167C14.2365 15.032 14.2115 14.9345 14.215 14.836C14.215 14.645 14.285 14.49 14.425 14.371C14.565 14.252 14.775 14.193 15.056 14.193C15.36 14.193 15.596 14.27 15.763 14.423C15.931 14.578 16.014 14.783 16.014 15.04H17.784C17.784 14.425 17.591 13.913 17.204 13.504C16.8968 13.1845 16.507 12.9564 16.078 12.845V11.521H14.453V12.776C13.866 12.872 13.396 13.098 13.043 13.454C12.644 13.857 12.445 14.37 12.445 14.994C12.445 15.48 12.566 15.873 12.81 16.171C13.053 16.469 13.303 16.678 13.56 16.799C13.818 16.919 14.125 17.04 14.484 17.161L15.173 17.383C15.446 17.473 15.633 17.539 15.737 17.582C15.8429 17.6268 15.9383 17.6932 16.017 17.777C16.0599 17.8239 16.0931 17.8787 16.1147 17.9384C16.1363 17.9982 16.1459 18.0616 16.143 18.125C16.1458 18.2191 16.126 18.3125 16.0853 18.3974C16.0446 18.4823 15.9841 18.5562 15.909 18.613C15.753 18.736 15.519 18.797 15.209 18.797C14.865 18.797 14.6 18.72 14.413 18.567C14.227 18.412 14.125 18.199 14.11 17.927H12.328C12.351 18.569 12.578 19.096 13.008 19.507C13.388 19.869 13.87 20.107 14.453 20.219V21.466H16.078V20.188C16.576 20.078 16.997 19.871 17.341 19.565C17.781 19.174 18.001 18.659 18.001 18.02C18.001 17.525 17.853 17.09 17.557 16.714ZM18.442 25.188C20.349 24.888 21.952 24.025 23.342 22.573C22.836 22.573 22.422 22.58 22.01 22.569C21.84 22.565 21.768 22.678 21.68 22.779C21.1698 23.3595 20.5885 23.8735 19.95 24.309C19.47 24.64 18.949 24.902 18.442 25.188ZM23.315 10.962C22.163 9.61201 19.631 8.27901 18.395 8.36801C19.732 8.96401 20.857 9.78101 21.778 10.869C21.8031 10.9001 21.8352 10.9249 21.8717 10.9412C21.9082 10.9576 21.9481 10.965 21.988 10.963C22.409 10.961 22.831 10.963 23.315 10.963M25.04 19.809H23.592C23.512 19.809 23.433 19.802 23.396 19.905C23.127 20.638 22.759 21.321 22.293 22.019H23.688C23.764 22.02 23.824 21.998 23.868 21.939C24.351 21.294 24.756 20.607 25.04 19.809ZM25.042 13.727C24.7614 12.962 24.3655 12.2444 23.868 11.599C23.842 11.565 23.796 11.526 23.758 11.525C23.287 11.52 22.815 11.522 22.294 11.522C22.756 12.206 23.109 12.862 23.369 13.566C23.409 13.678 23.465 13.731 23.591 13.729C24.061 13.723 24.532 13.727 25.042 13.727ZM23.611 19.255C24.127 19.255 24.617 19.251 25.108 19.257C25.255 19.259 25.265 19.159 25.294 19.06C25.465 18.474 25.546 17.872 25.6 17.266C25.614 17.106 25.575 17.037 25.4 17.041C24.987 17.051 24.574 17.047 24.16 17.043C24.032 17.042 23.947 17.056 23.94 17.221C23.9011 17.9086 23.7915 18.5903 23.611 19.255ZM23.611 14.281C23.793 14.975 23.906 15.651 23.941 16.338C23.95 16.49 24.039 16.492 24.149 16.492C24.563 16.49 24.976 16.486 25.389 16.494C25.547 16.497 25.617 16.456 25.601 16.281C25.545 15.663 25.463 15.051 25.289 14.453C25.256 14.339 25.217 14.277 25.085 14.278C24.604 14.284 24.123 14.281 23.611 14.281ZM15.702 25.888C14.438 25.946 12.984 25.826 11.577 25.287C7.98003 23.908 5.65303 20.454 5.71203 16.546C5.76903 12.807 8.25803 9.39301 11.831 8.15601C12.784 7.82601 13.766 7.63801 14.776 7.65001C16.052 7.66501 17.33 7.57401 18.602 7.78001C22.529 8.41301 25.72 11.808 26.105 15.782C26.584 20.739 23.253 25.036 18.336 25.798C17.536 25.922 16.728 25.889 15.702 25.888Z" fill="#00C9FF"/>
<path fill-rule="evenodd" clip-rule="evenodd" d="M26.9892 7.36898C26.9892 6.67598 26.9792 6.05698 26.9952 5.43698C27.0012 5.20498 26.9232 5.15298 26.7032 5.15398C23.0632 5.16198 19.4242 5.12498 15.7862 5.17298C10.0652 5.24798 4.89919 9.73598 3.97219 15.37C3.83619 16.19 3.76719 17.013 3.76919 17.844C3.77419 19.951 3.76619 22.059 3.77619 24.166C3.77619 24.424 3.72819 24.528 3.44219 24.515C2.90219 24.49 2.36019 24.502 1.81919 24.511C1.63819 24.514 1.55419 24.482 1.55519 24.271C1.56519 21.771 1.49619 19.271 1.58519 16.774C1.80919 10.458 6.33919 4.94098 12.4952 3.39198C13.7138 3.08883 14.9655 2.93867 16.2212 2.94498C19.6872 2.94998 23.1532 2.94298 26.6202 2.95498C26.9232 2.95498 27.0112 2.88498 26.9972 2.57798C26.9702 1.99198 26.9892 1.40498 26.9892 0.824977C27.0972 0.757977 27.1532 0.842977 27.2122 0.881977C28.7162 1.88198 30.2202 2.88398 31.7212 3.88998C31.8112 3.95098 32.0362 4.00598 31.7942 4.16798L26.9892 7.36898Z" fill="white"/>
</g>
</g>
</g>
<defs>
<clipPath id="clip0_418_7867">
<rect width="32" height="32" fill="white" transform="translate(0 0.800049)"/>
</clipPath>
<clipPath id="clip1_418_7867">
<rect width="32" height="32" fill="white" transform="translate(0 0.800049)"/>
</clipPath>
</defs>
</svg>
