<svg style="border-radius: 100%;" width="16" height="16" viewBox="0 0 15 15" fill="none"
    xmlns="http://www.w3.org/2000/svg">
    <path fill-rule="evenodd" clip-rule="evenodd"
        d="M0 0H28.5003V1.15386H0V0ZM0 2.30771H28.5003V3.46157H0V2.30771ZM0 4.61543H28.5003V5.76929H0V4.61543ZM0 6.92314H28.5003V8.077H0V6.92314ZM0 9.23086H28.5003V10.3847H0V9.23086ZM0 11.5386H28.5003V12.6924H0V11.5386ZM0 13.8463H28.5003V15.0001H0V13.8463Z"
        fill="#BD3D44" />
    <path fill-rule="evenodd" clip-rule="evenodd"
        d="M0 1.15381H28.5003V2.30767H0V1.15381ZM0 3.46152H28.5003V4.61538H0V3.46152ZM0 5.76924H28.5003V6.9231H0V5.76924ZM0 8.07695H28.5003V9.23081H0V8.07695ZM0 10.3847H28.5003V11.5385H0V10.3847ZM0 12.6924H28.5003V13.8462H0V12.6924Z"
        fill="white" />
    <path fill-rule="evenodd" clip-rule="evenodd" d="M0 0H11.4001V8.077H0V0Z" fill="#192F5D" />
    <path fill-rule="evenodd" clip-rule="evenodd"
        d="M0.94597 0.346191L1.06136 0.669272H1.38444L1.11905 0.865427L1.2229 1.17697L0.94597 0.980813L0.692122 1.17697L0.795969 0.865427L0.519043 0.669272H0.8652L0.94597 0.346191ZM2.84983 0.346191L2.95368 0.669272H3.2883L3.01137 0.865427L3.12676 1.17697L2.84983 0.980813L2.57291 1.17697L2.68829 0.865427L2.41137 0.669272H2.74599L2.84983 0.346191ZM4.7537 0.346191L4.85755 0.669272H5.19217L4.91524 0.865427L5.03063 1.17697L4.7537 0.980813L4.47677 1.17697L4.59216 0.865427L4.31523 0.669272H4.64985L4.7537 0.346191ZM6.64603 0.346191L6.76141 0.669272H7.08449L6.8191 0.865427L6.92295 1.17697L6.64603 0.980813L6.38064 1.17697L6.48449 0.865427L6.20756 0.669272H6.55372L6.64603 0.346191ZM8.54989 0.346191L8.65374 0.669272H8.98836L8.71143 0.865427L8.82682 1.17697L8.53835 0.980813L8.27296 1.17697L8.37681 0.865427L8.09989 0.669272H8.4345L8.54989 0.346191ZM10.4538 0.346191L10.5576 0.669272H10.8922L10.6153 0.865427L10.7307 1.17697L10.4538 0.980813L10.1768 1.17697L10.2922 0.865427L10.0153 0.669272H10.3499L10.4538 0.346191ZM1.90367 1.15389L2.00752 1.47697H2.34214L2.06521 1.67313L2.1806 1.98467L1.90367 1.78851L1.62675 1.98467L1.74213 1.67313L1.46521 1.47697H1.79982L1.90367 1.15389ZM3.796 1.15389L3.91138 1.47697H4.23446L3.96908 1.67313L4.07292 1.98467L3.796 1.78851L3.53061 1.98467L3.63446 1.67313L3.35753 1.47697H3.70369L3.796 1.15389ZM5.69986 1.15389L5.80371 1.47697H6.13833L5.8614 1.67313L5.97679 1.98467L5.69986 1.78851L5.42294 1.98467L5.53832 1.67313L5.2614 1.47697H5.59602L5.69986 1.15389ZM7.60373 1.15389L7.70757 1.47697H8.04219L7.76527 1.67313L7.88065 1.98467L7.60373 1.78851L7.3268 1.98467L7.44219 1.67313L7.16526 1.47697H7.49988L7.60373 1.15389ZM9.49605 1.15389L9.61144 1.47697H9.92298L9.65759 1.67313L9.76144 1.98467L9.48451 1.78851L9.21913 1.98467L9.32298 1.67313L9.04605 1.47697H9.39221L9.49605 1.15389ZM0.957509 1.96159L1.04982 2.28467H1.39597L1.11905 2.48083L1.2229 2.79237L0.94597 2.59621L0.692122 2.79237L0.795969 2.48083L0.519043 2.28467H0.8652L0.957509 1.96159ZM2.84983 1.96159L2.95368 2.28467H3.2883L3.02291 2.48083L3.12676 2.79237L2.84983 2.59621L2.58445 2.79237L2.68829 2.48083L2.41137 2.28467H2.74599L2.84983 1.96159ZM4.7537 1.96159L4.85755 2.28467H5.19217L4.91524 2.48083L5.03063 2.79237L4.7537 2.59621L4.47677 2.79237L4.59216 2.48083L4.31523 2.28467H4.64985L4.7537 1.96159ZM6.64603 1.96159L6.76141 2.28467H7.08449L6.8191 2.48083L6.92295 2.79237L6.64603 2.59621L6.38064 2.79237L6.48449 2.48083L6.20756 2.28467H6.55372L6.64603 1.96159ZM8.54989 1.96159L8.65374 2.28467H8.98836L8.72297 2.48083L8.82682 2.79237L8.54989 2.59621L8.2845 2.79237L8.38835 2.48083L8.11142 2.28467H8.44604L8.54989 1.96159ZM10.4538 1.96159L10.5576 2.28467H10.8922L10.6153 2.48083L10.7307 2.79237L10.4538 2.59621L10.1768 2.79237L10.2922 2.48083L10.0153 2.28467H10.3499L10.4538 1.96159ZM1.90367 2.76929L2.00752 3.09237H2.34214L2.06521 3.28853L2.1806 3.60007L1.90367 3.40391L1.62675 3.60007L1.74213 3.28853L1.46521 3.09237H1.79982L1.90367 2.76929ZM3.796 2.76929L3.91138 3.09237H4.23446L3.96908 3.28853L4.07292 3.60007L3.796 3.40391L3.53061 3.60007L3.63446 3.28853L3.35753 3.09237H3.70369L3.796 2.76929ZM5.69986 2.76929L5.80371 3.09237H6.13833L5.87294 3.28853L5.97679 3.60007L5.69986 3.40391L5.43448 3.60007L5.53832 3.28853L5.2614 3.09237H5.59602L5.69986 2.76929ZM7.60373 2.76929L7.70757 3.09237H8.04219L7.76527 3.28853L7.88065 3.60007L7.60373 3.40391L7.3268 3.60007L7.44219 3.28853L7.16526 3.09237H7.49988L7.60373 2.76929ZM9.49605 2.76929L9.61144 3.09237H9.92298L9.65759 3.28853L9.76144 3.60007L9.48451 3.40391L9.21913 3.60007L9.32298 3.28853L9.04605 3.09237H9.39221L9.49605 2.76929ZM0.957509 3.57699L1.04982 3.90007H1.39597L1.11905 4.09623L1.2229 4.40777L0.94597 4.21161L0.692122 4.40777L0.795969 4.09623L0.519043 3.90007H0.8652L0.957509 3.57699ZM2.84983 3.57699L2.95368 3.90007H3.2883L3.02291 4.09623L3.12676 4.40777L2.84983 4.21161L2.58445 4.40777L2.68829 4.09623L2.41137 3.90007H2.74599L2.84983 3.57699ZM4.7537 3.57699L4.85755 3.90007H5.19217L4.91524 4.09623L5.03063 4.40777L4.7537 4.21161L4.47677 4.40777L4.59216 4.09623L4.31523 3.90007H4.64985L4.7537 3.57699ZM6.64603 3.57699L6.76141 3.90007H7.08449L6.8191 4.09623L6.92295 4.40777L6.64603 4.21161L6.38064 4.40777L6.48449 4.09623L6.20756 3.90007H6.55372L6.64603 3.57699ZM8.54989 3.57699L8.65374 3.90007H8.98836L8.72297 4.09623L8.82682 4.40777L8.54989 4.21161L8.2845 4.40777L8.38835 4.09623L8.11142 3.90007H8.44604L8.54989 3.57699ZM10.4538 3.57699L10.5576 3.90007H10.8922L10.6153 4.09623L10.7307 4.40777L10.4538 4.21161L10.1768 4.40777L10.2922 4.09623L10.0153 3.90007H10.3499L10.4538 3.57699ZM1.90367 4.38469L2.00752 4.70777H2.34214L2.06521 4.90393L2.1806 5.21547L1.90367 5.01931L1.62675 5.21547L1.74213 4.90393L1.46521 4.70777H1.79982L1.90367 4.38469ZM3.796 4.38469L3.91138 4.70777H4.23446L3.96908 4.90393L4.07292 5.21547L3.796 5.01931L3.53061 5.21547L3.63446 4.90393L3.35753 4.70777H3.70369L3.796 4.38469ZM5.69986 4.38469L5.80371 4.70777H6.13833L5.87294 4.90393L5.97679 5.21547L5.69986 5.01931L5.43448 5.21547L5.53832 4.90393L5.2614 4.70777H5.59602L5.69986 4.38469ZM7.60373 4.38469L7.70757 4.70777H8.04219L7.76527 4.90393L7.88065 5.21547L7.60373 5.01931L7.3268 5.21547L7.44219 4.90393L7.16526 4.70777H7.49988L7.60373 4.38469ZM9.49605 4.38469L9.61144 4.70777H9.92298L9.65759 4.90393L9.76144 5.21547L9.48451 5.01931L9.21913 5.21547L9.32298 4.90393L9.04605 4.70777H9.39221L9.49605 4.38469ZM0.957509 5.19239L1.04982 5.51547H1.39597L1.11905 5.71163L1.2229 6.02317L0.94597 5.82701L0.692122 6.02317L0.795969 5.71163L0.519043 5.51547H0.8652L0.957509 5.19239ZM2.84983 5.19239L2.95368 5.51547H3.2883L3.02291 5.71163L3.12676 6.02317L2.84983 5.82701L2.58445 6.02317L2.68829 5.71163L2.41137 5.51547H2.74599L2.84983 5.19239ZM4.7537 5.19239L4.85755 5.51547H5.19217L4.91524 5.71163L5.03063 6.02317L4.7537 5.82701L4.47677 6.02317L4.59216 5.71163L4.31523 5.51547H4.64985L4.7537 5.19239ZM6.64603 5.19239L6.76141 5.51547H7.08449L6.8191 5.71163L6.92295 6.02317L6.64603 5.82701L6.38064 6.02317L6.48449 5.71163L6.20756 5.51547H6.55372L6.64603 5.19239ZM8.54989 5.19239L8.65374 5.51547H8.98836L8.72297 5.71163L8.82682 6.02317L8.54989 5.82701L8.2845 6.02317L8.38835 5.71163L8.11142 5.51547H8.44604L8.54989 5.19239ZM10.4538 5.19239L10.5576 5.51547H10.8922L10.6153 5.71163L10.7307 6.02317L10.4538 5.82701L10.1768 6.02317L10.2922 5.71163L10.0153 5.51547H10.3499L10.4538 5.19239ZM1.90367 6.00009L2.00752 6.32317H2.34214L2.06521 6.51933L2.1806 6.83087L1.90367 6.63471L1.62675 6.83087L1.74213 6.51933L1.46521 6.32317H1.79982L1.90367 6.00009ZM3.796 6.00009L3.91138 6.32317H4.23446L3.96908 6.51933L4.07292 6.83087L3.796 6.63471L3.53061 6.83087L3.63446 6.51933L3.35753 6.32317H3.70369L3.796 6.00009ZM5.69986 6.00009L5.80371 6.32317H6.13833L5.87294 6.51933L5.97679 6.83087L5.69986 6.63471L5.43448 6.83087L5.53832 6.51933L5.2614 6.32317H5.59602L5.69986 6.00009ZM7.60373 6.00009L7.70757 6.32317H8.04219L7.76527 6.51933L7.88065 6.83087L7.60373 6.63471L7.3268 6.83087L7.44219 6.51933L7.16526 6.32317H7.49988L7.60373 6.00009ZM9.49605 6.00009L9.61144 6.32317H9.92298L9.65759 6.51933L9.76144 6.83087L9.48451 6.63471L9.21913 6.83087L9.32298 6.51933L9.04605 6.32317H9.39221L9.49605 6.00009ZM0.957509 6.80779L1.04982 7.13087H1.39597L1.11905 7.32703L1.2229 7.63857L0.94597 7.44241L0.692122 7.63857L0.795969 7.32703L0.519043 7.13087H0.8652L0.957509 6.80779ZM2.84983 6.80779L2.95368 7.13087H3.2883L3.02291 7.32703L3.12676 7.63857L2.84983 7.44241L2.58445 7.63857L2.68829 7.32703L2.41137 7.13087H2.74599L2.84983 6.80779ZM4.7537 6.80779L4.85755 7.13087H5.19217L4.91524 7.32703L5.03063 7.63857L4.7537 7.44241L4.47677 7.63857L4.59216 7.32703L4.31523 7.13087H4.64985L4.7537 6.80779ZM6.64603 6.80779L6.76141 7.13087H7.08449L6.8191 7.32703L6.92295 7.63857L6.64603 7.44241L6.38064 7.63857L6.48449 7.32703L6.20756 7.13087H6.55372L6.64603 6.80779ZM8.54989 6.80779L8.65374 7.13087H8.98836L8.72297 7.32703L8.82682 7.63857L8.54989 7.44241L8.2845 7.63857L8.38835 7.32703L8.11142 7.13087H8.44604L8.54989 6.80779ZM10.4538 6.80779L10.5576 7.13087H10.8922L10.6153 7.32703L10.7307 7.63857L10.4538 7.44241L10.1768 7.63857L10.2922 7.32703L10.0153 7.13087H10.3499L10.4538 6.80779Z"
        fill="white" />
</svg>