   <svg
                        width="21"
                        height="15"
                        viewBox="0 0 21 15"
                        fill="none"
                        xmlns="http://www.w3.org/2000/svg"
                      >
                        <path
                          d="M12.179 14.3137C11.9207 14.0553 11.7967 13.7432 11.807 13.3772C11.8182 13.0112 11.953 12.6991 12.2113 12.4407L15.8603 8.79178H1.45817C1.0922 8.79178 0.785212 8.66778 0.537212 8.41978C0.290074 8.17264 0.166504 7.86609 0.166504 7.50011C0.166504 7.13414 0.290074 6.82716 0.537212 6.57916C0.785212 6.33202 1.0922 6.20845 1.45817 6.20845H15.8603L12.179 2.5272C11.9207 2.26886 11.7915 1.96188 11.7915 1.60624C11.7915 1.25146 11.9207 0.944905 12.179 0.686572C12.4373 0.428239 12.7443 0.299072 13.1 0.299072C13.4547 0.299072 13.7613 0.428239 14.0196 0.686572L19.929 6.59595C20.0582 6.72511 20.1499 6.86504 20.2041 7.01574C20.2575 7.16643 20.2842 7.32789 20.2842 7.50011C20.2842 7.67234 20.2575 7.83379 20.2041 7.98449C20.1499 8.13518 20.0582 8.27511 19.929 8.40428L13.9873 14.3459C13.7505 14.5828 13.4547 14.7012 13.1 14.7012C12.7443 14.7012 12.4373 14.572 12.179 14.3137Z"
                          fill="#00C9FF"
                        />
                      </svg>