  <svg
                    width="11"
                    height="11"
                    viewBox="0 0 11 11"
                    fill="none"
                    xmlns="http://www.w3.org/2000/svg"
                  >
                    <path
                      d="M10.5417 0H3.20833C3.08678 0 2.9702 0.0482886 2.88424 0.134243C2.79829 0.220197 2.75 0.336776 2.75 0.458333V2.75H0.458333C0.336776 2.75 0.220197 2.79829 0.134243 2.88424C0.0482886 2.9702 0 3.08678 0 3.20833V10.5417C0 10.6632 0.0482886 10.7798 0.134243 10.8658C0.220197 10.9517 0.336776 11 0.458333 11H7.79167C7.91322 11 8.0298 10.9517 8.11576 10.8658C8.20171 10.7798 8.25 10.6632 8.25 10.5417V8.25H10.5417C10.6632 8.25 10.7798 8.20171 10.8658 8.11576C10.9517 8.0298 11 7.91322 11 7.79167V0.458333C11 0.336776 10.9517 0.220197 10.8658 0.134243C10.7798 0.0482886 10.6632 0 10.5417 0ZM7.33333 10.0833H0.916667V3.66667H7.33333V10.0833ZM10.0833 7.33333H8.25V3.20833C8.25 3.08678 8.20171 2.9702 8.11576 2.88424C8.0298 2.79829 7.91322 2.75 7.79167 2.75H3.66667V0.916667H10.0833V7.33333Z"
                      fill="#F8F8F8"
                    />
                  </svg>