 <svg
                    width="14"
                    height="11"
                    viewBox="0 0 14 11"
                    fill="none"
                    xmlns="http://www.w3.org/2000/svg"
                  >
                    <path
                      d="M12.2812 2.33083L12.0546 2.48868L12.0675 2.76458C12.2393 6.42101 9.41687 10.5 4.40202 10.5C3.58325 10.5 2.79551 10.3754 2.05666 10.1455C2.16345 10.1224 2.26971 10.0966 2.37534 10.068C3.16633 9.85414 3.90687 9.49183 4.55444 9.00098L5.70272 8.1306L4.26212 8.10261C3.76208 8.09289 3.27948 7.93272 2.88169 7.64692C2.70674 7.52122 2.55221 7.37415 2.4213 7.2106C2.61761 7.19314 2.80923 7.15917 2.99384 7.11035L2.96134 6.13614C2.09528 5.96794 1.44306 5.36106 1.18394 4.63104C1.40107 4.68063 1.62338 4.70928 1.84764 4.7162L3.6412 4.77153L2.1347 3.79666C1.63105 3.47074 1.27946 2.97559 1.14515 2.4151C1.06627 2.08596 1.06525 1.74679 1.13885 1.42157C1.79525 2.0668 2.55664 2.60557 3.39385 3.01588C4.47542 3.54595 5.65984 3.85003 6.87005 3.90895L7.53699 3.94142L7.38043 3.29231C7.04233 1.89048 8.14144 0.5 9.69421 0.5C10.3811 0.5 10.9992 0.780448 11.4317 1.22565L11.6193 1.41866L11.8837 1.36843C11.958 1.3543 12.0321 1.33888 12.1057 1.32216L12.4083 2.23593C12.4102 2.23572 12.4121 2.2355 12.4139 2.23529C12.3703 2.26778 12.326 2.29963 12.2812 2.33083Z"
                      stroke="white"
                    />
                  </svg>