<svg width="15" height="15" viewBox="0 0 15 15" fill="none" xmlns="http://www.w3.org/2000/svg">
<path d="M12.4587 1.83341H11.042V1.12508C11.042 0.93722 10.9674 0.757052 10.8345 0.624214C10.7017 0.491376 10.5215 0.416748 10.3337 0.416748C10.1458 0.416748 9.96563 0.491376 9.83279 0.624214C9.69995 0.757052 9.62533 0.93722 9.62533 1.12508V1.83341H5.37533V1.12508C5.37533 0.93722 5.3007 0.757052 5.16786 0.624214C5.03502 0.491376 4.85485 0.416748 4.66699 0.416748C4.47913 0.416748 4.29896 0.491376 4.16612 0.624214C4.03329 0.757052 3.95866 0.93722 3.95866 1.12508V1.83341H2.54199C1.97841 1.83341 1.43791 2.0573 1.03939 2.45581C0.640876 2.85433 0.416992 3.39483 0.416992 3.95841V12.4584C0.416992 13.022 0.640876 13.5625 1.03939 13.961C1.43791 14.3595 1.97841 14.5834 2.54199 14.5834H12.4587C13.0222 14.5834 13.5627 14.3595 13.9613 13.961C14.3598 13.5625 14.5837 13.022 14.5837 12.4584V3.95841C14.5837 3.39483 14.3598 2.85433 13.9613 2.45581C13.5627 2.0573 13.0222 1.83341 12.4587 1.83341ZM13.167 12.4584C13.167 12.6463 13.0924 12.8264 12.9595 12.9593C12.8267 13.0921 12.6465 13.1667 12.4587 13.1667H2.54199C2.35413 13.1667 2.17396 13.0921 2.04112 12.9593C1.90829 12.8264 1.83366 12.6463 1.83366 12.4584V7.50008H13.167V12.4584ZM13.167 6.08341H1.83366V3.95841C1.83366 3.77055 1.90829 3.59039 2.04112 3.45755C2.17396 3.32471 2.35413 3.25008 2.54199 3.25008H3.95866V3.95841C3.95866 4.14628 4.03329 4.32644 4.16612 4.45928C4.29896 4.59212 4.47913 4.66675 4.66699 4.66675C4.85485 4.66675 5.03502 4.59212 5.16786 4.45928C5.3007 4.32644 5.37533 4.14628 5.37533 3.95841V3.25008H9.62533V3.95841C9.62533 4.14628 9.69995 4.32644 9.83279 4.45928C9.96563 4.59212 10.1458 4.66675 10.3337 4.66675C10.5215 4.66675 10.7017 4.59212 10.8345 4.45928C10.9674 4.32644 11.042 4.14628 11.042 3.95841V3.25008H12.4587C12.6465 3.25008 12.8267 3.32471 12.9595 3.45755C13.0924 3.59039 13.167 3.77055 13.167 3.95841V6.08341Z" fill="white"/>
</svg>
