<svg width="11" height="11" viewBox="0 0 11 11" fill="none" xmlns="http://www.w3.org/2000/svg">
<path d="M9.19994 6.21995C9.21994 6.06995 9.22994 5.91495 9.22994 5.74995C9.22994 5.58995 9.21994 5.42995 9.19494 5.27995L10.2099 4.48995C10.2999 4.41995 10.3249 4.28495 10.2699 4.18495L9.30994 2.52495C9.24994 2.41495 9.12494 2.37995 9.01494 2.41495L7.81994 2.89495C7.56994 2.70495 7.30494 2.54495 7.00994 2.42495L6.82994 1.15495C6.80994 1.03495 6.70994 0.949951 6.58994 0.949951H4.66994C4.54994 0.949951 4.45494 1.03495 4.43494 1.15495L4.25494 2.42495C3.95994 2.54495 3.68994 2.70995 3.44494 2.89495L2.24994 2.41495C2.13994 2.37495 2.01494 2.41495 1.95494 2.52495L0.999938 4.18495C0.939938 4.28995 0.959938 4.41995 1.05994 4.48995L2.07494 5.27995C2.04994 5.42995 2.02994 5.59495 2.02994 5.74995C2.02994 5.90495 2.03994 6.06995 2.06494 6.21995L1.04994 7.00995C0.959938 7.07995 0.934938 7.21495 0.989938 7.31495L1.94994 8.97495C2.00994 9.08495 2.13494 9.11995 2.24494 9.08495L3.43994 8.60495C3.68994 8.79495 3.95494 8.95495 4.24994 9.07495L4.42994 10.345C4.45494 10.465 4.54994 10.55 4.66994 10.55H6.58994C6.70994 10.55 6.80994 10.465 6.82494 10.345L7.00494 9.07495C7.29994 8.95495 7.56994 8.79495 7.81494 8.60495L9.00994 9.08495C9.11994 9.12495 9.24494 9.08495 9.30494 8.97495L10.2649 7.31495C10.3249 7.20495 10.2999 7.07995 10.2049 7.00995L9.19994 6.21995ZM5.62994 7.54995C4.63994 7.54995 3.82994 6.73995 3.82994 5.74995C3.82994 4.75995 4.63994 3.94995 5.62994 3.94995C6.61994 3.94995 7.42994 4.75995 7.42994 5.74995C7.42994 6.73995 6.61994 7.54995 5.62994 7.54995Z" fill="#01B47E"/>
</svg>
