<svg width="17" height="14" viewBox="0 0 17 14" fill="none" xmlns="http://www.w3.org/2000/svg">
<path d="M1.59375 5.90622H3.1875V10.1562H2.125C1.9841 10.1562 1.84898 10.2122 1.74935 10.3118C1.64972 10.4115 1.59375 10.5466 1.59375 10.6875C1.59375 10.8284 1.64972 10.9635 1.74935 11.0631C1.84898 11.1628 1.9841 11.2187 2.125 11.2187H14.875C15.0159 11.2187 15.151 11.1628 15.2507 11.0631C15.3503 10.9635 15.4062 10.8284 15.4062 10.6875C15.4062 10.5466 15.3503 10.4115 15.2507 10.3118C15.151 10.2122 15.0159 10.1562 14.875 10.1562H13.8125V5.90622H15.4062C15.5218 5.90611 15.6342 5.8683 15.7264 5.79852C15.8185 5.72875 15.8854 5.63082 15.9169 5.5196C15.9484 5.40837 15.9427 5.28992 15.9008 5.18221C15.8588 5.0745 15.7829 4.98341 15.6845 4.92275L8.77824 0.672748C8.69456 0.621295 8.59824 0.594055 8.5 0.594055C8.40176 0.594055 8.30545 0.621295 8.22176 0.672748L1.31551 4.92275C1.21711 4.98341 1.14118 5.0745 1.09924 5.18221C1.0573 5.28992 1.05163 5.40837 1.0831 5.5196C1.11457 5.63082 1.18145 5.72875 1.27361 5.79852C1.36576 5.8683 1.47816 5.90611 1.59375 5.90622ZM4.25 5.90622H6.375V10.1562H4.25V5.90622ZM9.5625 5.90622V10.1562H7.4375V5.90622H9.5625ZM12.75 10.1562H10.625V5.90622H12.75V10.1562ZM8.5 1.74853L13.5296 4.84372H3.47039L8.5 1.74853ZM16.4688 12.8125C16.4688 12.9534 16.4128 13.0885 16.3132 13.1881C16.2135 13.2878 16.0784 13.3437 15.9375 13.3437H1.0625C0.921604 13.3437 0.786478 13.2878 0.68685 13.1881C0.587221 13.0885 0.53125 12.9534 0.53125 12.8125C0.53125 12.6716 0.587221 12.5365 0.68685 12.4368C0.786478 12.3372 0.921604 12.2812 1.0625 12.2812H15.9375C16.0784 12.2812 16.2135 12.3372 16.3132 12.4368C16.4128 12.5365 16.4688 12.6716 16.4688 12.8125Z" fill="#F8F8F8"/>
</svg>
