<svg
            width="18"
            height="19"
            viewBox="0 0 18 19"
            fill="none"
            xmlns="http://www.w3.org/2000/svg"
          >
            <path
              fill-rule="evenodd"
              clip-rule="evenodd"
              d="M13.302 16.464L12.808 14.737L14 15.848L15.127 16.893L17.129 18.667V1.923C17.1299 1.6713 17.0812 1.42189 16.9857 1.18901C16.8902 0.956136 16.7498 0.744357 16.5724 0.565777C16.395 0.387196 16.1842 0.245314 15.952 0.148236C15.7198 0.0511582 15.4707 0.000786516 15.219 0H2.744C2.4923 0.000786516 2.24322 0.0511582 2.011 0.148236C1.77878 0.245314 1.56795 0.387196 1.39058 0.565777C1.21321 0.744357 1.07276 0.956136 0.977258 1.18901C0.881757 1.42189 0.833076 1.6713 0.833997 1.923V14.54C0.833997 15.604 1.691 16.463 2.744 16.463H13.303L13.302 16.464ZM11.626 12.189L11.011 11.433C12.231 11.088 12.696 10.323 12.696 10.323C12.315 10.575 11.951 10.752 11.626 10.873C11.193 11.0585 10.74 11.1934 10.276 11.275C9.4784 11.422 8.66035 11.4186 7.864 11.265C7.39638 11.1734 6.93813 11.0392 6.495 10.864C6.26132 10.7741 6.03411 10.6682 5.815 10.547L5.778 10.525L5.768 10.521L5.731 10.5L5.694 10.472L5.434 10.313C5.434 10.313 5.88 11.06 7.063 11.415L6.439 12.189C4.381 12.124 3.599 10.771 3.599 10.771C3.599 7.765 4.94 5.329 4.94 5.329C6.28 4.321 7.557 4.349 7.557 4.349L7.65 4.461C5.974 4.947 5.2 5.684 5.2 5.684L5.75 5.414C6.746 4.974 7.538 4.854 7.864 4.825L8.022 4.807C9.63702 4.58796 11.2796 4.89551 12.706 5.684C12.706 5.684 11.97 4.984 10.387 4.499L10.517 4.349C10.517 4.349 11.793 4.321 13.134 5.329C13.134 5.329 14.474 7.765 14.474 10.771C14.474 10.771 13.713 12.073 11.626 12.189ZM10.694 7.831C10.164 7.831 9.744 8.297 9.744 8.867C9.744 9.436 10.173 9.903 10.694 9.903C11.225 9.903 11.644 9.436 11.644 8.867C11.644 8.297 11.225 7.831 10.694 7.831ZM7.296 7.831C6.765 7.831 6.346 8.297 6.346 8.867C6.346 9.436 6.774 9.903 7.296 9.903C7.826 9.903 8.246 9.436 8.246 8.867C8.255 8.297 7.826 7.831 7.296 7.831Z"
              fill="white"
            />
          </svg>