<svg width="17" height="13" viewBox="0 0 17 13" fill="none" xmlns="http://www.w3.org/2000/svg">
  <path
    d="M14.4227 1.09988C14.4227 1.09988 14.4121 1.08362 14.4015 1.0782C13.3171 0.579738 12.153 0.211306 10.941 0C10.9198 0 10.8985 0.00541811 10.8879 0.0270905C10.739 0.292578 10.5742 0.639337 10.4573 0.915661C9.14967 0.720609 7.84735 0.720609 6.5663 0.915661C6.44935 0.633919 6.27926 0.292578 6.13042 0.0270905C6.11979 0.00541811 6.09853 0 6.07726 0C4.85999 0.211306 3.7012 0.579738 2.61682 1.0782C2.60619 1.0782 2.60087 1.08904 2.59556 1.09988C0.378959 4.39951 -0.227018 7.62328 0.0706548 10.8091C0.0706548 10.8254 0.081286 10.8416 0.0919172 10.8471C1.54839 11.9198 2.95702 12.57 4.33907 12.998C4.36033 13.0035 4.38691 12.998 4.39754 12.9764C4.72711 12.5267 5.01415 12.0553 5.26398 11.5568C5.27993 11.5297 5.26398 11.4918 5.23209 11.481C4.76963 11.3076 4.32844 11.0909 3.90319 10.8471C3.8713 10.8254 3.86598 10.782 3.89787 10.7549C3.98824 10.6899 4.0786 10.6195 4.16365 10.5491C4.1796 10.5382 4.20086 10.5328 4.21681 10.5436C7.00217 11.8169 10.0161 11.8169 12.7643 10.5436C12.7802 10.5328 12.8015 10.5382 12.8174 10.5491C12.9025 10.6195 12.9928 10.6899 13.0832 10.7549C13.1151 10.7766 13.1098 10.8254 13.0832 10.8471C12.658 11.0963 12.2168 11.3076 11.7543 11.481C11.7224 11.4918 11.7118 11.5297 11.7277 11.5568C11.9829 12.0553 12.2752 12.5267 12.5942 12.971C12.6101 12.9872 12.6314 12.998 12.6526 12.9926C14.04 12.5592 15.454 11.909 16.9051 10.8416C16.9157 10.8308 16.9264 10.82 16.9264 10.8037C17.2825 7.12481 16.331 3.92813 14.4121 1.09446L14.4227 1.09988ZM5.68391 8.86945C4.84405 8.86945 4.15302 8.10007 4.15302 7.15191C4.15302 6.20374 4.8281 5.43436 5.68391 5.43436C6.53972 5.43436 7.22543 6.21457 7.2148 7.15191C7.2148 8.10007 6.53972 8.86945 5.68391 8.86945ZM11.3344 8.86945C10.4945 8.86945 9.80349 8.10007 9.80349 7.15191C9.80349 6.20374 10.4786 5.43436 11.3344 5.43436C12.1902 5.43436 12.8759 6.21457 12.8653 7.15191C12.8653 8.10007 12.1955 8.86945 11.3344 8.86945Z"
    fill="#DCEEF6" />
</svg>
  