     <svg
            width="20"
            height="19"
            viewBox="0 0 20 19"
            fill="none"
            xmlns="http://www.w3.org/2000/svg"
          >
            <path
              d="M12.97 18.8211C12.498 18.9131 12.347 18.6231 12.347 18.3731V15.8121C12.347 14.9421 12.042 14.3731 11.707 14.0841C13.782 13.8541 15.961 13.0641 15.961 9.47906C15.961 8.45906 15.598 7.62706 15.001 6.97306C15.098 6.73706 15.417 5.78806 14.91 4.50306C14.91 4.50306 14.13 4.25206 12.352 5.45906C11.5913 5.25365 10.807 5.14876 10.019 5.14706C9.23129 5.14831 8.44718 5.25355 7.68701 5.46006C5.90901 4.25306 5.12701 4.50406 5.12701 4.50406C4.62201 5.78906 4.94001 6.73906 5.03701 6.97406C4.40747 7.65497 4.06377 8.55182 4.07701 9.47906C4.07701 13.0551 6.25001 13.8551 8.31901 14.0911C8.05301 14.3241 7.81201 14.7351 7.72901 15.3391C7.19601 15.5771 5.84901 15.9891 5.01901 14.5631C5.01901 14.5631 4.52701 13.6671 3.59101 13.6001C3.59101 13.6001 2.68301 13.5881 3.52801 14.1681C3.52801 14.1681 4.13901 14.4551 4.56101 15.5331C4.56101 15.5331 5.10001 17.2001 7.69101 16.6351V18.3721C7.69101 18.6191 7.54101 18.9081 7.07601 18.8221C5.22001 18.2004 3.60648 17.0108 2.46369 15.4217C1.3209 13.8326 0.706706 11.9244 0.70801 9.96706C0.70801 4.81106 4.87801 0.633057 10.018 0.633057C15.16 0.633057 19.33 4.81106 19.33 9.96706C19.3317 11.9233 18.7185 13.8305 17.5773 15.4193C16.436 17.0081 14.8244 18.1981 12.97 18.8211Z"
              fill="white"
            />
          </svg>