 <svg
            width="20"
            height="12"
            viewBox="0 0 20 12"
            fill="none"
            xmlns="http://www.w3.org/2000/svg"
          >
            <path
              d="M5.82604 0.400024C8.81003 0.400024 11.229 2.90702 11.229 6.00002C11.229 9.09303 8.81003 11.6 5.82604 11.6C2.84204 11.6 0.423035 9.09303 0.423035 6.00002C0.423035 2.90602 2.84204 0.400024 5.82604 0.400024ZM14.45 0.728024C15.942 0.728024 17.152 3.08902 17.152 6.00002C17.152 8.91103 15.942 11.271 14.45 11.271C12.958 11.271 11.748 8.91103 11.748 6.00002C11.748 3.09002 12.958 0.728024 14.45 0.728024ZM18.62 1.27703C19.146 1.27703 19.57 3.39202 19.57 6.00002C19.57 8.60802 19.145 10.723 18.62 10.723C18.096 10.723 17.67 8.60802 17.67 6.00002C17.67 3.39202 18.096 1.27703 18.62 1.27703Z"
              fill="white"
            />
          </svg>