          <svg
            width="19"
            height="16"
            viewBox="0 0 19 16"
            fill="none"
            xmlns="http://www.w3.org/2000/svg"
          >
            <path
              d="M17.031 3.85998C17.275 9.24698 13.267 15.252 6.17098 15.252C4.01398 15.252 2.00698 14.617 0.315979 13.531C1.31671 13.6511 2.33129 13.5728 3.30176 13.3007C4.27223 13.0285 5.17958 12.5679 5.97198 11.945C5.17394 11.9289 4.40086 11.6639 3.76079 11.187C3.12072 10.7101 2.64566 10.0451 2.40198 9.28498C3.00198 9.39998 3.59198 9.36698 4.12798 9.21998C2.29098 8.84998 1.02198 7.18998 1.06398 5.41598C1.59419 5.71134 2.18736 5.87557 2.79398 5.89498C1.98446 5.35172 1.41188 4.52089 1.19238 3.57101C0.972877 2.62114 1.12289 1.62333 1.61198 0.779979C2.56983 1.96257 3.76604 2.93014 5.12271 3.61967C6.47938 4.3092 7.96607 4.70524 9.48598 4.78198C8.92898 2.38698 10.742 0.0789795 13.21 0.0789795C14.307 0.0789795 15.3 0.543979 15.998 1.28898C16.854 1.12034 17.6746 0.805752 18.424 0.358979C18.1391 1.24548 17.5421 1.99843 16.744 2.47798C17.5011 2.38768 18.2404 2.18407 18.937 1.87398C18.4264 2.64502 17.7807 3.31848 17.031 3.85998Z"
              fill="white"
            />
          </svg>